<svg width="28" height="28" viewBox="0 0 28 28" fill="none" xmlns="http://www.w3.org/2000/svg">
<rect x="0.75" y="0.75" width="26.5" height="26.5" rx="13.25" fill="url(#paint0_linear_3950_11732)" stroke="white" stroke-width="1.5"/>
<path d="M10.9239 13.0581V8.13015C10.9239 8.05696 10.98 7.99841 11.0497 8.00003C11.8322 8.01684 16.0721 8.15129 18.2692 9.14014C18.315 9.16074 18.3436 9.20791 18.3436 9.25995V18.8059C18.3436 18.8633 18.3077 18.9143 18.2547 18.9306C17.6038 19.1284 13.5151 20.3255 10.1227 20.268C10.0546 20.2669 10 20.2078 10 20.1368V15.7862C10 15.7179 10.0494 15.6615 10.1149 15.6566C10.9613 15.5959 16.2478 15.1893 17.9162 14.3999C18.0161 14.3528 18.0166 14.2058 17.9157 14.1614C17.3064 13.8936 15.3832 13.2392 11.0481 13.1872C10.98 13.1866 10.9239 13.1286 10.9239 13.0576V13.0581Z" fill="white"/>
<defs>
<linearGradient id="paint0_linear_3950_11732" x1="20.6565" y1="6.69604" x2="21.004" y2="27.2335" gradientUnits="userSpaceOnUse">
<stop stop-color="#5B2CD3"/>
<stop offset="1" stop-color="#2B48F4"/>
</linearGradient>
</defs>
</svg>
