<svg width="18" height="18" viewBox="0 0 18 18" fill="none" xmlns="http://www.w3.org/2000/svg">
<path d="M8.43782 13.1666H9.68782V8.16663H8.43782V13.1666ZM8.99995 6.62496C9.19464 6.62496 9.35796 6.56107 9.48991 6.43329C9.62185 6.30551 9.68782 6.14718 9.68782 5.95829C9.68782 5.7576 9.62198 5.58937 9.49028 5.4536C9.35857 5.31784 9.19538 5.24996 9.0007 5.24996C8.806 5.24996 8.64269 5.31784 8.51074 5.4536C8.3788 5.58937 8.31282 5.7576 8.31282 5.95829C8.31282 6.14718 8.37867 6.30551 8.51037 6.43329C8.64207 6.56107 8.80527 6.62496 8.99995 6.62496ZM9.00587 17.3333C7.85678 17.3333 6.77692 17.1145 5.76628 16.677C4.75564 16.2395 3.87185 15.6423 3.11491 14.8854C2.35796 14.1284 1.76074 13.2441 1.32324 12.2324C0.885742 11.2208 0.666992 10.1398 0.666992 8.98954C0.666992 7.83928 0.885742 6.75831 1.32324 5.74665C1.76074 4.73497 2.35796 3.85413 3.11491 3.10413C3.87185 2.35413 4.75617 1.76038 5.76785 1.32288C6.77951 0.885376 7.86048 0.666626 9.01074 0.666626C10.161 0.666626 11.242 0.885376 12.2536 1.32288C13.2653 1.76038 14.1462 2.35413 14.8962 3.10413C15.6462 3.85413 16.2399 4.73607 16.6774 5.74996C17.1149 6.76385 17.3337 7.84533 17.3337 8.99442C17.3337 10.1435 17.1149 11.2234 16.6774 12.234C16.2399 13.2446 15.6462 14.1272 14.8962 14.8815C14.1462 15.6359 13.2642 16.2332 12.2503 16.6732C11.2364 17.1133 10.1549 17.3333 9.00587 17.3333ZM9.01074 16.0833C10.976 16.0833 12.6462 15.3923 14.0212 14.0104C15.3962 12.6284 16.0837 10.9548 16.0837 8.98954C16.0837 7.02426 15.3975 5.35413 14.0251 3.97913C12.6527 2.60413 10.9778 1.91663 9.00032 1.91663C7.04199 1.91663 5.37185 2.60282 3.98991 3.97521C2.60796 5.34761 1.91699 7.02253 1.91699 8.99996C1.91699 10.9583 2.60796 12.6284 3.98991 14.0104C5.37185 15.3923 7.04546 16.0833 9.01074 16.0833Z" fill="#140A2B"/>
</svg>
