<svg width="16" height="19" viewBox="0 0 16 19" fill="none" xmlns="http://www.w3.org/2000/svg">
<path d="M13.3768 9.55832C13.3677 8.07577 14.075 6.95843 15.5033 6.13454C14.7044 5.04763 13.4959 4.44983 11.9027 4.33461C10.3943 4.22157 8.74392 5.16936 8.13963 5.16936C7.501 5.16936 6.04063 4.37374 4.89156 4.37374C2.52017 4.40852 0 6.16932 0 9.75179C0 10.8104 0.20372 11.9039 0.611159 13.0299C1.15594 14.5125 3.11989 18.1449 5.16853 18.0863C6.23977 18.0623 6.99742 17.3645 8.39142 17.3645C9.74421 17.3645 10.4446 18.0863 11.6395 18.0863C13.7064 18.058 15.4827 14.7559 16 13.269C13.228 12.0278 13.3768 9.63441 13.3768 9.55832ZM10.9711 2.92815C12.1316 1.6195 12.0263 0.428244 11.992 0C10.9665 0.0565195 9.78083 0.663018 9.10558 1.40864C8.36166 2.20861 7.92446 3.1977 8.01831 4.31288C9.12618 4.39331 10.1379 3.85202 10.9711 2.92815Z" fill="#140A2B"/>
</svg>
