<svg width="18" height="24" viewBox="0 0 18 24" fill="none" xmlns="http://www.w3.org/2000/svg">
<path d="M1.8853 9.89358V0.25456C1.8853 0.111407 1.99988 -0.00311649 2.14205 6.47052e-05C3.73877 0.0329371 12.3908 0.295916 16.8743 2.23008C16.9677 2.27038 17.0261 2.36263 17.0261 2.46443V21.1359C17.0261 21.2483 16.9529 21.348 16.8446 21.3798C15.5163 21.7669 7.17305 24.1082 0.250383 23.9958C0.111399 23.9937 0 23.8781 0 23.7392V15.2295C0 15.0959 0.10079 14.9856 0.234469 14.9761C1.96169 14.8573 12.7494 14.062 16.154 12.5181C16.3577 12.4258 16.3587 12.1384 16.1529 12.0515C14.9095 11.5277 10.985 10.2478 2.13887 10.146C1.99988 10.1449 1.8853 10.0314 1.8853 9.89252V9.89358Z" fill="#2B48F4"/>
</svg>
