<svg width="654" height="494" viewBox="0 0 654 494" fill="none" xmlns="http://www.w3.org/2000/svg">
<g filter="url(#filter0_d_4572_3348)">
<rect x="8" y="173.133" width="384" height="297" rx="20" fill="white"/>
</g>
<rect x="290" y="204.633" width="78" height="28" rx="14" fill="#EF8B50"/>
<path d="M304.277 216.154L304.91 215.059V221.633H305.848V213.078H304.969L303.463 215.686L304.277 216.154ZM308.326 220.695L311.157 217.637C311.809 216.984 312.135 216.311 312.135 215.615C312.135 214.916 311.877 214.318 311.362 213.822C310.85 213.326 310.231 213.078 309.504 213.078C308.817 213.078 308.221 213.33 307.717 213.834C307.217 214.334 306.967 214.928 306.967 215.615V216.084H307.905V215.615C307.905 215.182 308.063 214.807 308.379 214.49C308.696 214.174 309.071 214.016 309.504 214.016C309.977 214.016 310.377 214.17 310.705 214.479C311.034 214.787 311.198 215.166 311.198 215.615C311.198 215.979 311.061 216.324 310.787 216.652L310.166 217.32L306.903 220.842V221.633H312.51V220.695H308.326ZM324.587 215.217C324.114 215.217 323.671 215.346 323.257 215.604C322.858 215.857 322.532 216.201 322.278 216.635C322.02 216.201 321.692 215.857 321.294 215.604C320.88 215.346 320.436 215.217 319.964 215.217C319.261 215.217 318.645 215.484 318.118 216.02V215.275H317.18V221.633H318.118V218.393C318.118 217.775 318.298 217.248 318.657 216.811C319.02 216.373 319.456 216.154 319.964 216.154C320.471 216.154 320.905 216.373 321.264 216.811C321.628 217.252 321.809 217.781 321.809 218.398V221.633H322.747V218.398C322.747 217.781 322.927 217.252 323.286 216.811C323.645 216.373 324.079 216.154 324.587 216.154C325.098 216.154 325.534 216.373 325.893 216.811C326.253 217.252 326.432 217.781 326.432 218.398V221.633H327.37V218.398C327.37 217.52 327.098 216.77 326.555 216.148C326.012 215.527 325.356 215.217 324.587 215.217ZM331.237 215.211C330.355 215.211 329.601 215.527 328.976 216.16C328.355 216.797 328.044 217.562 328.044 218.457C328.044 219.348 328.355 220.111 328.976 220.748C329.601 221.381 330.355 221.697 331.237 221.697C332.112 221.697 332.862 221.381 333.487 220.748C334.108 220.111 334.419 219.348 334.419 218.457C334.419 217.562 334.108 216.797 333.487 216.16C332.862 215.527 332.112 215.211 331.237 215.211ZM331.237 220.742C330.62 220.742 330.093 220.518 329.655 220.068C329.218 219.623 328.999 219.086 328.999 218.457C328.999 217.828 329.218 217.289 329.655 216.84C330.093 216.391 330.62 216.166 331.237 216.166C331.851 216.166 332.376 216.391 332.814 216.84C333.247 217.289 333.464 217.828 333.464 218.457C333.464 219.086 333.247 219.623 332.814 220.068C332.376 220.518 331.851 220.742 331.237 220.742ZM338.064 215.211C337.302 215.211 336.642 215.494 336.083 216.061V215.275H335.146V221.633H336.083V218.387C336.083 217.77 336.277 217.242 336.663 216.805C337.05 216.367 337.517 216.148 338.064 216.148C338.607 216.148 339.072 216.367 339.458 216.805C339.845 217.246 340.038 217.775 340.038 218.393V221.633H340.976V218.393C340.976 217.514 340.693 216.764 340.126 216.143C339.556 215.521 338.868 215.211 338.064 215.211ZM343.478 213.078H342.541V215.275H341.621V216.213H342.541V221.633H343.478V216.213H344.398V215.275H343.478V213.078ZM348.013 215.199C347.252 215.199 346.592 215.482 346.033 216.049V213.084H345.095V221.633H346.033V218.375C346.033 217.758 346.226 217.23 346.613 216.793C347 216.355 347.467 216.137 348.013 216.137C348.556 216.137 349.021 216.355 349.408 216.793C349.795 217.234 349.988 217.764 349.988 218.381V221.633H350.926V218.381C350.926 217.502 350.642 216.752 350.076 216.131C349.506 215.51 348.818 215.199 348.013 215.199ZM353.639 216.166C353.92 216.166 354.162 216.256 354.365 216.436C354.564 216.611 354.664 216.824 354.664 217.074H355.619C355.619 216.562 355.426 216.123 355.039 215.756C354.652 215.393 354.186 215.211 353.639 215.211C353.092 215.211 352.625 215.393 352.238 215.756C351.852 216.123 351.658 216.562 351.658 217.074C351.658 217.652 351.869 218.096 352.291 218.404C352.533 218.584 352.938 218.752 353.504 218.908C353.957 219.033 354.256 219.148 354.4 219.254C354.576 219.379 354.664 219.574 354.664 219.84C354.664 220.09 354.564 220.303 354.365 220.479C354.162 220.654 353.92 220.742 353.639 220.742C353.357 220.742 353.115 220.654 352.912 220.479C352.713 220.303 352.613 220.09 352.613 219.84H351.658C351.658 220.352 351.852 220.789 352.238 221.152C352.625 221.516 353.092 221.697 353.639 221.697C354.186 221.697 354.652 221.516 355.039 221.152C355.426 220.789 355.619 220.352 355.619 219.84C355.619 219.254 355.408 218.805 354.986 218.492C354.74 218.312 354.332 218.143 353.762 217.982C353.312 217.861 353.018 217.75 352.877 217.648C352.701 217.523 352.613 217.332 352.613 217.074C352.613 216.824 352.713 216.611 352.912 216.436C353.115 216.256 353.357 216.166 353.639 216.166Z" fill="white"/>
<path d="M36.0146 253.227L40.2598 248.639C41.2383 247.66 41.7275 246.649 41.7275 245.606C41.7275 244.558 41.3408 243.661 40.5674 242.917C39.7998 242.173 38.8711 241.801 37.7812 241.801C36.75 241.801 35.8564 242.179 35.1006 242.935C34.3506 243.685 33.9756 244.575 33.9756 245.606V246.31H35.3818V245.606C35.3818 244.956 35.6191 244.394 36.0938 243.919C36.5684 243.444 37.1309 243.207 37.7812 243.207C38.4902 243.207 39.0908 243.438 39.583 243.901C40.0752 244.364 40.3213 244.933 40.3213 245.606C40.3213 246.151 40.1162 246.67 39.7061 247.162L38.7744 248.164L33.8789 253.446V254.633H42.29V253.227H36.0146ZM44.9623 252.778H45.0062C45.2406 252.778 45.4545 252.869 45.6478 253.051C45.8353 253.244 45.9291 253.461 45.9291 253.701V253.754C45.9291 253.895 45.8851 254.047 45.7972 254.211L44.9535 256.232L44.3558 256.224L44.8656 254.668C44.7074 254.639 44.5726 254.586 44.4613 254.51C44.2796 254.393 44.1507 254.22 44.0746 253.991C44.0511 253.903 44.0394 253.821 44.0394 253.745V253.701C44.0394 253.467 44.1273 253.253 44.3031 253.06C44.5023 252.872 44.722 252.778 44.9623 252.778ZM52.1257 241.801C50.9245 241.801 49.8962 242.226 49.0407 243.075C48.1911 243.925 47.7663 244.95 47.7663 246.151V250.282C47.7663 251.483 48.1911 252.509 49.0407 253.358C49.8962 254.208 50.9245 254.633 52.1257 254.633C53.3269 254.633 54.3523 254.208 55.2019 253.358C56.0515 252.509 56.4763 251.483 56.4763 250.282V246.151C56.4763 244.95 56.0515 243.925 55.2019 243.075C54.3523 242.226 53.3269 241.801 52.1257 241.801ZM55.07 250.282C55.07 251.097 54.7829 251.791 54.2087 252.365C53.6345 252.939 52.9402 253.227 52.1257 253.227C51.3112 253.227 50.614 252.939 50.0339 252.365C49.4597 251.791 49.1726 251.097 49.1726 250.282V246.151C49.1726 245.337 49.4597 244.643 50.0339 244.068C50.614 243.494 51.3112 243.207 52.1257 243.207C52.9402 243.207 53.6345 243.494 54.2087 244.068C54.7829 244.643 55.07 245.337 55.07 246.151V250.282ZM62.418 241.801C61.2169 241.801 60.1886 242.226 59.3331 243.075C58.4835 243.925 58.0587 244.95 58.0587 246.151V250.282C58.0587 251.483 58.4835 252.509 59.3331 253.358C60.1886 254.208 61.2169 254.633 62.418 254.633C63.6192 254.633 64.6446 254.208 65.4942 253.358C66.3438 252.509 66.7686 251.483 66.7686 250.282V246.151C66.7686 244.95 66.3438 243.925 65.4942 243.075C64.6446 242.226 63.6192 241.801 62.418 241.801ZM65.3624 250.282C65.3624 251.097 65.0753 251.791 64.5011 252.365C63.9268 252.939 63.2325 253.227 62.418 253.227C61.6036 253.227 60.9063 252.939 60.3263 252.365C59.752 251.791 59.4649 251.097 59.4649 250.282V246.151C59.4649 245.337 59.752 244.643 60.3263 244.068C60.9063 243.494 61.6036 243.207 62.418 243.207C63.2325 243.207 63.9268 243.494 64.5011 244.068C65.0753 244.643 65.3624 245.337 65.3624 246.151V250.282ZM72.7104 241.801C71.5092 241.801 70.4809 242.226 69.6254 243.075C68.7758 243.925 68.351 244.95 68.351 246.151V250.282C68.351 251.483 68.7758 252.509 69.6254 253.358C70.4809 254.208 71.5092 254.633 72.7104 254.633C73.9116 254.633 74.937 254.208 75.7866 253.358C76.6362 252.509 77.061 251.483 77.061 250.282V246.151C77.061 244.95 76.6362 243.925 75.7866 243.075C74.937 242.226 73.9116 241.801 72.7104 241.801ZM75.6547 250.282C75.6547 251.097 75.3676 251.791 74.7934 252.365C74.2192 252.939 73.5248 253.227 72.7104 253.227C71.8959 253.227 71.1987 252.939 70.6186 252.365C70.0444 251.791 69.7573 251.097 69.7573 250.282V246.151C69.7573 245.337 70.0444 244.643 70.6186 244.068C71.1987 243.494 71.8959 243.207 72.7104 243.207C73.5248 243.207 74.2192 243.494 74.7934 244.068C75.3676 244.643 75.6547 245.337 75.6547 246.151V250.282ZM79.8211 252.778H79.865C80.0994 252.778 80.3133 252.869 80.5066 253.051C80.6941 253.244 80.7879 253.461 80.7879 253.701V253.754C80.7879 253.895 80.7439 254.047 80.6561 254.211L79.8123 256.232L79.2146 256.224L79.7244 254.668C79.5662 254.639 79.4314 254.586 79.3201 254.51C79.1385 254.393 79.0096 254.22 78.9334 253.991C78.91 253.903 78.8982 253.821 78.8982 253.745V253.701C78.8982 253.467 78.9861 253.253 79.1619 253.06C79.3611 252.872 79.5809 252.778 79.8211 252.778ZM86.9845 241.801C85.7834 241.801 84.755 242.226 83.8996 243.075C83.05 243.925 82.6252 244.95 82.6252 246.151V250.282C82.6252 251.483 83.05 252.509 83.8996 253.358C84.755 254.208 85.7834 254.633 86.9845 254.633C88.1857 254.633 89.2111 254.208 90.0607 253.358C90.9103 252.509 91.3351 251.483 91.3351 250.282V246.151C91.3351 244.95 90.9103 243.925 90.0607 243.075C89.2111 242.226 88.1857 241.801 86.9845 241.801ZM89.9289 250.282C89.9289 251.097 89.6418 251.791 89.0675 252.365C88.4933 252.939 87.799 253.227 86.9845 253.227C86.1701 253.227 85.4728 252.939 84.8927 252.365C84.3185 251.791 84.0314 251.097 84.0314 250.282V246.151C84.0314 245.337 84.3185 244.643 84.8927 244.068C85.4728 243.494 86.1701 243.207 86.9845 243.207C87.799 243.207 88.4933 243.494 89.0675 244.068C89.6418 244.643 89.9289 245.337 89.9289 246.151V250.282ZM97.2769 241.801C96.0757 241.801 95.0474 242.226 94.1919 243.075C93.3423 243.925 92.9175 244.95 92.9175 246.151V250.282C92.9175 251.483 93.3423 252.509 94.1919 253.358C95.0474 254.208 96.0757 254.633 97.2769 254.633C98.478 254.633 99.5034 254.208 100.353 253.358C101.203 252.509 101.627 251.483 101.627 250.282V246.151C101.627 244.95 101.203 243.925 100.353 243.075C99.5034 242.226 98.478 241.801 97.2769 241.801ZM100.221 250.282C100.221 251.097 99.9341 251.791 99.3599 252.365C98.7857 252.939 98.0913 253.227 97.2769 253.227C96.4624 253.227 95.7652 252.939 95.1851 252.365C94.6109 251.791 94.3237 251.097 94.3237 250.282V246.151C94.3237 245.337 94.6109 244.643 95.1851 244.068C95.7652 243.494 96.4624 243.207 97.2769 243.207C98.0913 243.207 98.7857 243.494 99.3599 244.068C99.9341 244.643 100.221 245.337 100.221 246.151V250.282ZM107.569 241.801C106.368 241.801 105.34 242.226 104.484 243.075C103.635 243.925 103.21 244.95 103.21 246.151V250.282C103.21 251.483 103.635 252.509 104.484 253.358C105.34 254.208 106.368 254.633 107.569 254.633C108.77 254.633 109.796 254.208 110.645 253.358C111.495 252.509 111.92 251.483 111.92 250.282V246.151C111.92 244.95 111.495 243.925 110.645 243.075C109.796 242.226 108.77 241.801 107.569 241.801ZM110.514 250.282C110.514 251.097 110.226 251.791 109.652 252.365C109.078 252.939 108.384 253.227 107.569 253.227C106.755 253.227 106.058 252.939 105.477 252.365C104.903 251.791 104.616 251.097 104.616 250.282V246.151C104.616 245.337 104.903 244.643 105.477 244.068C106.058 243.494 106.755 243.207 107.569 243.207C108.384 243.207 109.078 243.494 109.652 244.068C110.226 244.643 110.514 245.337 110.514 246.151V250.282ZM121.052 246.951C121.502 246.951 121.886 247.092 122.207 247.373C122.523 247.658 122.681 248.004 122.681 248.41H123.636C123.636 247.742 123.384 247.172 122.88 246.699C122.373 246.227 121.763 245.99 121.052 245.99C120.334 245.99 119.722 246.227 119.218 246.699C118.711 247.172 118.457 247.742 118.457 248.41C118.457 249.16 118.736 249.736 119.295 250.139C119.615 250.373 120.154 250.594 120.912 250.801C121.568 250.98 122.005 251.148 122.224 251.305C122.529 251.523 122.681 251.854 122.681 252.295C122.681 252.705 122.523 253.053 122.207 253.338C121.886 253.619 121.502 253.76 121.052 253.76C120.595 253.76 120.209 253.619 119.892 253.338C119.572 253.053 119.412 252.705 119.412 252.295H118.457C118.457 252.967 118.711 253.539 119.218 254.012C119.722 254.484 120.334 254.721 121.052 254.721C121.763 254.721 122.373 254.484 122.88 254.012C123.384 253.539 123.636 252.967 123.636 252.295C123.636 251.537 123.357 250.955 122.798 250.549C122.47 250.311 121.925 250.088 121.164 249.881C120.519 249.705 120.088 249.539 119.869 249.383C119.564 249.168 119.412 248.844 119.412 248.41C119.412 248.004 119.572 247.658 119.892 247.373C120.209 247.092 120.595 246.951 121.052 246.951ZM129.765 254.633H130.814L127.674 246.078H126.877L123.736 254.633H124.75L125.816 251.598H128.699L129.765 254.633ZM127.258 247.514L128.383 250.654H126.144L127.258 247.514ZM132.051 249.887V247.016H133.861C134.275 247.016 134.596 247.164 134.822 247.461C135.014 247.707 135.115 248.014 135.127 248.381C135.147 248.857 135.049 249.207 134.834 249.43C134.541 249.734 133.9 249.887 132.912 249.887H132.051ZM132.637 250.783L135.338 254.633H136.481L133.785 250.789C134.555 250.707 135.129 250.471 135.508 250.08C135.906 249.666 136.092 249.086 136.065 248.34C136.041 247.738 135.852 247.225 135.496 246.799C135.086 246.318 134.541 246.078 133.861 246.078H131.113V254.633H132.051V250.783H132.637Z" fill="#140A2B"/>
<path d="M41.0762 219.676H45.9102C45.6562 220.809 45.0801 221.746 44.1816 222.488C43.2767 223.237 42.2415 223.611 41.0762 223.611C39.7025 223.611 38.5306 223.113 37.5605 222.117C36.584 221.121 36.0957 219.92 36.0957 218.514C36.0957 217.114 36.584 215.916 37.5605 214.92C38.5306 213.924 39.7025 213.426 41.0762 213.426C42.0137 213.426 42.8763 213.673 43.6641 214.168C44.4583 214.663 45.0671 215.337 45.4902 216.189L47.5605 215.154C46.929 213.911 46.0339 212.928 44.875 212.205C43.7096 211.482 42.4434 211.121 41.0762 211.121C39.0645 211.121 37.349 211.844 35.9297 213.289C34.5039 214.734 33.791 216.476 33.791 218.514C33.791 220.551 34.5039 222.296 35.9297 223.748C37.349 225.193 39.0645 225.916 41.0762 225.916C43.0814 225.916 44.7936 225.193 46.2129 223.748C47.6387 222.296 48.3516 220.551 48.3516 218.514V217.361H41.0762V219.676ZM52.4434 214.871H50.2266V225.633H52.4434V220.242C52.4434 219.376 52.7103 218.634 53.2441 218.016C53.7845 217.397 54.4323 217.088 55.1875 217.088H56.3008V214.871H55.1875C54.1849 214.871 53.2702 215.171 52.4434 215.77V214.871ZM62.5312 214.764C61.0404 214.764 59.7676 215.301 58.7129 216.375C57.6582 217.443 57.1309 218.735 57.1309 220.252C57.1309 221.769 57.6582 223.061 58.7129 224.129C59.7676 225.203 61.0404 225.74 62.5312 225.74C64.0156 225.74 65.2884 225.203 66.3496 224.129C67.4043 223.061 67.9316 221.769 67.9316 220.252C67.9316 218.735 67.4043 217.443 66.3496 216.375C65.2884 215.301 64.0156 214.764 62.5312 214.764ZM62.5312 223.475C61.6654 223.475 60.9232 223.162 60.3047 222.537C59.6992 221.906 59.3965 221.144 59.3965 220.252C59.3965 219.36 59.6992 218.598 60.3047 217.967C60.9232 217.342 61.6654 217.029 62.5312 217.029C63.3906 217.029 64.1296 217.342 64.748 217.967C65.36 218.598 65.666 219.36 65.666 220.252C65.666 221.144 65.36 221.906 64.748 222.537C64.1296 223.162 63.3906 223.475 62.5312 223.475ZM79.0547 225.633L82.5117 214.871H80.1973L78.2832 220.799L76.3691 214.871H74.6895L72.7754 220.799L70.8418 214.871H68.5176L72.0039 225.633H73.5469L75.5293 219.48L77.5117 225.633H79.0547ZM97.3359 213.426C99.1003 213.426 100.477 214.171 101.467 215.662L103.381 214.393C102.704 213.37 101.831 212.566 100.764 211.98C99.7025 211.408 98.5599 211.121 97.3359 211.121C95.3372 211.121 93.625 211.844 92.1992 213.289C90.7799 214.734 90.0703 216.476 90.0703 218.514C90.0703 220.551 90.7799 222.296 92.1992 223.748C93.625 225.193 95.3372 225.916 97.3359 225.916C98.5534 225.916 99.696 225.626 100.764 225.047C101.831 224.467 102.704 223.667 103.381 222.645L101.467 221.365C100.477 222.863 99.1003 223.611 97.3359 223.611C95.9688 223.611 94.8034 223.113 93.8398 222.117C92.8633 221.121 92.375 219.92 92.375 218.514C92.375 217.114 92.8633 215.916 93.8398 214.92C94.8034 213.924 95.9688 213.426 97.3359 213.426ZM115.637 214.871H113.371V215.789C112.434 215.105 111.389 214.764 110.236 214.764C108.745 214.764 107.473 215.301 106.418 216.375C105.363 217.443 104.836 218.735 104.836 220.252C104.836 221.769 105.363 223.061 106.418 224.129C107.473 225.203 108.745 225.74 110.236 225.74C111.389 225.74 112.434 225.395 113.371 224.705V225.633H115.637V214.871ZM110.236 223.475C109.37 223.475 108.628 223.162 108.01 222.537C107.404 221.906 107.102 221.144 107.102 220.252C107.102 219.36 107.404 218.598 108.01 217.967C108.628 217.342 109.37 217.029 110.236 217.029C111.096 217.029 111.835 217.342 112.453 217.967C113.065 218.598 113.371 219.36 113.371 220.252C113.371 221.144 113.065 221.906 112.453 222.537C111.835 223.162 111.096 223.475 110.236 223.475ZM123.088 214.725C121.929 214.725 120.881 215.066 119.943 215.75V214.871H117.688V229.246H119.943V224.666C120.881 225.356 121.929 225.701 123.088 225.701C124.572 225.701 125.845 225.164 126.906 224.09C127.961 223.022 128.488 221.73 128.488 220.213C128.488 218.702 127.961 217.413 126.906 216.346C125.845 215.265 124.572 214.725 123.088 214.725ZM123.088 223.445C122.215 223.445 121.473 223.13 120.861 222.498C120.249 221.867 119.943 221.105 119.943 220.213C119.943 219.327 120.249 218.569 120.861 217.938C121.473 217.306 122.215 216.99 123.088 216.99C123.947 216.99 124.683 217.306 125.295 217.938C125.913 218.569 126.223 219.327 126.223 220.213C126.223 221.105 125.913 221.867 125.295 222.498C124.683 223.13 123.947 223.445 123.088 223.445ZM130.412 225.633H132.629V214.871H130.412V225.633ZM131.525 211.277C131.87 211.277 132.16 211.398 132.395 211.639C132.629 211.873 132.746 212.16 132.746 212.498C132.746 212.837 132.629 213.126 132.395 213.367C132.16 213.602 131.87 213.719 131.525 213.719C131.187 213.719 130.897 213.602 130.656 213.367C130.422 213.126 130.305 212.837 130.305 212.498C130.305 212.16 130.422 211.873 130.656 211.639C130.897 211.398 131.187 211.277 131.525 211.277ZM137.873 211.375H135.656V214.871H134.211V217.088H135.656V225.633H137.873V217.088H139.328V214.871H137.873V211.375ZM151.145 214.871H148.879V215.789C147.941 215.105 146.896 214.764 145.744 214.764C144.253 214.764 142.98 215.301 141.926 216.375C140.871 217.443 140.344 218.735 140.344 220.252C140.344 221.769 140.871 223.061 141.926 224.129C142.98 225.203 144.253 225.74 145.744 225.74C146.896 225.74 147.941 225.395 148.879 224.705V225.633H151.145V214.871ZM145.744 223.475C144.878 223.475 144.136 223.162 143.518 222.537C142.912 221.906 142.609 221.144 142.609 220.252C142.609 219.36 142.912 218.598 143.518 217.967C144.136 217.342 144.878 217.029 145.744 217.029C146.604 217.029 147.342 217.342 147.961 217.967C148.573 218.598 148.879 219.36 148.879 220.252C148.879 221.144 148.573 221.906 147.961 222.537C147.342 223.162 146.604 223.475 145.744 223.475ZM153.488 225.633H155.695V211.375H153.488V225.633Z" fill="#140A2B"/>
<rect x="33" y="384.133" width="335" height="1" fill="#EEF0F2"/>
<rect x="33" y="281.133" width="335" height="1" fill="#EEF0F2"/>
<path opacity="0.4" d="M57 353.633C57 352.252 58.1193 351.133 59.5 351.133H365.5C366.881 351.133 368 352.252 368 353.633C368 355.014 366.881 356.133 365.5 356.133H59.5C58.1193 356.133 57 355.014 57 353.633Z" fill="#C4C1CA"/>
<path d="M33 353.633C33 350.595 35.4624 348.133 38.5 348.133H109.5C112.538 348.133 115 350.595 115 353.633C115 356.67 112.538 359.133 109.5 359.133H38.5C35.4624 359.133 33 356.67 33 353.633Z" fill="url(#paint0_linear_4572_3348)"/>
<rect x="106.5" y="343.633" width="19" height="19" rx="9.5" fill="white" stroke="#5B2CD3"/>
<path d="M34.0156 321.133H35.2656V309.727H34.0156V321.133ZM38.5472 310.477C38.0211 310.977 37.7529 311.703 37.7425 312.656H36.8206V313.906H37.7347V321.133H38.9847V313.906H40.5238V312.656H38.9925C38.9977 312.062 39.1357 311.638 39.4066 311.383C39.693 311.112 40.1748 310.977 40.8519 310.977H41.0159V309.727H40.8519C39.8415 309.727 39.0732 309.977 38.5472 310.477ZM47.54 312.656H46.2666V316.836C46.2666 317.977 46.6806 318.969 47.5087 319.812C48.29 320.656 49.2431 321.078 50.3681 321.078C51.415 321.078 52.3525 320.667 53.1806 319.844C53.1546 320.661 52.8551 321.359 52.2822 321.938C51.7561 322.51 51.1181 322.797 50.3681 322.797C49.889 322.797 49.4046 322.664 48.915 322.398C48.4827 322.138 48.1259 321.786 47.8447 321.344L46.7666 322.023C47.1624 322.648 47.6989 323.146 48.3759 323.516C49.0114 323.891 49.6754 324.078 50.3681 324.078C51.3681 324.078 52.2405 323.727 52.9853 323.023C53.777 322.326 54.2509 321.453 54.4072 320.406L54.4541 319.938V312.656H53.1806V316.836C53.1806 317.622 52.889 318.315 52.3056 318.914C51.7796 319.508 51.1337 319.805 50.3681 319.805C49.6337 319.799 48.9827 319.503 48.415 318.914C47.8317 318.315 47.54 317.622 47.54 316.836V312.656ZM59.6887 312.57C58.5117 312.57 57.5065 312.992 56.6731 313.836C55.845 314.685 55.4309 315.706 55.4309 316.898C55.4309 318.086 55.845 319.104 56.6731 319.953C57.5065 320.797 58.5117 321.219 59.6887 321.219C60.8554 321.219 61.8554 320.797 62.6887 319.953C63.5169 319.104 63.9309 318.086 63.9309 316.898C63.9309 315.706 63.5169 314.685 62.6887 313.836C61.8554 312.992 60.8554 312.57 59.6887 312.57ZM59.6887 319.945C58.8658 319.945 58.1627 319.646 57.5794 319.047C56.996 318.453 56.7044 317.737 56.7044 316.898C56.7044 316.06 56.996 315.341 57.5794 314.742C58.1627 314.143 58.8658 313.844 59.6887 313.844C60.5065 313.844 61.207 314.143 61.7903 314.742C62.3684 315.341 62.6575 316.06 62.6575 316.898C62.6575 317.737 62.3684 318.453 61.7903 319.047C61.207 319.646 60.5065 319.945 59.6887 319.945ZM72.3219 312.656H71.0719V316.977C71.0719 317.799 70.8297 318.503 70.3453 319.086C69.8661 319.669 69.288 319.961 68.6109 319.961C67.9339 319.961 67.3531 319.669 66.8687 319.086C66.3896 318.503 66.15 317.797 66.15 316.969V312.633H64.9V316.969C64.9 318.141 65.262 319.141 65.9859 319.969C66.7151 320.797 67.5901 321.211 68.6109 321.211C69.5484 321.211 70.3687 320.854 71.0719 320.141V321.133H72.3219V312.656ZM86.8459 312.656H85.5725V313.836C84.7444 313.003 83.7548 312.586 82.6037 312.586C81.4267 312.586 80.4215 313.01 79.5881 313.859C78.76 314.703 78.3459 315.695 78.3459 316.836C78.3459 317.977 78.76 318.969 79.5881 319.812C80.4215 320.656 81.4267 321.078 82.6037 321.078C83.7548 321.078 84.7444 320.667 85.5725 319.844C85.5465 320.661 85.247 321.359 84.6741 321.938C84.0959 322.51 83.4058 322.797 82.6037 322.797C82.0725 322.797 81.5621 322.664 81.0725 322.398C80.5881 322.138 80.2053 321.786 79.9241 321.344L78.8459 322.023C79.2418 322.648 79.7782 323.146 80.4553 323.516C81.1428 323.891 81.859 324.078 82.6037 324.078C83.6558 324.078 84.5803 323.727 85.3772 323.023C86.1689 322.326 86.6428 321.453 86.7991 320.406L86.8459 319.938V312.656ZM82.6037 319.805C81.7808 319.805 81.0777 319.508 80.4944 318.914C79.911 318.315 79.6194 317.622 79.6194 316.836C79.6194 316.049 79.911 315.357 80.4944 314.758C81.0777 314.164 81.7808 313.867 82.6037 313.867C83.4215 313.867 84.1194 314.164 84.6975 314.758C85.2808 315.352 85.5725 316.042 85.5725 316.828V316.836C85.5725 317.622 85.2808 318.315 84.6975 318.914C84.1194 319.508 83.4215 319.805 82.6037 319.805ZM92.2369 312.57C91.0598 312.57 90.0546 312.992 89.2212 313.836C88.3931 314.685 87.9791 315.706 87.9791 316.898C87.9791 318.086 88.3931 319.104 89.2212 319.953C90.0546 320.797 91.0598 321.219 92.2369 321.219C93.0337 321.219 93.7681 321.01 94.44 320.594C95.1171 320.177 95.6405 319.607 96.0103 318.883L94.8697 318.305C94.6093 318.81 94.2447 319.211 93.7759 319.508C93.302 319.799 92.789 319.945 92.2369 319.945C91.5233 319.945 90.8931 319.716 90.3462 319.258C89.8046 318.805 89.4608 318.232 89.315 317.539H96.4791V316.898C96.4791 315.706 96.065 314.685 95.2369 313.836C94.4035 312.992 93.4035 312.57 92.2369 312.57ZM89.315 316.258C89.4608 315.565 89.8046 314.992 90.3462 314.539C90.8931 314.076 91.5233 313.844 92.2369 313.844C92.94 313.844 93.565 314.076 94.1119 314.539C94.6535 314.992 94.9973 315.565 95.1431 316.258H89.315ZM99.5341 309.727H98.2841V312.656H97.0575V313.906H98.2841V321.133H99.5341V313.906H100.761V312.656H99.5341V309.727ZM108.316 310.477C107.79 310.977 107.522 311.703 107.511 312.656H106.589V313.906H107.503V321.133H108.753V313.906H110.293V312.656H108.761C108.766 312.062 108.904 311.638 109.175 311.383C109.462 311.112 109.944 310.977 110.621 310.977H110.785V309.727H110.621C109.61 309.727 108.842 309.977 108.316 310.477ZM118.832 312.656H117.582V316.977C117.582 317.799 117.34 318.503 116.855 319.086C116.376 319.669 115.798 319.961 115.121 319.961C114.444 319.961 113.863 319.669 113.379 319.086C112.9 318.503 112.66 317.797 112.66 316.969V312.633H111.41V316.969C111.41 318.141 111.772 319.141 112.496 319.969C113.225 320.797 114.1 321.211 115.121 321.211C116.058 321.211 116.879 320.854 117.582 320.141V321.133H118.832V312.656ZM124.121 312.57C123.106 312.57 122.225 312.948 121.481 313.703V312.656H120.231V321.133H121.481V316.805C121.481 315.982 121.738 315.279 122.254 314.695C122.77 314.112 123.392 313.82 124.121 313.82C124.845 313.82 125.465 314.112 125.981 314.695C126.496 315.284 126.754 315.99 126.754 316.812V321.133H128.004V316.812C128.004 315.641 127.626 314.641 126.871 313.812C126.111 312.984 125.194 312.57 124.121 312.57ZM133.231 312.57C132.059 312.57 131.056 312.992 130.223 313.836C129.395 314.68 128.981 315.701 128.981 316.898C128.981 318.086 129.395 319.102 130.223 319.945C131.056 320.794 132.059 321.219 133.231 321.219C134.387 321.219 135.379 320.805 136.207 319.977V321.133H137.481V309.727H136.207V313.812C135.379 312.984 134.387 312.57 133.231 312.57ZM133.231 319.938C132.413 319.938 131.71 319.641 131.122 319.047C130.543 318.453 130.254 317.737 130.254 316.898C130.254 316.06 130.543 315.339 131.122 314.734C131.71 314.141 132.413 313.844 133.231 313.844C134.054 313.844 134.754 314.141 135.332 314.734C135.916 315.339 136.207 316.06 136.207 316.898C136.207 317.737 135.916 318.453 135.332 319.047C134.754 319.641 134.054 319.938 133.231 319.938ZM142.872 312.57C141.695 312.57 140.69 312.992 139.856 313.836C139.028 314.685 138.614 315.706 138.614 316.898C138.614 318.086 139.028 319.104 139.856 319.953C140.69 320.797 141.695 321.219 142.872 321.219C143.669 321.219 144.403 321.01 145.075 320.594C145.752 320.177 146.276 319.607 146.645 318.883L145.505 318.305C145.244 318.81 144.88 319.211 144.411 319.508C143.937 319.799 143.424 319.945 142.872 319.945C142.158 319.945 141.528 319.716 140.981 319.258C140.44 318.805 140.096 318.232 139.95 317.539H147.114V316.898C147.114 315.706 146.7 314.685 145.872 313.836C145.039 312.992 144.039 312.57 142.872 312.57ZM139.95 316.258C140.096 315.565 140.44 314.992 140.981 314.539C141.528 314.076 142.158 313.844 142.872 313.844C143.575 313.844 144.2 314.076 144.747 314.539C145.289 314.992 145.632 315.565 145.778 316.258H139.95ZM152.06 312.57C150.888 312.57 149.885 312.992 149.052 313.836C148.224 314.68 147.81 315.701 147.81 316.898C147.81 318.086 148.224 319.102 149.052 319.945C149.885 320.794 150.888 321.219 152.06 321.219C153.216 321.219 154.208 320.805 155.036 319.977V321.133H156.31V309.727H155.036V313.812C154.208 312.984 153.216 312.57 152.06 312.57ZM152.06 319.938C151.242 319.938 150.539 319.641 149.95 319.047C149.372 318.453 149.083 317.737 149.083 316.898C149.083 316.06 149.372 315.339 149.95 314.734C150.539 314.141 151.242 313.844 152.06 313.844C152.883 313.844 153.583 314.141 154.161 314.734C154.745 315.339 155.036 316.06 155.036 316.898C155.036 317.737 154.745 318.453 154.161 319.047C153.583 319.641 152.883 319.938 152.06 319.938Z" fill="#140A2B"/>
<path d="M272.731 313.484C272.225 313.484 271.741 313.578 271.277 313.766L271.676 310.977H275.215V309.727H270.59L269.848 314.961L270.902 315.492C271.408 314.987 272.017 314.734 272.731 314.734C273.439 314.734 274.046 314.987 274.551 315.492C275.051 315.992 275.301 316.599 275.301 317.312C275.301 318.021 275.051 318.628 274.551 319.133C274.046 319.633 273.439 319.883 272.731 319.883C272.257 319.883 271.817 319.763 271.41 319.523C271.004 319.284 270.689 318.956 270.465 318.539L269.363 319.133C269.697 319.753 270.166 320.242 270.77 320.602C271.374 320.956 272.027 321.133 272.731 321.133C273.783 321.133 274.684 320.76 275.434 320.016C276.179 319.266 276.551 318.365 276.551 317.312C276.551 316.255 276.179 315.354 275.434 314.609C274.684 313.859 273.783 313.484 272.731 313.484ZM278.567 319.484H278.606C278.814 319.484 279.004 319.565 279.176 319.727C279.343 319.898 279.426 320.091 279.426 320.305V320.352C279.426 320.477 279.387 320.612 279.309 320.758L278.559 322.555L278.028 322.547L278.481 321.164C278.34 321.138 278.221 321.091 278.122 321.023C277.96 320.919 277.846 320.766 277.778 320.562C277.757 320.484 277.747 320.411 277.747 320.344V320.305C277.747 320.096 277.825 319.906 277.981 319.734C278.158 319.568 278.353 319.484 278.567 319.484ZM284.934 309.727C283.867 309.727 282.953 310.104 282.192 310.859C281.437 311.615 281.059 312.526 281.059 313.594V317.266C281.059 318.333 281.437 319.245 282.192 320C282.953 320.755 283.867 321.133 284.934 321.133C286.002 321.133 286.914 320.755 287.669 320C288.424 319.245 288.802 318.333 288.802 317.266V313.594C288.802 312.526 288.424 311.615 287.669 310.859C286.914 310.104 286.002 309.727 284.934 309.727ZM287.552 317.266C287.552 317.99 287.296 318.607 286.786 319.117C286.276 319.628 285.658 319.883 284.934 319.883C284.21 319.883 283.591 319.628 283.075 319.117C282.565 318.607 282.309 317.99 282.309 317.266V313.594C282.309 312.87 282.565 312.253 283.075 311.742C283.591 311.232 284.21 310.977 284.934 310.977C285.658 310.977 286.276 311.232 286.786 311.742C287.296 312.253 287.552 312.87 287.552 313.594V317.266ZM294.083 309.727C293.015 309.727 292.101 310.104 291.341 310.859C290.586 311.615 290.208 312.526 290.208 313.594V317.266C290.208 318.333 290.586 319.245 291.341 320C292.101 320.755 293.015 321.133 294.083 321.133C295.151 321.133 296.062 320.755 296.817 320C297.573 319.245 297.95 318.333 297.95 317.266V313.594C297.95 312.526 297.573 311.615 296.817 310.859C296.062 310.104 295.151 309.727 294.083 309.727ZM296.7 317.266C296.7 317.99 296.445 318.607 295.935 319.117C295.424 319.628 294.807 319.883 294.083 319.883C293.359 319.883 292.739 319.628 292.224 319.117C291.713 318.607 291.458 317.99 291.458 317.266V313.594C291.458 312.87 291.713 312.253 292.224 311.742C292.739 311.232 293.359 310.977 294.083 310.977C294.807 310.977 295.424 311.232 295.935 311.742C296.445 312.253 296.7 312.87 296.7 313.594V317.266ZM303.232 309.727C302.164 309.727 301.25 310.104 300.49 310.859C299.734 311.615 299.357 312.526 299.357 313.594V317.266C299.357 318.333 299.734 319.245 300.49 320C301.25 320.755 302.164 321.133 303.232 321.133C304.3 321.133 305.211 320.755 305.966 320C306.721 319.245 307.099 318.333 307.099 317.266V313.594C307.099 312.526 306.721 311.615 305.966 310.859C305.211 310.104 304.3 309.727 303.232 309.727ZM305.849 317.266C305.849 317.99 305.594 318.607 305.083 319.117C304.573 319.628 303.956 319.883 303.232 319.883C302.508 319.883 301.888 319.628 301.372 319.117C300.862 318.607 300.607 317.99 300.607 317.266V313.594C300.607 312.87 300.862 312.253 301.372 311.742C301.888 311.232 302.508 310.977 303.232 310.977C303.956 310.977 304.573 311.232 305.083 311.742C305.594 312.253 305.849 312.87 305.849 313.594V317.266ZM309.552 319.484H309.592C309.8 319.484 309.99 319.565 310.162 319.727C310.329 319.898 310.412 320.091 310.412 320.305V320.352C310.412 320.477 310.373 320.612 310.295 320.758L309.545 322.555L309.013 322.547L309.467 321.164C309.326 321.138 309.206 321.091 309.107 321.023C308.946 320.919 308.831 320.766 308.763 320.562C308.743 320.484 308.732 320.411 308.732 320.344V320.305C308.732 320.096 308.81 319.906 308.967 319.734C309.144 319.568 309.339 319.484 309.552 319.484ZM315.92 309.727C314.852 309.727 313.938 310.104 313.178 310.859C312.423 311.615 312.045 312.526 312.045 313.594V317.266C312.045 318.333 312.423 319.245 313.178 320C313.938 320.755 314.852 321.133 315.92 321.133C316.988 321.133 317.899 320.755 318.654 320C319.41 319.245 319.787 318.333 319.787 317.266V313.594C319.787 312.526 319.41 311.615 318.654 310.859C317.899 310.104 316.988 309.727 315.92 309.727ZM318.537 317.266C318.537 317.99 318.282 318.607 317.772 319.117C317.261 319.628 316.644 319.883 315.92 319.883C315.196 319.883 314.576 319.628 314.061 319.117C313.55 318.607 313.295 317.99 313.295 317.266V313.594C313.295 312.87 313.55 312.253 314.061 311.742C314.576 311.232 315.196 310.977 315.92 310.977C316.644 310.977 317.261 311.232 317.772 311.742C318.282 312.253 318.537 312.87 318.537 313.594V317.266ZM325.069 309.727C324.001 309.727 323.087 310.104 322.327 310.859C321.571 311.615 321.194 312.526 321.194 313.594V317.266C321.194 318.333 321.571 319.245 322.327 320C323.087 320.755 324.001 321.133 325.069 321.133C326.136 321.133 327.048 320.755 327.803 320C328.558 319.245 328.936 318.333 328.936 317.266V313.594C328.936 312.526 328.558 311.615 327.803 310.859C327.048 310.104 326.136 309.727 325.069 309.727ZM327.686 317.266C327.686 317.99 327.431 318.607 326.92 319.117C326.41 319.628 325.793 319.883 325.069 319.883C324.345 319.883 323.725 319.628 323.209 319.117C322.699 318.607 322.444 317.99 322.444 317.266V313.594C322.444 312.87 322.699 312.253 323.209 311.742C323.725 311.232 324.345 310.977 325.069 310.977C325.793 310.977 326.41 311.232 326.92 311.742C327.431 312.253 327.686 312.87 327.686 313.594V317.266ZM334.217 309.727C333.15 309.727 332.236 310.104 331.475 310.859C330.72 311.615 330.342 312.526 330.342 313.594V317.266C330.342 318.333 330.72 319.245 331.475 320C332.236 320.755 333.15 321.133 334.217 321.133C335.285 321.133 336.197 320.755 336.952 320C337.707 319.245 338.085 318.333 338.085 317.266V313.594C338.085 312.526 337.707 311.615 336.952 310.859C336.197 310.104 335.285 309.727 334.217 309.727ZM336.835 317.266C336.835 317.99 336.579 318.607 336.069 319.117C335.559 319.628 334.941 319.883 334.217 319.883C333.494 319.883 332.874 319.628 332.358 319.117C331.848 318.607 331.592 317.99 331.592 317.266V313.594C331.592 312.87 331.848 312.253 332.358 311.742C332.874 311.232 333.494 310.977 334.217 310.977C334.941 310.977 335.559 311.232 336.069 311.742C336.579 312.253 336.835 312.87 336.835 313.594V317.266ZM347.538 310.891C348.137 310.891 348.65 311.078 349.077 311.453C349.499 311.833 349.71 312.294 349.71 312.836H350.984C350.984 311.945 350.648 311.185 349.976 310.555C349.299 309.924 348.486 309.609 347.538 309.609C346.58 309.609 345.765 309.924 345.093 310.555C344.416 311.185 344.077 311.945 344.077 312.836C344.077 313.836 344.45 314.604 345.195 315.141C345.622 315.453 346.341 315.747 347.351 316.023C348.226 316.263 348.809 316.487 349.101 316.695C349.507 316.987 349.71 317.427 349.71 318.016C349.71 318.562 349.499 319.026 349.077 319.406C348.65 319.781 348.137 319.969 347.538 319.969C346.929 319.969 346.413 319.781 345.992 319.406C345.564 319.026 345.351 318.562 345.351 318.016H344.077C344.077 318.911 344.416 319.674 345.093 320.305C345.765 320.935 346.58 321.25 347.538 321.25C348.486 321.25 349.299 320.935 349.976 320.305C350.648 319.674 350.984 318.911 350.984 318.016C350.984 317.005 350.611 316.229 349.867 315.688C349.429 315.37 348.702 315.073 347.687 314.797C346.827 314.562 346.252 314.341 345.96 314.133C345.554 313.846 345.351 313.414 345.351 312.836C345.351 312.294 345.564 311.833 345.992 311.453C346.413 311.078 346.929 310.891 347.538 310.891ZM359.156 321.133H360.554L356.367 309.727H355.304L351.117 321.133H352.468L353.89 317.086H357.734L359.156 321.133ZM355.812 311.641L357.312 315.828H354.328L355.812 311.641ZM362.203 314.805V310.977H364.617C365.169 310.977 365.596 311.174 365.898 311.57C366.154 311.898 366.289 312.307 366.305 312.797C366.331 313.432 366.201 313.898 365.914 314.195C365.523 314.602 364.669 314.805 363.352 314.805H362.203ZM362.984 316L366.586 321.133H368.109L364.516 316.008C365.542 315.898 366.307 315.583 366.812 315.062C367.344 314.51 367.591 313.737 367.555 312.742C367.523 311.94 367.271 311.255 366.797 310.688C366.25 310.047 365.523 309.727 364.617 309.727H360.953V321.133H362.203V316H362.984Z" fill="#8A8595"/>
<path d="M311.794 254.633H313.044V243.227H311.794V254.633ZM315.849 248.305V244.477H318.263C318.816 244.477 319.243 244.674 319.545 245.07C319.8 245.398 319.935 245.807 319.951 246.297C319.977 246.932 319.847 247.398 319.56 247.695C319.17 248.102 318.316 248.305 316.998 248.305H315.849ZM316.631 249.5L320.232 254.633H321.756L318.162 249.508C319.188 249.398 319.954 249.083 320.459 248.562C320.99 248.01 321.237 247.237 321.201 246.242C321.17 245.44 320.917 244.755 320.443 244.188C319.896 243.547 319.17 243.227 318.263 243.227H314.599V254.633H315.849V249.5H316.631ZM323.436 248.305V244.477H325.85C326.402 244.477 326.829 244.674 327.131 245.07C327.386 245.398 327.522 245.807 327.537 246.297C327.563 246.932 327.433 247.398 327.147 247.695C326.756 248.102 325.902 248.305 324.584 248.305H323.436ZM324.217 249.5L327.818 254.633H329.342L325.748 249.508C326.774 249.398 327.54 249.083 328.045 248.562C328.576 248.01 328.824 247.237 328.787 246.242C328.756 245.44 328.503 244.755 328.029 244.188C327.483 243.547 326.756 243.227 325.85 243.227H322.186V254.633H323.436V249.5H324.217ZM334.975 247.328L335.819 245.867V254.633H337.069V243.227H335.897L333.889 246.703L334.975 247.328ZM341.569 246.984C341.064 246.984 340.58 247.078 340.116 247.266L340.515 244.477H344.054V243.227H339.429L338.687 248.461L339.741 248.992C340.246 248.487 340.856 248.234 341.569 248.234C342.278 248.234 342.884 248.487 343.39 248.992C343.89 249.492 344.14 250.099 344.14 250.812C344.14 251.521 343.89 252.128 343.39 252.633C342.884 253.133 342.278 253.383 341.569 253.383C341.095 253.383 340.655 253.263 340.249 253.023C339.843 252.784 339.528 252.456 339.304 252.039L338.202 252.633C338.536 253.253 339.004 253.742 339.608 254.102C340.213 254.456 340.866 254.633 341.569 254.633C342.621 254.633 343.523 254.26 344.273 253.516C345.017 252.766 345.39 251.865 345.39 250.812C345.39 249.755 345.017 248.854 344.273 248.109C343.523 247.359 342.621 246.984 341.569 246.984ZM347.704 254.724C347.424 254.724 347.183 254.623 346.982 254.423C346.782 254.222 346.681 253.981 346.681 253.701C346.681 253.421 346.782 253.18 346.982 252.979C347.183 252.779 347.424 252.678 347.704 252.678C347.984 252.678 348.225 252.779 348.426 252.979C348.626 253.18 348.727 253.421 348.727 253.701C348.727 253.887 348.679 254.057 348.585 254.212C348.494 254.368 348.371 254.493 348.215 254.587C348.064 254.678 347.893 254.724 347.704 254.724ZM354.32 243.227C353.252 243.227 352.338 243.604 351.578 244.359C350.823 245.115 350.445 246.026 350.445 247.094V250.766C350.445 251.833 350.823 252.745 351.578 253.5C352.338 254.255 353.252 254.633 354.32 254.633C355.388 254.633 356.299 254.255 357.054 253.5C357.81 252.745 358.187 251.833 358.187 250.766V247.094C358.187 246.026 357.81 245.115 357.054 244.359C356.299 243.604 355.388 243.227 354.32 243.227ZM356.937 250.766C356.937 251.49 356.682 252.107 356.172 252.617C355.661 253.128 355.044 253.383 354.32 253.383C353.596 253.383 352.976 253.128 352.461 252.617C351.95 252.107 351.695 251.49 351.695 250.766V247.094C351.695 246.37 351.95 245.753 352.461 245.242C352.976 244.732 353.596 244.477 354.32 244.477C355.044 244.477 355.661 244.732 356.172 245.242C356.682 245.753 356.937 246.37 356.937 247.094V250.766ZM360.047 254.078L361.164 254.633L366.68 243.328L365.562 242.773L360.047 254.078ZM361.734 247.289C362.328 247.289 362.833 247.078 363.25 246.656C363.672 246.24 363.883 245.734 363.883 245.141C363.883 244.552 363.672 244.047 363.25 243.625C362.833 243.208 362.328 243 361.734 243C361.146 243 360.641 243.208 360.219 243.625C359.802 244.047 359.594 244.552 359.594 245.141C359.594 245.734 359.802 246.24 360.219 246.656C360.641 247.078 361.146 247.289 361.734 247.289ZM361.734 244.25C361.984 244.25 362.195 244.336 362.367 244.508C362.544 244.685 362.633 244.896 362.633 245.141C362.633 245.385 362.544 245.596 362.367 245.773C362.195 245.951 361.984 246.039 361.734 246.039C361.49 246.039 361.281 245.951 361.109 245.773C360.932 245.596 360.844 245.385 360.844 245.141C360.844 244.896 360.932 244.685 361.109 244.508C361.281 244.336 361.49 244.25 361.734 244.25ZM364.992 250.117C364.398 250.117 363.893 250.328 363.477 250.75C363.055 251.167 362.844 251.672 362.844 252.266C362.844 252.854 363.055 253.359 363.477 253.781C363.893 254.198 364.398 254.406 364.992 254.406C365.581 254.406 366.086 254.198 366.508 253.781C366.924 253.359 367.133 252.854 367.133 252.266C367.133 251.672 366.924 251.167 366.508 250.75C366.086 250.328 365.581 250.117 364.992 250.117ZM364.992 253.156C364.742 253.156 364.531 253.07 364.359 252.898C364.182 252.721 364.094 252.51 364.094 252.266C364.094 252.021 364.182 251.81 364.359 251.633C364.531 251.456 364.742 251.367 364.992 251.367C365.237 251.367 365.448 251.456 365.625 251.633C365.797 251.81 365.883 252.021 365.883 252.266C365.883 252.51 365.797 252.721 365.625 252.898C365.448 253.07 365.237 253.156 364.992 253.156Z" fill="#8A8595"/>
<path d="M41.5547 412.875L38.4297 419.301L35.3145 412.875H32.8535L37.3262 422.104V427.133H39.543V422.104L44.0156 412.875H41.5547ZM48.4594 416.264C46.9685 416.264 45.6957 416.801 44.641 417.875C43.5863 418.943 43.059 420.235 43.059 421.752C43.059 423.269 43.5863 424.561 44.641 425.629C45.6957 426.703 46.9685 427.24 48.4594 427.24C49.9438 427.24 51.2165 426.703 52.2777 425.629C53.3324 424.561 53.8598 423.269 53.8598 421.752C53.8598 420.235 53.3324 418.943 52.2777 417.875C51.2165 416.801 49.9438 416.264 48.4594 416.264ZM48.4594 424.975C47.5935 424.975 46.8513 424.662 46.2328 424.037C45.6273 423.406 45.3246 422.644 45.3246 421.752C45.3246 420.86 45.6273 420.098 46.2328 419.467C46.8513 418.842 47.5935 418.529 48.4594 418.529C49.3188 418.529 50.0577 418.842 50.6762 419.467C51.2882 420.098 51.5941 420.86 51.5941 421.752C51.5941 422.644 51.2882 423.406 50.6762 424.037C50.0577 424.662 49.3188 424.975 48.4594 424.975ZM64.7684 416.371H62.5516V421.859C62.5516 422.732 62.3042 423.474 61.8094 424.086C61.3146 424.704 60.7156 425.014 60.0125 425.014C59.3159 425.014 58.7202 424.704 58.2254 424.086C57.7241 423.467 57.4734 422.722 57.4734 421.85V416.371H55.2664V421.85C55.2664 423.334 55.7286 424.604 56.6531 425.658C57.5841 426.706 58.7039 427.23 60.0125 427.23C60.9305 427.23 61.7768 426.954 62.5516 426.4V427.133H64.7684V416.371ZM82.318 427.133L85.775 416.371H83.4605L81.5465 422.299L79.6324 416.371H77.9527L76.0387 422.299L74.1051 416.371H71.7809L75.2672 427.133H76.8102L78.7926 420.98L80.775 427.133H82.318ZM86.4199 427.133H88.6367V416.371H86.4199V427.133ZM87.5332 412.777C87.8783 412.777 88.168 412.898 88.4023 413.139C88.6367 413.373 88.7539 413.66 88.7539 413.998C88.7539 414.337 88.6367 414.626 88.4023 414.867C88.168 415.102 87.8783 415.219 87.5332 415.219C87.1947 415.219 86.9049 415.102 86.6641 414.867C86.4297 414.626 86.3125 414.337 86.3125 413.998C86.3125 413.66 86.4297 413.373 86.6641 413.139C86.9049 412.898 87.1947 412.777 87.5332 412.777ZM90.7953 427.133H93.0023V412.875H90.7953V427.133ZM95.3367 427.133H97.5438V412.875H95.3367V427.133ZM108.277 416.371H106.06V427.133H108.277V421.742C108.277 420.876 108.544 420.134 109.078 419.516C109.618 418.897 110.266 418.588 111.021 418.588H112.134V416.371H111.021C110.018 416.371 109.104 416.671 108.277 417.27V416.371ZM115.025 420.619C115.253 420.001 115.631 419.499 116.158 419.115C116.699 418.725 117.301 418.529 117.965 418.529C118.629 418.529 119.231 418.725 119.771 419.115C120.299 419.499 120.676 420.001 120.904 420.619H115.025ZM120.484 423.676C119.892 424.542 119.052 424.975 117.965 424.975C117.301 424.975 116.699 424.779 116.158 424.389C115.631 424.005 115.253 423.5 115.025 422.875H123.365V421.752C123.365 420.235 122.838 418.943 121.783 417.875C120.722 416.801 119.449 416.264 117.965 416.264C116.474 416.264 115.201 416.801 114.146 417.875C113.092 418.943 112.564 420.235 112.564 421.752C112.564 423.269 113.092 424.561 114.146 425.629C115.201 426.703 116.474 427.24 117.965 427.24C118.941 427.24 119.85 426.986 120.689 426.479C121.412 426.055 121.998 425.499 122.447 424.809L120.484 423.676ZM127.75 412.875H125.534V416.371H124.088V418.588H125.534V427.133H127.75V418.588H129.205V416.371H127.75V412.875ZM139.772 416.371H137.555V421.859C137.555 422.732 137.308 423.474 136.813 424.086C136.318 424.704 135.72 425.014 135.016 425.014C134.32 425.014 133.724 424.704 133.229 424.086C132.728 423.467 132.477 422.722 132.477 421.85V416.371H130.27V421.85C130.27 423.334 130.733 424.604 131.657 425.658C132.588 426.706 133.708 427.23 135.016 427.23C135.934 427.23 136.781 426.954 137.555 426.4V427.133H139.772V416.371ZM143.747 416.371H141.53V427.133H143.747V421.742C143.747 420.876 144.014 420.134 144.548 419.516C145.088 418.897 145.736 418.588 146.491 418.588H147.605V416.371H146.491C145.489 416.371 144.574 416.671 143.747 417.27V416.371ZM153.338 416.156C152.335 416.156 151.42 416.456 150.593 417.055V416.371H148.377V427.133H150.593V421.537C150.593 420.665 150.86 419.919 151.394 419.301C151.935 418.682 152.582 418.373 153.338 418.373C154.093 418.373 154.74 418.682 155.281 419.301C155.821 419.919 156.091 420.665 156.091 421.537V427.133H158.298V421.537C158.298 420.053 157.813 418.786 156.843 417.738C155.873 416.684 154.705 416.156 153.338 416.156Z" fill="#5B2CD3"/>
<path d="M244.157 420.961C244.424 420.681 244.721 420.401 245.046 420.121C245.528 419.75 246.075 419.564 246.687 419.564C247.422 419.564 248.051 419.825 248.571 420.346C249.099 420.873 249.363 421.505 249.363 422.24C249.363 422.976 249.099 423.604 248.571 424.125C248.051 424.652 247.422 424.916 246.687 424.916C245.626 424.916 244.841 424.447 244.333 423.51L243.806 422.543L241.853 423.598L242.38 424.574C242.81 425.362 243.412 425.984 244.187 426.439C244.955 426.902 245.788 427.133 246.687 427.133C248.034 427.133 249.187 426.654 250.144 425.697C251.094 424.74 251.57 423.588 251.57 422.24C251.57 420.893 251.094 419.74 250.144 418.783C249.187 417.826 248.034 417.348 246.687 417.348C246.257 417.348 245.834 417.403 245.417 417.514L245.759 415.121H250.73V412.904H243.845L242.966 419.037L242.839 419.945L244.157 420.961ZM252.673 428.988H254.031L254.91 426.918V424.857H252.634V427.133H253.455L252.673 428.988ZM256.473 427.133H265.936V424.887H259.832L263.699 420.648C263.895 420.46 264.067 420.277 264.217 420.102C264.965 419.105 265.34 418.132 265.34 417.182C265.34 415.964 264.9 414.926 264.021 414.066C263.143 413.201 262.081 412.768 260.838 412.768C259.633 412.768 258.608 413.201 257.762 414.066C256.909 414.926 256.482 415.964 256.482 417.182V418.305H258.699V417.182C258.699 416.596 258.911 416.088 259.334 415.658C259.757 415.229 260.258 415.014 260.838 415.014C261.476 415.014 262.016 415.225 262.459 415.648C262.902 416.065 263.123 416.576 263.123 417.182C263.123 417.67 262.941 418.139 262.576 418.588L261.365 419.906L256.473 425.258V427.133ZM271.893 412.719C270.532 412.719 269.367 413.201 268.397 414.164C267.433 415.134 266.952 416.299 266.952 417.66V422.387C266.952 423.747 267.433 424.913 268.397 425.883C269.367 426.846 270.532 427.328 271.893 427.328C273.26 427.328 274.426 426.846 275.389 425.883C276.359 424.913 276.844 423.747 276.844 422.387V417.66C276.844 416.299 276.359 415.134 275.389 414.164C274.426 413.201 273.26 412.719 271.893 412.719ZM274.627 422.387C274.627 423.135 274.36 423.777 273.827 424.311C273.293 424.844 272.648 425.111 271.893 425.111C271.144 425.111 270.503 424.844 269.969 424.311C269.435 423.777 269.168 423.135 269.168 422.387V417.66C269.168 416.905 269.435 416.26 269.969 415.727C270.503 415.193 271.144 414.926 271.893 414.926C272.648 414.926 273.293 415.193 273.827 415.727C274.36 416.26 274.627 416.905 274.627 417.66V422.387ZM283.544 412.719C282.183 412.719 281.018 413.201 280.048 414.164C279.084 415.134 278.602 416.299 278.602 417.66V422.387C278.602 423.747 279.084 424.913 280.048 425.883C281.018 426.846 282.183 427.328 283.544 427.328C284.911 427.328 286.076 426.846 287.04 425.883C288.01 424.913 288.495 423.747 288.495 422.387V417.66C288.495 416.299 288.01 415.134 287.04 414.164C286.076 413.201 284.911 412.719 283.544 412.719ZM286.278 422.387C286.278 423.135 286.011 423.777 285.477 424.311C284.943 424.844 284.299 425.111 283.544 425.111C282.795 425.111 282.154 424.844 281.62 424.311C281.086 423.777 280.819 423.135 280.819 422.387V417.66C280.819 416.905 281.086 416.26 281.62 415.727C282.154 415.193 282.795 414.926 283.544 414.926C284.299 414.926 284.943 415.193 285.477 415.727C286.011 416.26 286.278 416.905 286.278 417.66V422.387ZM290.195 428.988H291.552L292.431 426.918V424.857H290.155V427.133H290.976L290.195 428.988ZM299.033 412.719C297.672 412.719 296.507 413.201 295.537 414.164C294.573 415.134 294.091 416.299 294.091 417.66V422.387C294.091 423.747 294.573 424.913 295.537 425.883C296.507 426.846 297.672 427.328 299.033 427.328C300.4 427.328 301.565 426.846 302.529 425.883C303.499 424.913 303.984 423.747 303.984 422.387V417.66C303.984 416.299 303.499 415.134 302.529 414.164C301.565 413.201 300.4 412.719 299.033 412.719ZM301.767 422.387C301.767 423.135 301.5 423.777 300.966 424.311C300.433 424.844 299.788 425.111 299.033 425.111C298.284 425.111 297.643 424.844 297.109 424.311C296.575 423.777 296.308 423.135 296.308 422.387V417.66C296.308 416.905 296.575 416.26 297.109 415.727C297.643 415.193 298.284 414.926 299.033 414.926C299.788 414.926 300.433 415.193 300.966 415.727C301.5 416.26 301.767 416.905 301.767 417.66V422.387ZM310.684 412.719C309.323 412.719 308.158 413.201 307.188 414.164C306.224 415.134 305.742 416.299 305.742 417.66V422.387C305.742 423.747 306.224 424.913 307.188 425.883C308.158 426.846 309.323 427.328 310.684 427.328C312.051 427.328 313.216 426.846 314.18 425.883C315.15 424.913 315.635 423.747 315.635 422.387V417.66C315.635 416.299 315.15 415.134 314.18 414.164C313.216 413.201 312.051 412.719 310.684 412.719ZM313.418 422.387C313.418 423.135 313.151 423.777 312.617 424.311C312.083 424.844 311.439 425.111 310.684 425.111C309.935 425.111 309.294 424.844 308.76 424.311C308.226 423.777 307.959 423.135 307.959 422.387V417.66C307.959 416.905 308.226 416.26 308.76 415.727C309.294 415.193 309.935 414.926 310.684 414.926C311.439 414.926 312.083 415.193 312.617 415.727C313.151 416.26 313.418 416.905 313.418 417.66V422.387ZM322.334 412.719C320.974 412.719 319.808 413.201 318.838 414.164C317.875 415.134 317.393 416.299 317.393 417.66V422.387C317.393 423.747 317.875 424.913 318.838 425.883C319.808 426.846 320.974 427.328 322.334 427.328C323.702 427.328 324.867 426.846 325.83 425.883C326.801 424.913 327.286 423.747 327.286 422.387V417.66C327.286 416.299 326.801 415.134 325.83 414.164C324.867 413.201 323.702 412.719 322.334 412.719ZM325.069 422.387C325.069 423.135 324.802 423.777 324.268 424.311C323.734 424.844 323.09 425.111 322.334 425.111C321.586 425.111 320.944 424.844 320.411 424.311C319.877 423.777 319.61 423.135 319.61 422.387V417.66C319.61 416.905 319.877 416.26 320.411 415.727C320.944 415.193 321.586 414.926 322.334 414.926C323.09 414.926 323.734 415.193 324.268 415.727C324.802 416.26 325.069 416.905 325.069 417.66V422.387ZM339.728 414.975C340.34 414.975 340.864 415.167 341.3 415.551C341.73 415.928 341.945 416.387 341.945 416.928H344.23C344.23 415.762 343.79 414.763 342.911 413.93C342.032 413.103 340.971 412.689 339.728 412.689C338.484 412.689 337.423 413.103 336.544 413.93C335.665 414.763 335.226 415.762 335.226 416.928C335.226 418.243 335.714 419.255 336.691 419.965C337.251 420.375 338.155 420.749 339.405 421.088C340.415 421.368 341.072 421.618 341.378 421.84C341.756 422.113 341.945 422.536 341.945 423.109C341.945 423.65 341.73 424.109 341.3 424.486C340.864 424.87 340.34 425.062 339.728 425.062C339.116 425.062 338.592 424.87 338.155 424.486C337.726 424.109 337.511 423.65 337.511 423.109H335.226C335.226 424.275 335.665 425.271 336.544 426.098C337.423 426.931 338.484 427.348 339.728 427.348C340.971 427.348 342.032 426.931 342.911 426.098C343.79 425.271 344.23 424.275 344.23 423.109C344.23 421.775 343.735 420.749 342.745 420.033C342.185 419.623 341.274 419.245 340.011 418.9C338.995 418.614 338.331 418.354 338.019 418.119C337.68 417.865 337.511 417.468 337.511 416.928C337.511 416.387 337.726 415.928 338.155 415.551C338.592 415.167 339.116 414.975 339.728 414.975ZM349.504 420.805L351.261 416.576L353.019 420.805H349.504ZM350.392 412.875L344.464 427.133H346.867L348.586 423.021H353.937L355.646 427.133H358.039L352.13 412.875H350.392ZM360.783 418.891V415.092H363.273C363.905 415.092 364.357 415.355 364.631 415.883C364.794 416.182 364.882 416.521 364.895 416.898C364.921 417.543 364.8 418.005 364.533 418.285C364.143 418.689 363.221 418.891 361.77 418.891H360.783ZM368.127 427.133L363.801 420.971C364.797 420.788 365.572 420.404 366.125 419.818C366.828 419.089 367.157 418.087 367.111 416.811C367.072 415.749 366.724 414.848 366.066 414.105C365.35 413.285 364.419 412.875 363.273 412.875H358.566V427.133H360.783V420.531L365.422 427.133H368.127Z" fill="#5B2CD3"/>
<path d="M300.163 448.133H301.101V441.775H300.163V448.133ZM300.626 439.584C300.786 439.584 300.921 439.641 301.031 439.754C301.14 439.863 301.195 439.996 301.195 440.152C301.195 440.309 301.14 440.443 301.031 440.557C300.921 440.666 300.786 440.721 300.626 440.721C300.47 440.721 300.335 440.666 300.222 440.557C300.113 440.443 300.058 440.309 300.058 440.152C300.058 439.996 300.113 439.863 300.222 439.754C300.335 439.641 300.47 439.584 300.626 439.584ZM305.127 441.711C304.365 441.711 303.705 441.994 303.146 442.561V441.775H302.209V448.133H303.146V444.887C303.146 444.27 303.339 443.742 303.726 443.305C304.113 442.867 304.58 442.648 305.127 442.648C305.67 442.648 306.134 442.867 306.521 443.305C306.908 443.746 307.101 444.275 307.101 444.893V448.133H308.039V444.893C308.039 444.014 307.755 443.264 307.189 442.643C306.619 442.021 305.931 441.711 305.127 441.711ZM314.074 447.195L316.904 444.137C317.557 443.484 317.883 442.811 317.883 442.115C317.883 441.416 317.625 440.818 317.109 440.322C316.598 439.826 315.979 439.578 315.252 439.578C314.565 439.578 313.969 439.83 313.465 440.334C312.965 440.834 312.715 441.428 312.715 442.115V442.584H313.652V442.115C313.652 441.682 313.811 441.307 314.127 440.99C314.443 440.674 314.818 440.516 315.252 440.516C315.725 440.516 316.125 440.67 316.453 440.979C316.781 441.287 316.945 441.666 316.945 442.115C316.945 442.479 316.809 442.824 316.535 443.152L315.914 443.82L312.65 447.342V448.133H318.258V447.195H314.074ZM323.871 439.584L323.016 439.578L318.903 445.637V446.375H322.934V448.133H323.871V446.375H324.868V445.438H323.871V439.584ZM320.086 445.438L322.928 441.178V445.438H320.086ZM336.587 441.717C336.114 441.717 335.671 441.846 335.257 442.104C334.858 442.357 334.532 442.701 334.278 443.135C334.02 442.701 333.692 442.357 333.294 442.104C332.88 441.846 332.436 441.717 331.964 441.717C331.261 441.717 330.645 441.984 330.118 442.52V441.775H329.18V448.133H330.118V444.893C330.118 444.275 330.298 443.748 330.657 443.311C331.02 442.873 331.456 442.654 331.964 442.654C332.471 442.654 332.905 442.873 333.264 443.311C333.628 443.752 333.809 444.281 333.809 444.898V448.133H334.747V444.898C334.747 444.281 334.927 443.752 335.286 443.311C335.645 442.873 336.079 442.654 336.587 442.654C337.098 442.654 337.534 442.873 337.893 443.311C338.253 443.752 338.432 444.281 338.432 444.898V448.133H339.37V444.898C339.37 444.02 339.098 443.27 338.555 442.648C338.012 442.027 337.356 441.717 336.587 441.717ZM343.237 441.711C342.355 441.711 341.601 442.027 340.976 442.66C340.355 443.297 340.044 444.062 340.044 444.957C340.044 445.848 340.355 446.611 340.976 447.248C341.601 447.881 342.355 448.197 343.237 448.197C344.112 448.197 344.862 447.881 345.487 447.248C346.108 446.611 346.419 445.848 346.419 444.957C346.419 444.062 346.108 443.297 345.487 442.66C344.862 442.027 344.112 441.711 343.237 441.711ZM343.237 447.242C342.62 447.242 342.093 447.018 341.655 446.568C341.218 446.123 340.999 445.586 340.999 444.957C340.999 444.328 341.218 443.789 341.655 443.34C342.093 442.891 342.62 442.666 343.237 442.666C343.851 442.666 344.376 442.891 344.814 443.34C345.247 443.789 345.464 444.328 345.464 444.957C345.464 445.586 345.247 446.123 344.814 446.568C344.376 447.018 343.851 447.242 343.237 447.242ZM350.064 441.711C349.302 441.711 348.642 441.994 348.083 442.561V441.775H347.146V448.133H348.083V444.887C348.083 444.27 348.277 443.742 348.663 443.305C349.05 442.867 349.517 442.648 350.064 442.648C350.607 442.648 351.072 442.867 351.458 443.305C351.845 443.746 352.038 444.275 352.038 444.893V448.133H352.976V444.893C352.976 444.014 352.693 443.264 352.126 442.643C351.556 442.021 350.868 441.711 350.064 441.711ZM355.478 439.578H354.541V441.775H353.621V442.713H354.541V448.133H355.478V442.713H356.398V441.775H355.478V439.578ZM360.013 441.699C359.252 441.699 358.592 441.982 358.033 442.549V439.584H357.095V448.133H358.033V444.875C358.033 444.258 358.226 443.73 358.613 443.293C359 442.855 359.467 442.637 360.013 442.637C360.556 442.637 361.021 442.855 361.408 443.293C361.795 443.734 361.988 444.264 361.988 444.881V448.133H362.926V444.881C362.926 444.002 362.642 443.252 362.076 442.631C361.506 442.01 360.818 441.699 360.013 441.699ZM365.639 442.666C365.92 442.666 366.162 442.756 366.365 442.936C366.564 443.111 366.664 443.324 366.664 443.574H367.619C367.619 443.062 367.426 442.623 367.039 442.256C366.652 441.893 366.186 441.711 365.639 441.711C365.092 441.711 364.625 441.893 364.238 442.256C363.852 442.623 363.658 443.062 363.658 443.574C363.658 444.152 363.869 444.596 364.291 444.904C364.533 445.084 364.938 445.252 365.504 445.408C365.957 445.533 366.256 445.648 366.4 445.754C366.576 445.879 366.664 446.074 366.664 446.34C366.664 446.59 366.564 446.803 366.365 446.979C366.162 447.154 365.92 447.242 365.639 447.242C365.357 447.242 365.115 447.154 364.912 446.979C364.713 446.803 364.613 446.59 364.613 446.34H363.658C363.658 446.852 363.852 447.289 364.238 447.652C364.625 448.016 365.092 448.197 365.639 448.197C366.186 448.197 366.652 448.016 367.039 447.652C367.426 447.289 367.619 446.852 367.619 446.34C367.619 445.754 367.408 445.305 366.986 444.992C366.74 444.812 366.332 444.643 365.762 444.482C365.312 444.361 365.018 444.25 364.877 444.148C364.701 444.023 364.613 443.832 364.613 443.574C364.613 443.324 364.713 443.111 364.912 442.936C365.115 442.756 365.357 442.666 365.639 442.666Z" fill="#140A2B"/>
<rect opacity="0.75" x="213" width="373" height="261" rx="20" fill="url(#paint1_linear_4572_3348)"/>
<g filter="url(#filter1_d_4572_3348)">
<rect x="242" y="37" width="186" height="186" rx="20" fill="white"/>
</g>
<g filter="url(#filter2_d_4572_3348)">
<rect x="452" y="37" width="186" height="186" rx="20" fill="white"/>
</g>
<path d="M480.055 156.879C478.544 156.879 477.242 156.332 476.148 155.238C475.081 154.171 474.547 152.875 474.547 151.352C474.547 150.492 474.749 149.665 475.152 148.871L475.582 148.148C476.702 146.612 478.193 145.844 480.055 145.844C481.565 145.844 482.867 146.384 483.961 147.465C485.029 148.546 485.562 149.841 485.562 151.352C485.562 152.875 485.029 154.171 483.961 155.238C482.867 156.332 481.565 156.879 480.055 156.879ZM479.82 132.484L471.812 145.59C471.565 145.941 471.201 146.612 470.719 147.602C470.224 148.812 469.977 150.062 469.977 151.352C469.977 154.138 470.96 156.514 472.926 158.48C474.905 160.447 477.281 161.43 480.055 161.43C482.828 161.43 485.204 160.447 487.184 158.48C489.15 156.514 490.133 154.138 490.133 151.352C490.133 148.578 489.15 146.208 487.184 144.242C485.204 142.263 482.828 141.273 480.055 141.273H479.781L485.172 132.484H479.82ZM493.258 132.484V161H497.691V146.039L503.766 161H506.695L512.77 146.039V161H517.203V132.484H513.492L505.23 152.836L496.969 132.484H493.258ZM538.111 148.197C538.86 148.197 539.501 148.432 540.035 148.9C540.562 149.376 540.826 149.952 540.826 150.629H542.418C542.418 149.516 541.998 148.565 541.158 147.777C540.312 146.99 539.296 146.596 538.111 146.596C536.913 146.596 535.895 146.99 535.055 147.777C534.208 148.565 533.785 149.516 533.785 150.629C533.785 151.879 534.251 152.839 535.182 153.51C535.715 153.9 536.614 154.268 537.877 154.613C538.971 154.913 539.7 155.193 540.064 155.453C540.572 155.818 540.826 156.368 540.826 157.104C540.826 157.787 540.562 158.367 540.035 158.842C539.501 159.311 538.86 159.545 538.111 159.545C537.35 159.545 536.705 159.311 536.178 158.842C535.644 158.367 535.377 157.787 535.377 157.104H533.785C533.785 158.223 534.208 159.177 535.055 159.965C535.895 160.753 536.913 161.146 538.111 161.146C539.296 161.146 540.312 160.753 541.158 159.965C541.998 159.177 542.418 158.223 542.418 157.104C542.418 155.84 541.952 154.87 541.021 154.193C540.475 153.796 539.566 153.425 538.297 153.08C537.223 152.787 536.503 152.51 536.139 152.25C535.631 151.892 535.377 151.352 535.377 150.629C535.377 149.952 535.644 149.376 536.178 148.9C536.705 148.432 537.35 148.197 538.111 148.197ZM553.033 161H554.781L549.547 146.742H548.219L542.984 161H544.674L546.451 155.941H551.256L553.033 161ZM548.854 149.135L550.729 154.369H546.998L548.854 149.135ZM557.242 153.09V148.305H560.26C560.95 148.305 561.484 148.552 561.861 149.047C562.18 149.457 562.35 149.968 562.369 150.58C562.402 151.374 562.239 151.957 561.881 152.328C561.393 152.836 560.325 153.09 558.678 153.09H557.242ZM558.219 154.584L562.721 161H564.625L560.133 154.594C561.415 154.457 562.372 154.063 563.004 153.412C563.668 152.722 563.977 151.755 563.932 150.512C563.893 149.509 563.577 148.653 562.984 147.943C562.301 147.143 561.393 146.742 560.26 146.742H555.68V161H557.242V154.584H558.219Z" fill="#73DCFA"/>
<path d="M469.752 71H475.692V69.9062H470.846V66.5293H475.692V65.4355H470.846V62.1133H475.692V61.0195H469.752V71ZM476.998 71H478.092V61.0195H476.998V71ZM479.801 71H480.895V63.583H479.801V71ZM480.341 61.0264C480.528 61.0264 480.685 61.0924 480.812 61.2246C480.94 61.3522 481.004 61.5072 481.004 61.6895C481.004 61.8717 480.94 62.029 480.812 62.1611C480.685 62.2887 480.528 62.3525 480.341 62.3525C480.159 62.3525 480.001 62.2887 479.869 62.1611C479.742 62.029 479.678 61.8717 479.678 61.6895C479.678 61.5072 479.742 61.3522 479.869 61.2246C480.001 61.0924 480.159 61.0264 480.341 61.0264ZM489.665 63.583H488.551V64.6152C487.826 63.8861 486.96 63.5215 485.953 63.5215C484.923 63.5215 484.044 63.8929 483.314 64.6357C482.59 65.374 482.228 66.2422 482.228 67.2402C482.228 68.2383 482.59 69.1064 483.314 69.8447C484.044 70.583 484.923 70.9521 485.953 70.9521C486.96 70.9521 487.826 70.5921 488.551 69.8721C488.528 70.5876 488.266 71.1982 487.765 71.7041C487.259 72.2054 486.655 72.4561 485.953 72.4561C485.488 72.4561 485.042 72.3398 484.613 72.1074C484.189 71.8796 483.854 71.5719 483.608 71.1846L482.665 71.7793C483.011 72.3262 483.481 72.7614 484.073 73.085C484.675 73.4131 485.301 73.5771 485.953 73.5771C486.874 73.5771 487.683 73.2695 488.38 72.6543C489.073 72.0436 489.487 71.2803 489.624 70.3643L489.665 69.9541V63.583ZM485.953 69.8379C485.233 69.8379 484.618 69.5781 484.107 69.0586C483.597 68.5345 483.342 67.9284 483.342 67.2402C483.342 66.5521 483.597 65.946 484.107 65.4219C484.618 64.9023 485.233 64.6426 485.953 64.6426C486.669 64.6426 487.279 64.9023 487.785 65.4219C488.296 65.9414 488.551 66.5452 488.551 67.2334V67.2402C488.551 67.9284 488.296 68.5345 487.785 69.0586C487.279 69.5781 486.669 69.8379 485.953 69.8379ZM491.244 71H492.338V63.583H491.244V71ZM491.784 61.0264C491.971 61.0264 492.128 61.0924 492.256 61.2246C492.383 61.3522 492.447 61.5072 492.447 61.6895C492.447 61.8717 492.383 62.029 492.256 62.1611C492.128 62.2887 491.971 62.3525 491.784 62.3525C491.602 62.3525 491.445 62.2887 491.312 62.1611C491.185 62.029 491.121 61.8717 491.121 61.6895C491.121 61.5072 491.185 61.3522 491.312 61.2246C491.445 61.0924 491.602 61.0264 491.784 61.0264ZM497.636 63.5078C496.619 63.5078 495.749 63.8701 495.024 64.5947V61.0195H493.91V71H495.024V69.9883C495.749 70.7129 496.619 71.0752 497.636 71.0752C498.657 71.0752 499.532 70.7038 500.261 69.9609C500.985 69.2227 501.348 68.334 501.348 67.2949C501.348 66.2467 500.985 65.3535 500.261 64.6152C499.532 63.877 498.657 63.5078 497.636 63.5078ZM497.636 69.9541C496.916 69.9541 496.3 69.6943 495.79 69.1748C495.28 68.6553 495.024 68.0286 495.024 67.2949C495.024 66.5612 495.28 65.93 495.79 65.4014C496.3 64.8818 496.916 64.6221 497.636 64.6221C498.351 64.6221 498.964 64.8818 499.475 65.4014C499.98 65.93 500.233 66.5612 500.233 67.2949C500.233 68.0286 499.98 68.6553 499.475 69.1748C498.964 69.6943 498.351 69.9541 497.636 69.9541ZM502.688 71H503.781V61.0195H502.688V71ZM508.908 63.5078C507.878 63.5078 506.999 63.877 506.27 64.6152C505.545 65.3581 505.183 66.2513 505.183 67.2949C505.183 68.334 505.545 69.2249 506.27 69.9678C506.999 70.7061 507.878 71.0752 508.908 71.0752C509.605 71.0752 510.248 70.8929 510.836 70.5283C511.428 70.1637 511.886 69.6647 512.21 69.0312L511.212 68.5254C510.984 68.9674 510.665 69.3184 510.255 69.5781C509.84 69.8333 509.391 69.9609 508.908 69.9609C508.284 69.9609 507.732 69.7604 507.254 69.3594C506.78 68.9629 506.479 68.4616 506.352 67.8555H512.62V67.2949C512.62 66.2513 512.258 65.3581 511.533 64.6152C510.804 63.877 509.929 63.5078 508.908 63.5078ZM506.352 66.7344C506.479 66.1283 506.78 65.627 507.254 65.2305C507.732 64.8249 508.284 64.6221 508.908 64.6221C509.523 64.6221 510.07 64.8249 510.549 65.2305C511.023 65.627 511.324 66.1283 511.451 66.7344H506.352ZM519.894 61.6758C519.433 62.1133 519.199 62.749 519.189 63.583H518.383V64.6768H519.183V71H520.276V64.6768H521.623V63.583H520.283C520.288 63.0635 520.409 62.6921 520.646 62.4688C520.896 62.2318 521.318 62.1133 521.91 62.1133H522.054V61.0195H521.91C521.026 61.0195 520.354 61.2383 519.894 61.6758ZM526.23 63.5078C525.201 63.5078 524.321 63.877 523.592 64.6152C522.867 65.3581 522.505 66.2513 522.505 67.2949C522.505 68.334 522.867 69.2249 523.592 69.9678C524.321 70.7061 525.201 71.0752 526.23 71.0752C527.251 71.0752 528.126 70.7061 528.855 69.9678C529.58 69.2249 529.942 68.334 529.942 67.2949C529.942 66.2513 529.58 65.3581 528.855 64.6152C528.126 63.877 527.251 63.5078 526.23 63.5078ZM526.23 69.9609C525.51 69.9609 524.895 69.6989 524.385 69.1748C523.874 68.6553 523.619 68.0286 523.619 67.2949C523.619 66.5612 523.874 65.9323 524.385 65.4082C524.895 64.8841 525.51 64.6221 526.23 64.6221C526.946 64.6221 527.559 64.8841 528.069 65.4082C528.575 65.9323 528.828 66.5612 528.828 67.2949C528.828 68.0286 528.575 68.6553 528.069 69.1748C527.559 69.6989 526.946 69.9609 526.23 69.9609ZM532.164 63.583H531.07V71H532.164V67.4248C532.164 66.7048 532.39 66.0439 532.841 65.4424C533.292 64.932 533.837 64.6768 534.475 64.6768H534.543V63.583H534.475C533.586 63.583 532.816 63.959 532.164 64.7109V63.583ZM539.998 61.0195V71H541.092V66.5361H543.204C543.91 66.5361 544.514 66.2855 545.016 65.7842C545.512 65.2419 545.761 64.5719 545.761 63.7744C545.761 62.9814 545.512 62.3115 545.016 61.7646C544.514 61.2679 543.91 61.0195 543.204 61.0195H539.998ZM541.092 65.4424V62.1133H543.204C543.61 62.1133 543.954 62.2546 544.236 62.5371C544.523 62.8698 544.667 63.2822 544.667 63.7744C544.667 64.2712 544.523 64.6836 544.236 65.0117C543.954 65.2988 543.61 65.4424 543.204 65.4424H541.092ZM547.039 71H548.133V61.0195H547.039V71ZM556.903 63.583H555.789V64.5947C555.064 63.8701 554.199 63.5078 553.191 63.5078C552.161 63.5078 551.282 63.877 550.553 64.6152C549.828 65.3581 549.466 66.2513 549.466 67.2949C549.466 68.334 549.828 69.2249 550.553 69.9678C551.282 70.7061 552.161 71.0752 553.191 71.0752C554.199 71.0752 555.064 70.7152 555.789 69.9951V71H556.903V63.583ZM553.191 69.9609C552.471 69.9609 551.856 69.6989 551.346 69.1748C550.835 68.6553 550.58 68.0286 550.58 67.2949C550.58 66.5612 550.835 65.9323 551.346 65.4082C551.856 64.8841 552.471 64.6221 553.191 64.6221C553.907 64.6221 554.518 64.8841 555.023 65.4082C555.534 65.9277 555.789 66.5544 555.789 67.2881V67.2949C555.789 68.0286 555.534 68.6553 555.023 69.1748C554.518 69.6989 553.907 69.9609 553.191 69.9609ZM561.818 63.5078C560.93 63.5078 560.16 63.8382 559.508 64.499V63.583H558.414V71H559.508V67.2129C559.508 66.4928 559.733 65.8776 560.185 65.3672C560.636 64.8568 561.18 64.6016 561.818 64.6016C562.452 64.6016 562.994 64.8568 563.445 65.3672C563.896 65.8822 564.122 66.4997 564.122 67.2197V71H565.216V67.2197C565.216 66.1943 564.885 65.3193 564.225 64.5947C563.559 63.8701 562.757 63.5078 561.818 63.5078ZM576.119 65.4902C576.698 64.9798 576.987 64.3395 576.987 63.5693C576.987 62.8675 576.739 62.266 576.242 61.7646C575.741 61.2679 575.137 61.0195 574.431 61.0195H571.225V71H574.533C575.354 71 576.055 70.7083 576.639 70.125C577.222 69.5417 577.514 68.8398 577.514 68.0195C577.514 67.4954 577.386 67.0055 577.131 66.5498C576.885 66.1123 576.548 65.7591 576.119 65.4902ZM572.318 62.1133H574.431C574.836 62.1133 575.18 62.2546 575.463 62.5371C575.75 62.8242 575.894 63.1683 575.894 63.5693C575.894 63.9749 575.75 64.319 575.463 64.6016C575.18 64.8887 574.836 65.0322 574.431 65.0322H572.318V62.1133ZM572.318 69.9062V66.126H574.533C575.053 66.126 575.497 66.3105 575.866 66.6797C576.235 67.0488 576.42 67.4954 576.42 68.0195C576.42 68.5391 576.235 68.9834 575.866 69.3525C575.497 69.7217 575.053 69.9062 574.533 69.9062H572.318Z" fill="#8A8595"/>
<path d="M472.01 201.062L474.84 198.004C475.492 197.352 475.818 196.678 475.818 195.982C475.818 195.283 475.561 194.686 475.045 194.189C474.533 193.693 473.914 193.445 473.188 193.445C472.5 193.445 471.904 193.697 471.4 194.201C470.9 194.701 470.65 195.295 470.65 195.982V196.451H471.588V195.982C471.588 195.549 471.746 195.174 472.062 194.857C472.379 194.541 472.754 194.383 473.188 194.383C473.66 194.383 474.061 194.537 474.389 194.846C474.717 195.154 474.881 195.533 474.881 195.982C474.881 196.346 474.744 196.691 474.471 197.02L473.85 197.688L470.586 201.209V202H476.193V201.062H472.01ZM482.047 193.451L481.191 193.445L477.078 199.504V200.242H481.109V202H482.047V200.242H483.043V199.305H482.047V193.451ZM478.262 199.305L481.104 195.045V199.305H478.262ZM495.242 195.584C494.77 195.584 494.326 195.713 493.912 195.971C493.514 196.225 493.188 196.568 492.934 197.002C492.676 196.568 492.348 196.225 491.949 195.971C491.535 195.713 491.092 195.584 490.619 195.584C489.916 195.584 489.301 195.852 488.773 196.387V195.643H487.836V202H488.773V198.76C488.773 198.143 488.953 197.615 489.312 197.178C489.676 196.74 490.111 196.521 490.619 196.521C491.127 196.521 491.561 196.74 491.92 197.178C492.283 197.619 492.465 198.148 492.465 198.766V202H493.402V198.766C493.402 198.148 493.582 197.619 493.941 197.178C494.301 196.74 494.734 196.521 495.242 196.521C495.754 196.521 496.189 196.74 496.549 197.178C496.908 197.619 497.088 198.148 497.088 198.766V202H498.025V198.766C498.025 197.887 497.754 197.137 497.211 196.516C496.668 195.895 496.012 195.584 495.242 195.584ZM502.133 195.578C501.25 195.578 500.496 195.895 499.871 196.527C499.25 197.164 498.939 197.93 498.939 198.824C498.939 199.715 499.25 200.479 499.871 201.115C500.496 201.748 501.25 202.064 502.133 202.064C503.008 202.064 503.758 201.748 504.383 201.115C505.004 200.479 505.314 199.715 505.314 198.824C505.314 197.93 505.004 197.164 504.383 196.527C503.758 195.895 503.008 195.578 502.133 195.578ZM502.133 201.109C501.516 201.109 500.988 200.885 500.551 200.436C500.113 199.99 499.895 199.453 499.895 198.824C499.895 198.195 500.113 197.656 500.551 197.207C500.988 196.758 501.516 196.533 502.133 196.533C502.746 196.533 503.271 196.758 503.709 197.207C504.143 197.656 504.359 198.195 504.359 198.824C504.359 199.453 504.143 199.99 503.709 200.436C503.271 200.885 502.746 201.109 502.133 201.109ZM509.199 195.578C508.438 195.578 507.777 195.861 507.219 196.428V195.643H506.281V202H507.219V198.754C507.219 198.137 507.412 197.609 507.799 197.172C508.186 196.734 508.652 196.516 509.199 196.516C509.742 196.516 510.207 196.734 510.594 197.172C510.98 197.613 511.174 198.143 511.174 198.76V202H512.111V198.76C512.111 197.881 511.828 197.131 511.262 196.51C510.691 195.889 510.004 195.578 509.199 195.578ZM514.854 193.445H513.916V195.643H512.996V196.58H513.916V202H514.854V196.58H515.773V195.643H514.854V193.445ZM519.629 195.566C518.867 195.566 518.207 195.85 517.648 196.416V193.451H516.711V202H517.648V198.742C517.648 198.125 517.842 197.598 518.229 197.16C518.615 196.723 519.082 196.504 519.629 196.504C520.172 196.504 520.637 196.723 521.023 197.16C521.41 197.602 521.604 198.131 521.604 198.748V202H522.541V198.748C522.541 197.869 522.258 197.119 521.691 196.498C521.121 195.877 520.434 195.566 519.629 195.566ZM525.494 196.533C525.775 196.533 526.018 196.623 526.221 196.803C526.42 196.979 526.52 197.191 526.52 197.441H527.475C527.475 196.93 527.281 196.49 526.895 196.123C526.508 195.76 526.041 195.578 525.494 195.578C524.947 195.578 524.48 195.76 524.094 196.123C523.707 196.49 523.514 196.93 523.514 197.441C523.514 198.02 523.725 198.463 524.146 198.771C524.389 198.951 524.793 199.119 525.359 199.275C525.812 199.4 526.111 199.516 526.256 199.621C526.432 199.746 526.52 199.941 526.52 200.207C526.52 200.457 526.42 200.67 526.221 200.846C526.018 201.021 525.775 201.109 525.494 201.109C525.213 201.109 524.971 201.021 524.768 200.846C524.568 200.67 524.469 200.457 524.469 200.207H523.514C523.514 200.719 523.707 201.156 524.094 201.52C524.48 201.883 524.947 202.064 525.494 202.064C526.041 202.064 526.508 201.883 526.895 201.52C527.281 201.156 527.475 200.719 527.475 200.207C527.475 199.621 527.264 199.172 526.842 198.859C526.596 198.68 526.188 198.51 525.617 198.35C525.168 198.229 524.873 198.117 524.732 198.016C524.557 197.891 524.469 197.699 524.469 197.441C524.469 197.191 524.568 196.979 524.768 196.803C524.971 196.623 525.213 196.533 525.494 196.533Z" fill="#140A2B"/>
<path d="M581.371 202H582.309V193.445H581.371V202ZM584.652 197.254V194.383H586.463C586.877 194.383 587.197 194.531 587.424 194.828C587.615 195.074 587.717 195.381 587.729 195.748C587.748 196.225 587.65 196.574 587.436 196.797C587.143 197.102 586.502 197.254 585.514 197.254H584.652ZM585.238 198.15L587.939 202H589.082L586.387 198.156C587.156 198.074 587.73 197.838 588.109 197.447C588.508 197.033 588.693 196.453 588.666 195.707C588.643 195.105 588.453 194.592 588.098 194.166C587.688 193.686 587.143 193.445 586.463 193.445H583.715V202H584.652V198.15H585.238Z" fill="#140A2B"/>
<path d="M597.174 201.062L600.004 198.004C600.656 197.352 600.982 196.678 600.982 195.982C600.982 195.283 600.725 194.686 600.209 194.189C599.697 193.693 599.078 193.445 598.352 193.445C597.664 193.445 597.068 193.697 596.564 194.201C596.064 194.701 595.814 195.295 595.814 195.982V196.451H596.752V195.982C596.752 195.549 596.91 195.174 597.227 194.857C597.543 194.541 597.918 194.383 598.352 194.383C598.824 194.383 599.225 194.537 599.553 194.846C599.881 195.154 600.045 195.533 600.045 195.982C600.045 196.346 599.908 196.691 599.635 197.02L599.014 197.688L595.75 201.209V202H601.357V201.062H597.174ZM605.5 193.445C604.699 193.445 604.014 193.729 603.443 194.295C602.877 194.861 602.594 195.545 602.594 196.346V199.1C602.594 199.9 602.877 200.584 603.443 201.15C604.014 201.717 604.699 202 605.5 202C606.301 202 606.984 201.717 607.551 201.15C608.117 200.584 608.4 199.9 608.4 199.1V196.346C608.4 195.545 608.117 194.861 607.551 194.295C606.984 193.729 606.301 193.445 605.5 193.445ZM607.463 199.1C607.463 199.643 607.271 200.105 606.889 200.488C606.506 200.871 606.043 201.062 605.5 201.062C604.957 201.062 604.492 200.871 604.105 200.488C603.723 200.105 603.531 199.643 603.531 199.1V196.346C603.531 195.803 603.723 195.34 604.105 194.957C604.492 194.574 604.957 194.383 605.5 194.383C606.043 194.383 606.506 194.574 606.889 194.957C607.271 195.34 607.463 195.803 607.463 196.346V199.1ZM610.035 201.584L610.873 202L615.01 193.521L614.172 193.105L610.035 201.584ZM611.301 196.492C611.746 196.492 612.125 196.334 612.438 196.018C612.754 195.705 612.912 195.326 612.912 194.881C612.912 194.439 612.754 194.061 612.438 193.744C612.125 193.432 611.746 193.275 611.301 193.275C610.859 193.275 610.48 193.432 610.164 193.744C609.852 194.061 609.695 194.439 609.695 194.881C609.695 195.326 609.852 195.705 610.164 196.018C610.48 196.334 610.859 196.492 611.301 196.492ZM611.301 194.213C611.488 194.213 611.646 194.277 611.775 194.406C611.908 194.539 611.975 194.697 611.975 194.881C611.975 195.064 611.908 195.223 611.775 195.355C611.646 195.488 611.488 195.555 611.301 195.555C611.117 195.555 610.961 195.488 610.832 195.355C610.699 195.223 610.633 195.064 610.633 194.881C610.633 194.697 610.699 194.539 610.832 194.406C610.961 194.277 611.117 194.213 611.301 194.213ZM613.744 198.613C613.299 198.613 612.92 198.771 612.607 199.088C612.291 199.4 612.133 199.779 612.133 200.225C612.133 200.666 612.291 201.045 612.607 201.361C612.92 201.674 613.299 201.83 613.744 201.83C614.186 201.83 614.564 201.674 614.881 201.361C615.193 201.045 615.35 200.666 615.35 200.225C615.35 199.779 615.193 199.4 614.881 199.088C614.564 198.771 614.186 198.613 613.744 198.613ZM613.744 200.893C613.557 200.893 613.398 200.828 613.27 200.699C613.137 200.566 613.07 200.408 613.07 200.225C613.07 200.041 613.137 199.883 613.27 199.75C613.398 199.617 613.557 199.551 613.744 199.551C613.928 199.551 614.086 199.617 614.219 199.75C614.348 199.883 614.412 200.041 614.412 200.225C614.412 200.408 614.348 200.566 614.219 200.699C614.086 200.828 613.928 200.893 613.744 200.893Z" fill="#140A2B"/>
<rect opacity="0.5" x="469" y="179" width="147" height="1" fill="#C4C1CA"/>
<path d="M262.879 155.434H275.125V161H279.559V155.434H282.703V151.02H279.559V132.484H276.219L262.879 151.508V155.434ZM267.488 151.117L275.105 140.258V151.117H267.488ZM285.75 132.484V161H290.184V146.039L296.258 161H299.188L305.262 146.039V161H309.695V132.484H305.984L297.723 152.836L289.461 132.484H285.75ZM330.604 148.197C331.352 148.197 331.993 148.432 332.527 148.9C333.055 149.376 333.318 149.952 333.318 150.629H334.91C334.91 149.516 334.49 148.565 333.65 147.777C332.804 146.99 331.788 146.596 330.604 146.596C329.406 146.596 328.387 146.99 327.547 147.777C326.701 148.565 326.277 149.516 326.277 150.629C326.277 151.879 326.743 152.839 327.674 153.51C328.208 153.9 329.106 154.268 330.369 154.613C331.463 154.913 332.192 155.193 332.557 155.453C333.064 155.818 333.318 156.368 333.318 157.104C333.318 157.787 333.055 158.367 332.527 158.842C331.993 159.311 331.352 159.545 330.604 159.545C329.842 159.545 329.197 159.311 328.67 158.842C328.136 158.367 327.869 157.787 327.869 157.104H326.277C326.277 158.223 326.701 159.177 327.547 159.965C328.387 160.753 329.406 161.146 330.604 161.146C331.788 161.146 332.804 160.753 333.65 159.965C334.49 159.177 334.91 158.223 334.91 157.104C334.91 155.84 334.445 154.87 333.514 154.193C332.967 153.796 332.059 153.425 330.789 153.08C329.715 152.787 328.995 152.51 328.631 152.25C328.123 151.892 327.869 151.352 327.869 150.629C327.869 149.952 328.136 149.376 328.67 148.9C329.197 148.432 329.842 148.197 330.604 148.197ZM345.525 161H347.273L342.039 146.742H340.711L335.477 161H337.166L338.943 155.941H343.748L345.525 161ZM341.346 149.135L343.221 154.369H339.49L341.346 149.135ZM349.734 153.09V148.305H352.752C353.442 148.305 353.976 148.552 354.354 149.047C354.673 149.457 354.842 149.968 354.861 150.58C354.894 151.374 354.731 151.957 354.373 152.328C353.885 152.836 352.817 153.09 351.17 153.09H349.734ZM350.711 154.584L355.213 161H357.117L352.625 154.594C353.908 154.457 354.865 154.063 355.496 153.412C356.16 152.722 356.469 151.755 356.424 150.512C356.385 149.509 356.069 148.653 355.477 147.943C354.793 147.143 353.885 146.742 352.752 146.742H348.172V161H349.734V154.584H350.711Z" fill="#2B48F4"/>
<path d="M262.752 71H268.692V69.9062H263.846V66.5293H268.692V65.4355H263.846V62.1133H268.692V61.0195H262.752V71ZM269.998 71H271.092V61.0195H269.998V71ZM272.801 71H273.895V63.583H272.801V71ZM273.341 61.0264C273.528 61.0264 273.685 61.0924 273.812 61.2246C273.94 61.3522 274.004 61.5072 274.004 61.6895C274.004 61.8717 273.94 62.029 273.812 62.1611C273.685 62.2887 273.528 62.3525 273.341 62.3525C273.159 62.3525 273.001 62.2887 272.869 62.1611C272.742 62.029 272.678 61.8717 272.678 61.6895C272.678 61.5072 272.742 61.3522 272.869 61.2246C273.001 61.0924 273.159 61.0264 273.341 61.0264ZM282.665 63.583H281.551V64.6152C280.826 63.8861 279.96 63.5215 278.953 63.5215C277.923 63.5215 277.044 63.8929 276.314 64.6357C275.59 65.374 275.228 66.2422 275.228 67.2402C275.228 68.2383 275.59 69.1064 276.314 69.8447C277.044 70.583 277.923 70.9521 278.953 70.9521C279.96 70.9521 280.826 70.5921 281.551 69.8721C281.528 70.5876 281.266 71.1982 280.765 71.7041C280.259 72.2054 279.655 72.4561 278.953 72.4561C278.488 72.4561 278.042 72.3398 277.613 72.1074C277.189 71.8796 276.854 71.5719 276.608 71.1846L275.665 71.7793C276.011 72.3262 276.481 72.7614 277.073 73.085C277.675 73.4131 278.301 73.5771 278.953 73.5771C279.874 73.5771 280.683 73.2695 281.38 72.6543C282.073 72.0436 282.487 71.2803 282.624 70.3643L282.665 69.9541V63.583ZM278.953 69.8379C278.233 69.8379 277.618 69.5781 277.107 69.0586C276.597 68.5345 276.342 67.9284 276.342 67.2402C276.342 66.5521 276.597 65.946 277.107 65.4219C277.618 64.9023 278.233 64.6426 278.953 64.6426C279.669 64.6426 280.279 64.9023 280.785 65.4219C281.296 65.9414 281.551 66.5452 281.551 67.2334V67.2402C281.551 67.9284 281.296 68.5345 280.785 69.0586C280.279 69.5781 279.669 69.8379 278.953 69.8379ZM284.244 71H285.338V63.583H284.244V71ZM284.784 61.0264C284.971 61.0264 285.128 61.0924 285.256 61.2246C285.383 61.3522 285.447 61.5072 285.447 61.6895C285.447 61.8717 285.383 62.029 285.256 62.1611C285.128 62.2887 284.971 62.3525 284.784 62.3525C284.602 62.3525 284.445 62.2887 284.312 62.1611C284.185 62.029 284.121 61.8717 284.121 61.6895C284.121 61.5072 284.185 61.3522 284.312 61.2246C284.445 61.0924 284.602 61.0264 284.784 61.0264ZM290.636 63.5078C289.619 63.5078 288.749 63.8701 288.024 64.5947V61.0195H286.91V71H288.024V69.9883C288.749 70.7129 289.619 71.0752 290.636 71.0752C291.657 71.0752 292.532 70.7038 293.261 69.9609C293.985 69.2227 294.348 68.334 294.348 67.2949C294.348 66.2467 293.985 65.3535 293.261 64.6152C292.532 63.877 291.657 63.5078 290.636 63.5078ZM290.636 69.9541C289.916 69.9541 289.3 69.6943 288.79 69.1748C288.28 68.6553 288.024 68.0286 288.024 67.2949C288.024 66.5612 288.28 65.93 288.79 65.4014C289.3 64.8818 289.916 64.6221 290.636 64.6221C291.351 64.6221 291.964 64.8818 292.475 65.4014C292.98 65.93 293.233 66.5612 293.233 67.2949C293.233 68.0286 292.98 68.6553 292.475 69.1748C291.964 69.6943 291.351 69.9541 290.636 69.9541ZM295.688 71H296.781V61.0195H295.688V71ZM301.908 63.5078C300.878 63.5078 299.999 63.877 299.27 64.6152C298.545 65.3581 298.183 66.2513 298.183 67.2949C298.183 68.334 298.545 69.2249 299.27 69.9678C299.999 70.7061 300.878 71.0752 301.908 71.0752C302.605 71.0752 303.248 70.8929 303.836 70.5283C304.428 70.1637 304.886 69.6647 305.21 69.0312L304.212 68.5254C303.984 68.9674 303.665 69.3184 303.255 69.5781C302.84 69.8333 302.391 69.9609 301.908 69.9609C301.284 69.9609 300.732 69.7604 300.254 69.3594C299.78 68.9629 299.479 68.4616 299.352 67.8555H305.62V67.2949C305.62 66.2513 305.258 65.3581 304.533 64.6152C303.804 63.877 302.929 63.5078 301.908 63.5078ZM299.352 66.7344C299.479 66.1283 299.78 65.627 300.254 65.2305C300.732 64.8249 301.284 64.6221 301.908 64.6221C302.523 64.6221 303.07 64.8249 303.549 65.2305C304.023 65.627 304.324 66.1283 304.451 66.7344H299.352ZM312.894 61.6758C312.433 62.1133 312.199 62.749 312.189 63.583H311.383V64.6768H312.183V71H313.276V64.6768H314.623V63.583H313.283C313.288 63.0635 313.409 62.6921 313.646 62.4688C313.896 62.2318 314.318 62.1133 314.91 62.1133H315.054V61.0195H314.91C314.026 61.0195 313.354 61.2383 312.894 61.6758ZM319.23 63.5078C318.201 63.5078 317.321 63.877 316.592 64.6152C315.867 65.3581 315.505 66.2513 315.505 67.2949C315.505 68.334 315.867 69.2249 316.592 69.9678C317.321 70.7061 318.201 71.0752 319.23 71.0752C320.251 71.0752 321.126 70.7061 321.855 69.9678C322.58 69.2249 322.942 68.334 322.942 67.2949C322.942 66.2513 322.58 65.3581 321.855 64.6152C321.126 63.877 320.251 63.5078 319.23 63.5078ZM319.23 69.9609C318.51 69.9609 317.895 69.6989 317.385 69.1748C316.874 68.6553 316.619 68.0286 316.619 67.2949C316.619 66.5612 316.874 65.9323 317.385 65.4082C317.895 64.8841 318.51 64.6221 319.23 64.6221C319.946 64.6221 320.559 64.8841 321.069 65.4082C321.575 65.9323 321.828 66.5612 321.828 67.2949C321.828 68.0286 321.575 68.6553 321.069 69.1748C320.559 69.6989 319.946 69.9609 319.23 69.9609ZM325.164 63.583H324.07V71H325.164V67.4248C325.164 66.7048 325.39 66.0439 325.841 65.4424C326.292 64.932 326.837 64.6768 327.475 64.6768H327.543V63.583H327.475C326.586 63.583 325.816 63.959 325.164 64.7109V63.583ZM332.998 61.0195V71H334.092V66.5361H336.204C336.91 66.5361 337.514 66.2855 338.016 65.7842C338.512 65.2419 338.761 64.5719 338.761 63.7744C338.761 62.9814 338.512 62.3115 338.016 61.7646C337.514 61.2679 336.91 61.0195 336.204 61.0195H332.998ZM334.092 65.4424V62.1133H336.204C336.61 62.1133 336.954 62.2546 337.236 62.5371C337.523 62.8698 337.667 63.2822 337.667 63.7744C337.667 64.2712 337.523 64.6836 337.236 65.0117C336.954 65.2988 336.61 65.4424 336.204 65.4424H334.092ZM340.039 71H341.133V61.0195H340.039V71ZM349.903 63.583H348.789V64.5947C348.064 63.8701 347.199 63.5078 346.191 63.5078C345.161 63.5078 344.282 63.877 343.553 64.6152C342.828 65.3581 342.466 66.2513 342.466 67.2949C342.466 68.334 342.828 69.2249 343.553 69.9678C344.282 70.7061 345.161 71.0752 346.191 71.0752C347.199 71.0752 348.064 70.7152 348.789 69.9951V71H349.903V63.583ZM346.191 69.9609C345.471 69.9609 344.856 69.6989 344.346 69.1748C343.835 68.6553 343.58 68.0286 343.58 67.2949C343.58 66.5612 343.835 65.9323 344.346 65.4082C344.856 64.8841 345.471 64.6221 346.191 64.6221C346.907 64.6221 347.518 64.8841 348.023 65.4082C348.534 65.9277 348.789 66.5544 348.789 67.2881V67.2949C348.789 68.0286 348.534 68.6553 348.023 69.1748C347.518 69.6989 346.907 69.9609 346.191 69.9609ZM354.818 63.5078C353.93 63.5078 353.16 63.8382 352.508 64.499V63.583H351.414V71H352.508V67.2129C352.508 66.4928 352.733 65.8776 353.185 65.3672C353.636 64.8568 354.18 64.6016 354.818 64.6016C355.452 64.6016 355.994 64.8568 356.445 65.3672C356.896 65.8822 357.122 66.4997 357.122 67.2197V71H358.216V67.2197C358.216 66.1943 357.885 65.3193 357.225 64.5947C356.559 63.8701 355.757 63.5078 354.818 63.5078ZM370.425 71H371.648L367.984 61.0195H367.055L363.391 71H364.573L365.817 67.459H369.181L370.425 71ZM367.499 62.6943L368.812 66.3584H366.2L367.499 62.6943Z" fill="#8A8595"/>
<path d="M263.873 196.521L264.506 195.426V202H265.443V193.445H264.564L263.059 196.053L263.873 196.521ZM268.162 201.062L270.992 198.004C271.645 197.352 271.971 196.678 271.971 195.982C271.971 195.283 271.713 194.686 271.197 194.189C270.686 193.693 270.066 193.445 269.34 193.445C268.652 193.445 268.057 193.697 267.553 194.201C267.053 194.701 266.803 195.295 266.803 195.982V196.451H267.74V195.982C267.74 195.549 267.898 195.174 268.215 194.857C268.531 194.541 268.906 194.383 269.34 194.383C269.812 194.383 270.213 194.537 270.541 194.846C270.869 195.154 271.033 195.533 271.033 195.982C271.033 196.346 270.896 196.691 270.623 197.02L270.002 197.688L266.738 201.209V202H272.346V201.062H268.162ZM284.902 195.584C284.43 195.584 283.986 195.713 283.572 195.971C283.174 196.225 282.848 196.568 282.594 197.002C282.336 196.568 282.008 196.225 281.609 195.971C281.195 195.713 280.752 195.584 280.279 195.584C279.576 195.584 278.961 195.852 278.434 196.387V195.643H277.496V202H278.434V198.76C278.434 198.143 278.613 197.615 278.973 197.178C279.336 196.74 279.771 196.521 280.279 196.521C280.787 196.521 281.221 196.74 281.58 197.178C281.943 197.619 282.125 198.148 282.125 198.766V202H283.062V198.766C283.062 198.148 283.242 197.619 283.602 197.178C283.961 196.74 284.395 196.521 284.902 196.521C285.414 196.521 285.85 196.74 286.209 197.178C286.568 197.619 286.748 198.148 286.748 198.766V202H287.686V198.766C287.686 197.887 287.414 197.137 286.871 196.516C286.328 195.895 285.672 195.584 284.902 195.584ZM291.793 195.578C290.91 195.578 290.156 195.895 289.531 196.527C288.91 197.164 288.6 197.93 288.6 198.824C288.6 199.715 288.91 200.479 289.531 201.115C290.156 201.748 290.91 202.064 291.793 202.064C292.668 202.064 293.418 201.748 294.043 201.115C294.664 200.479 294.975 199.715 294.975 198.824C294.975 197.93 294.664 197.164 294.043 196.527C293.418 195.895 292.668 195.578 291.793 195.578ZM291.793 201.109C291.176 201.109 290.648 200.885 290.211 200.436C289.773 199.99 289.555 199.453 289.555 198.824C289.555 198.195 289.773 197.656 290.211 197.207C290.648 196.758 291.176 196.533 291.793 196.533C292.406 196.533 292.932 196.758 293.369 197.207C293.803 197.656 294.02 198.195 294.02 198.824C294.02 199.453 293.803 199.99 293.369 200.436C292.932 200.885 292.406 201.109 291.793 201.109ZM298.859 195.578C298.098 195.578 297.438 195.861 296.879 196.428V195.643H295.941V202H296.879V198.754C296.879 198.137 297.072 197.609 297.459 197.172C297.846 196.734 298.312 196.516 298.859 196.516C299.402 196.516 299.867 196.734 300.254 197.172C300.641 197.613 300.834 198.143 300.834 198.76V202H301.771V198.76C301.771 197.881 301.488 197.131 300.922 196.51C300.352 195.889 299.664 195.578 298.859 195.578ZM304.514 193.445H303.576V195.643H302.656V196.58H303.576V202H304.514V196.58H305.434V195.643H304.514V193.445ZM309.289 195.566C308.527 195.566 307.867 195.85 307.309 196.416V193.451H306.371V202H307.309V198.742C307.309 198.125 307.502 197.598 307.889 197.16C308.275 196.723 308.742 196.504 309.289 196.504C309.832 196.504 310.297 196.723 310.684 197.16C311.07 197.602 311.264 198.131 311.264 198.748V202H312.201V198.748C312.201 197.869 311.918 197.119 311.352 196.498C310.781 195.877 310.094 195.566 309.289 195.566ZM315.154 196.533C315.436 196.533 315.678 196.623 315.881 196.803C316.08 196.979 316.18 197.191 316.18 197.441H317.135C317.135 196.93 316.941 196.49 316.555 196.123C316.168 195.76 315.701 195.578 315.154 195.578C314.607 195.578 314.141 195.76 313.754 196.123C313.367 196.49 313.174 196.93 313.174 197.441C313.174 198.02 313.385 198.463 313.807 198.771C314.049 198.951 314.453 199.119 315.02 199.275C315.473 199.4 315.771 199.516 315.916 199.621C316.092 199.746 316.18 199.941 316.18 200.207C316.18 200.457 316.08 200.67 315.881 200.846C315.678 201.021 315.436 201.109 315.154 201.109C314.873 201.109 314.631 201.021 314.428 200.846C314.229 200.67 314.129 200.457 314.129 200.207H313.174C313.174 200.719 313.367 201.156 313.754 201.52C314.141 201.883 314.607 202.064 315.154 202.064C315.701 202.064 316.168 201.883 316.555 201.52C316.941 201.156 317.135 200.719 317.135 200.207C317.135 199.621 316.924 199.172 316.502 198.859C316.256 198.68 315.848 198.51 315.277 198.35C314.828 198.229 314.533 198.117 314.393 198.016C314.217 197.891 314.129 197.699 314.129 197.441C314.129 197.191 314.229 196.979 314.428 196.803C314.631 196.623 314.873 196.533 315.154 196.533Z" fill="#140A2B"/>
<path d="M380.57 202H381.508V193.445H380.57V202ZM383.852 197.254V194.383H385.662C386.076 194.383 386.396 194.531 386.623 194.828C386.814 195.074 386.916 195.381 386.928 195.748C386.947 196.225 386.85 196.574 386.635 196.797C386.342 197.102 385.701 197.254 384.713 197.254H383.852ZM384.438 198.15L387.139 202H388.281L385.586 198.156C386.355 198.074 386.93 197.838 387.309 197.447C387.707 197.033 387.893 196.453 387.865 195.707C387.842 195.105 387.652 194.592 387.297 194.166C386.887 193.686 386.342 193.445 385.662 193.445H382.914V202H383.852V198.15H384.438ZM392.986 196.521L393.619 195.426V202H394.557V193.445H393.678L392.172 196.053L392.986 196.521ZM397.275 201.062L400.105 198.004C400.758 197.352 401.084 196.678 401.084 195.982C401.084 195.283 400.826 194.686 400.311 194.189C399.799 193.693 399.18 193.445 398.453 193.445C397.766 193.445 397.17 193.697 396.666 194.201C396.166 194.701 395.916 195.295 395.916 195.982V196.451H396.854V195.982C396.854 195.549 397.012 195.174 397.328 194.857C397.645 194.541 398.02 194.383 398.453 194.383C398.926 194.383 399.326 194.537 399.654 194.846C399.982 195.154 400.146 195.533 400.146 195.982C400.146 196.346 400.01 196.691 399.736 197.02L399.115 197.688L395.852 201.209V202H401.459V201.062H397.275ZM403.035 201.584L403.873 202L408.01 193.521L407.172 193.105L403.035 201.584ZM404.301 196.492C404.746 196.492 405.125 196.334 405.438 196.018C405.754 195.705 405.912 195.326 405.912 194.881C405.912 194.439 405.754 194.061 405.438 193.744C405.125 193.432 404.746 193.275 404.301 193.275C403.859 193.275 403.48 193.432 403.164 193.744C402.852 194.061 402.695 194.439 402.695 194.881C402.695 195.326 402.852 195.705 403.164 196.018C403.48 196.334 403.859 196.492 404.301 196.492ZM404.301 194.213C404.488 194.213 404.646 194.277 404.775 194.406C404.908 194.539 404.975 194.697 404.975 194.881C404.975 195.064 404.908 195.223 404.775 195.355C404.646 195.488 404.488 195.555 404.301 195.555C404.117 195.555 403.961 195.488 403.832 195.355C403.699 195.223 403.633 195.064 403.633 194.881C403.633 194.697 403.699 194.539 403.832 194.406C403.961 194.277 404.117 194.213 404.301 194.213ZM406.744 198.613C406.299 198.613 405.92 198.771 405.607 199.088C405.291 199.4 405.133 199.779 405.133 200.225C405.133 200.666 405.291 201.045 405.607 201.361C405.92 201.674 406.299 201.83 406.744 201.83C407.186 201.83 407.564 201.674 407.881 201.361C408.193 201.045 408.35 200.666 408.35 200.225C408.35 199.779 408.193 199.4 407.881 199.088C407.564 198.771 407.186 198.613 406.744 198.613ZM406.744 200.893C406.557 200.893 406.398 200.828 406.27 200.699C406.137 200.566 406.07 200.408 406.07 200.225C406.07 200.041 406.137 199.883 406.27 199.75C406.398 199.617 406.557 199.551 406.744 199.551C406.928 199.551 407.086 199.617 407.219 199.75C407.348 199.883 407.412 200.041 407.412 200.225C407.412 200.408 407.348 200.566 407.219 200.699C407.086 200.828 406.928 200.893 406.744 200.893Z" fill="#140A2B"/>
<rect opacity="0.5" x="262" y="179" width="147" height="1" fill="#C4C1CA"/>
<defs>
<filter id="filter0_d_4572_3348" x="0" y="172.133" width="408" height="321" filterUnits="userSpaceOnUse" color-interpolation-filters="sRGB">
<feFlood flood-opacity="0" result="BackgroundImageFix"/>
<feColorMatrix in="SourceAlpha" type="matrix" values="0 0 0 0 0 0 0 0 0 0 0 0 0 0 0 0 0 0 127 0" result="hardAlpha"/>
<feOffset dx="4" dy="11"/>
<feGaussianBlur stdDeviation="6"/>
<feComposite in2="hardAlpha" operator="out"/>
<feColorMatrix type="matrix" values="0 0 0 0 0 0 0 0 0 0 0 0 0 0 0 0 0 0 0.1 0"/>
<feBlend mode="normal" in2="BackgroundImageFix" result="effect1_dropShadow_4572_3348"/>
<feBlend mode="normal" in="SourceGraphic" in2="effect1_dropShadow_4572_3348" result="shape"/>
</filter>
<filter id="filter1_d_4572_3348" x="234" y="36" width="210" height="210" filterUnits="userSpaceOnUse" color-interpolation-filters="sRGB">
<feFlood flood-opacity="0" result="BackgroundImageFix"/>
<feColorMatrix in="SourceAlpha" type="matrix" values="0 0 0 0 0 0 0 0 0 0 0 0 0 0 0 0 0 0 127 0" result="hardAlpha"/>
<feOffset dx="4" dy="11"/>
<feGaussianBlur stdDeviation="6"/>
<feComposite in2="hardAlpha" operator="out"/>
<feColorMatrix type="matrix" values="0 0 0 0 0 0 0 0 0 0 0 0 0 0 0 0 0 0 0.1 0"/>
<feBlend mode="normal" in2="BackgroundImageFix" result="effect1_dropShadow_4572_3348"/>
<feBlend mode="normal" in="SourceGraphic" in2="effect1_dropShadow_4572_3348" result="shape"/>
</filter>
<filter id="filter2_d_4572_3348" x="444" y="36" width="210" height="210" filterUnits="userSpaceOnUse" color-interpolation-filters="sRGB">
<feFlood flood-opacity="0" result="BackgroundImageFix"/>
<feColorMatrix in="SourceAlpha" type="matrix" values="0 0 0 0 0 0 0 0 0 0 0 0 0 0 0 0 0 0 127 0" result="hardAlpha"/>
<feOffset dx="4" dy="11"/>
<feGaussianBlur stdDeviation="6"/>
<feComposite in2="hardAlpha" operator="out"/>
<feColorMatrix type="matrix" values="0 0 0 0 0 0 0 0 0 0 0 0 0 0 0 0 0 0 0.1 0"/>
<feBlend mode="normal" in2="BackgroundImageFix" result="effect1_dropShadow_4572_3348"/>
<feBlend mode="normal" in="SourceGraphic" in2="effect1_dropShadow_4572_3348" result="shape"/>
</filter>
<linearGradient id="paint0_linear_4572_3348" x1="33" y1="354.133" x2="123" y2="354.133" gradientUnits="userSpaceOnUse">
<stop stop-color="#5B2CD3"/>
<stop offset="1" stop-color="#37A3FF"/>
</linearGradient>
<linearGradient id="paint1_linear_4572_3348" x1="586" y1="130.5" x2="213" y2="130.5" gradientUnits="userSpaceOnUse">
<stop stop-color="#2B48F4"/>
<stop offset="1" stop-color="#34A5FF"/>
</linearGradient>
</defs>
</svg>
