<svg width="57" height="20" viewBox="0 0 57 20" fill="none" xmlns="http://www.w3.org/2000/svg">
<path d="M30.8516 6.67578C31.9102 6.67578 32.7363 7.12305 33.3301 8.01758L34.4785 7.25586C34.0723 6.64258 33.5488 6.16016 32.9082 5.80859C32.2715 5.46484 31.5859 5.29297 30.8516 5.29297C29.6523 5.29297 28.625 5.72656 27.7695 6.59375C26.918 7.46094 26.4922 8.50586 26.4922 9.72852C26.4922 10.9512 26.918 11.998 27.7695 12.8691C28.625 13.7363 29.6523 14.1699 30.8516 14.1699C31.582 14.1699 32.2676 13.9961 32.9082 13.6484C33.5488 13.3008 34.0723 12.8203 34.4785 12.207L33.3301 11.4395C32.7363 12.3379 31.9102 12.7871 30.8516 12.7871C30.0312 12.7871 29.332 12.4883 28.7539 11.8906C28.168 11.293 27.875 10.5723 27.875 9.72852C27.875 8.88867 28.168 8.16992 28.7539 7.57227C29.332 6.97461 30.0312 6.67578 30.8516 6.67578ZM38.6562 7.47852C37.7617 7.47852 36.998 7.80078 36.3652 8.44531C35.7324 9.08594 35.416 9.86133 35.416 10.7715C35.416 11.6816 35.7324 12.457 36.3652 13.0977C36.998 13.7422 37.7617 14.0645 38.6562 14.0645C39.5469 14.0645 40.3105 13.7422 40.9473 13.0977C41.5801 12.457 41.8965 11.6816 41.8965 10.7715C41.8965 9.86133 41.5801 9.08594 40.9473 8.44531C40.3105 7.80078 39.5469 7.47852 38.6562 7.47852ZM38.6562 12.7051C38.1367 12.7051 37.6914 12.5176 37.3203 12.1426C36.957 11.7637 36.7754 11.3066 36.7754 10.7715C36.7754 10.2363 36.957 9.7793 37.3203 9.40039C37.6914 9.02539 38.1367 8.83789 38.6562 8.83789C39.1719 8.83789 39.6152 9.02539 39.9863 9.40039C40.3535 9.7793 40.5371 10.2363 40.5371 10.7715C40.5371 11.3066 40.3535 11.7637 39.9863 12.1426C39.6152 12.5176 39.1719 12.7051 38.6562 12.7051ZM46.2207 7.45508C45.5254 7.45508 44.8965 7.66016 44.334 8.07031V7.54297H42.9805V16.168H44.334V13.4199C44.8965 13.834 45.5254 14.041 46.2207 14.041C47.1113 14.041 47.875 13.7188 48.5117 13.0742C49.1445 12.4336 49.4609 11.6582 49.4609 10.748C49.4609 9.8418 49.1445 9.06836 48.5117 8.42773C47.875 7.7793 47.1113 7.45508 46.2207 7.45508ZM46.2207 12.6875C45.6973 12.6875 45.252 12.498 44.8848 12.1191C44.5176 11.7402 44.334 11.2832 44.334 10.748C44.334 10.2168 44.5176 9.76172 44.8848 9.38281C45.252 9.00391 45.6973 8.81445 46.2207 8.81445C46.7363 8.81445 47.1777 9.00391 47.5449 9.38281C47.916 9.76172 48.1016 10.2168 48.1016 10.748C48.1016 11.2832 47.916 11.7402 47.5449 12.1191C47.1777 12.498 46.7363 12.6875 46.2207 12.6875ZM51.6992 7.54297H50.3398V10.5254C50.3398 11.3652 50.6328 12.082 51.2188 12.6758C51.8047 13.2695 52.5117 13.5664 53.3398 13.5664C53.9297 13.5664 54.4727 13.4023 54.9688 13.0742C54.9336 13.5625 54.7734 13.9707 54.4883 14.2988C54.1758 14.6582 53.8086 14.8379 53.3867 14.8379C53.0742 14.8379 52.7539 14.7246 52.4258 14.498C52.1406 14.2949 51.9258 14.0352 51.7812 13.7188L50.5098 14.2051C50.752 14.7793 51.1328 15.248 51.6523 15.6113C52.2148 16.002 52.793 16.1973 53.3867 16.1973C54.1719 16.1973 54.8555 15.8887 55.4375 15.2715C56.0195 14.6582 56.3184 13.8887 56.334 12.9629V7.54297H54.9746V10.373C54.9785 10.4238 54.9805 10.4746 54.9805 10.5254C54.9805 10.9902 54.8203 11.3887 54.5 11.7207C54.1797 12.0488 53.793 12.2129 53.3398 12.2129C52.8867 12.2129 52.5 12.0469 52.1797 11.7148C51.8594 11.3867 51.6992 10.9902 51.6992 10.5254V7.54297Z" fill="#5B2CD3"/>
<path d="M3.75 18.3124C3.41667 18.3124 3.125 18.1874 2.875 17.9374C2.625 17.6874 2.5 17.3958 2.5 17.0624V4.49992H3.75V17.0624H13.625V18.3124H3.75ZM6.25 15.8124C5.91667 15.8124 5.625 15.6874 5.375 15.4374C5.125 15.1874 5 14.8958 5 14.5624V2.89575C5 2.56242 5.125 2.27075 5.375 2.02075C5.625 1.77075 5.91667 1.64575 6.25 1.64575H15.4167C15.75 1.64575 16.0417 1.77075 16.2917 2.02075C16.5417 2.27075 16.6667 2.56242 16.6667 2.89575V14.5624C16.6667 14.8958 16.5417 15.1874 16.2917 15.4374C16.0417 15.6874 15.75 15.8124 15.4167 15.8124H6.25ZM6.25 14.5624H15.4167V2.89575H6.25V14.5624Z" fill="#5B2CD3"/>
</svg>
