<svg width="625" height="641" viewBox="0 0 625 641" fill="none" xmlns="http://www.w3.org/2000/svg">
<g opacity="0.1">
<path d="M76.3356 75.5721V-310.796C76.3356 -316.534 80.9285 -321.125 86.6271 -320.997C150.63 -319.68 497.435 -309.139 677.153 -231.61C680.895 -229.995 683.234 -226.297 683.234 -222.216V526.208C683.234 530.713 680.3 534.709 675.962 535.984C622.719 551.498 288.289 645.349 10.8019 640.843C5.23093 640.758 0.765625 636.125 0.765625 630.557V289.456C0.765625 284.101 4.80566 279.68 10.164 279.297C79.3975 274.537 511.809 242.658 648.277 180.771C656.442 177.074 656.485 165.555 648.235 162.069C598.393 141.072 441.087 89.7687 86.4995 85.6883C80.9285 85.6458 76.3356 81.0977 76.3356 75.5296V75.5721Z" fill="white"/>
</g>
</svg>
