<svg width="12" height="18" viewBox="0 0 12 18" fill="none" xmlns="http://www.w3.org/2000/svg">
<path d="M1.28004 7.50803V0.680316C1.28004 0.578914 1.35784 0.497792 1.45436 0.500046C2.53847 0.523331 8.41284 0.709609 11.457 2.07966C11.5204 2.1082 11.56 2.17355 11.56 2.24566V15.4714C11.56 15.5511 11.5103 15.6217 11.4368 15.6442C10.535 15.9184 4.87021 17.5768 0.17 17.4972C0.0756356 17.4957 0 17.4139 0 17.3155V11.2877C0 11.193 0.0684322 11.1149 0.159195 11.1082C1.33191 11.024 8.65631 10.4607 10.9679 9.36706C11.1062 9.30171 11.1069 9.09816 10.9672 9.03657C10.1229 8.66551 7.45839 7.75891 1.4522 7.6868C1.35784 7.68605 1.28004 7.60568 1.28004 7.50728V7.50803Z" fill="#8A8595"/>
</svg>
