<svg width="24" height="24" viewBox="0 0 24 24" fill="none" xmlns="http://www.w3.org/2000/svg">
<circle cx="12.423" cy="11.8586" r="11.2941" fill="#5B2CD3"/>
<g filter="url(#filter0_b_3950_13174)">
<rect width="24" height="24" rx="12" fill="url(#paint0_linear_3950_13174)" fill-opacity="0.24"/>
</g>
<g clip-path="url(#clip0_3950_13174)">
<path d="M11.8822 13.8273H12.4748V11.4569H11.8822V13.8273ZM12.1487 10.7261C12.241 10.7261 12.3184 10.6958 12.381 10.6352C12.4435 10.5746 12.4748 10.4996 12.4748 10.41C12.4748 10.3149 12.4436 10.2351 12.3811 10.1707C12.3187 10.1064 12.2413 10.0742 12.149 10.0742C12.0567 10.0742 11.9793 10.1064 11.9168 10.1707C11.8542 10.2351 11.8229 10.3149 11.8229 10.41C11.8229 10.4996 11.8542 10.5746 11.9166 10.6352C11.979 10.6958 12.0564 10.7261 12.1487 10.7261ZM12.1515 15.8026C11.6067 15.8026 11.0948 15.6989 10.6157 15.4915C10.1366 15.2841 9.71758 15.001 9.35874 14.6421C8.99989 14.2833 8.71676 13.864 8.50935 13.3844C8.30195 12.9048 8.19824 12.3924 8.19824 11.847C8.19824 11.3017 8.30195 10.7893 8.50935 10.3097C8.71676 9.83006 8.99989 9.41248 9.35874 9.05692C9.71758 8.70137 10.1368 8.41989 10.6164 8.21248C11.096 8.00507 11.6085 7.90137 12.1538 7.90137C12.6991 7.90137 13.2116 8.00507 13.6912 8.21248C14.1708 8.41989 14.5884 8.70137 14.9439 9.05692C15.2995 9.41248 15.581 9.83059 15.7884 10.3112C15.9958 10.7919 16.0995 11.3046 16.0995 11.8494C16.0995 12.3941 15.9958 12.906 15.7884 13.3852C15.581 13.8643 15.2995 14.2827 14.9439 14.6403C14.5884 14.9979 14.1703 15.2811 13.6896 15.4897C13.2089 15.6983 12.6962 15.8026 12.1515 15.8026ZM12.1538 15.21C13.0855 15.21 13.8773 14.8824 14.5291 14.2273C15.181 13.5721 15.5069 12.7787 15.5069 11.847C15.5069 10.9154 15.1816 10.1236 14.531 9.47174C13.8803 8.81989 13.0863 8.49396 12.1489 8.49396C11.2205 8.49396 10.4287 8.81927 9.77355 9.46988C9.11841 10.1205 8.79083 10.9145 8.79083 11.852C8.79083 12.7804 9.11841 13.5721 9.77355 14.2273C10.4287 14.8824 11.2221 15.21 12.1538 15.21Z" fill="white"/>
</g>
<defs>
<filter id="filter0_b_3950_13174" x="-24" y="-24" width="72" height="72" filterUnits="userSpaceOnUse" color-interpolation-filters="sRGB">
<feFlood flood-opacity="0" result="BackgroundImageFix"/>
<feGaussianBlur in="BackgroundImageFix" stdDeviation="12"/>
<feComposite in2="SourceAlpha" operator="in" result="effect1_backgroundBlur_3950_13174"/>
<feBlend mode="normal" in="SourceGraphic" in2="effect1_backgroundBlur_3950_13174" result="shape"/>
</filter>
<linearGradient id="paint0_linear_3950_13174" x1="15.3529" y1="3.35294" x2="20.8235" y2="18.8824" gradientUnits="userSpaceOnUse">
<stop stop-color="#2D59F6"/>
<stop offset="1" stop-color="#34A0FF" stop-opacity="0.4"/>
</linearGradient>
<clipPath id="clip0_3950_13174">
<rect width="9.48148" height="9.48148" fill="white" transform="translate(7.4082 7.11133)"/>
</clipPath>
</defs>
</svg>
