<svg width="12" height="14" viewBox="0 0 12 14" fill="none" xmlns="http://www.w3.org/2000/svg">
<path d="M1 13.6666C0.733333 13.6666 0.5 13.5666 0.3 13.3666C0.1 13.1666 0 12.9333 0 12.6666V2.33325C0 2.06659 0.1 1.83325 0.3 1.63325C0.5 1.43325 0.733333 1.33325 1 1.33325H2.08333V0.333252H3.16667V1.33325H8.83333V0.333252H9.91667V1.33325H11C11.2667 1.33325 11.5 1.43325 11.7 1.63325C11.9 1.83325 12 2.06659 12 2.33325V12.6666C12 12.9333 11.9 13.1666 11.7 13.3666C11.5 13.5666 11.2667 13.6666 11 13.6666H1ZM1 12.6666H11V5.49992H1V12.6666ZM1 4.49992H11V2.33325H1V4.49992Z" fill="#140A2B"/>
</svg>
