<svg width="35" height="48" viewBox="0 0 35 48" fill="none" xmlns="http://www.w3.org/2000/svg">
<path d="M3.7836 19.7874V0.509126C3.7836 0.222816 4.01355 -0.00623305 4.29887 0.000129412C7.50332 0.0658748 24.867 0.591838 33.865 4.46021C34.0524 4.54081 34.1695 4.72532 34.1695 4.92892V42.2723C34.1695 42.4971 34.0226 42.6965 33.8054 42.7601C31.1396 43.5342 14.3956 48.217 0.502492 47.9922C0.223567 47.9879 0 47.7568 0 47.4789V30.4593C0 30.1921 0.202275 29.9716 0.470554 29.9525C3.9369 29.7149 25.5867 28.1243 32.4193 25.0364C32.8281 24.8519 32.8302 24.2772 32.4172 24.1033C29.9217 23.0556 22.0458 20.4957 4.29248 20.2921C4.01355 20.29 3.7836 20.0631 3.7836 19.7853V19.7874Z" fill="white"/>
</svg>
