<svg width="16" height="16" viewBox="0 0 16 16" fill="none" xmlns="http://www.w3.org/2000/svg">
<path d="M3 12.9979H3.73333L11.1167 5.61458L10.3833 4.88125L3 12.2646V12.9979ZM13.2333 4.89792L11.1 2.76458L11.8 2.06458C11.9889 1.87569 12.2222 1.78125 12.5 1.78125C12.7778 1.78125 13.0111 1.87569 13.2 2.06458L13.9333 2.79792C14.1222 2.98681 14.2167 3.22014 14.2167 3.49792C14.2167 3.77569 14.1222 4.00903 13.9333 4.19792L13.2333 4.89792ZM12.5333 5.59792L4.13333 13.9979H2V11.8646L10.4 3.46458L12.5333 5.59792ZM10.75 5.24792L10.3833 4.88125L11.1167 5.61458L10.75 5.24792Z" fill="#5B2CD3"/>
</svg>
