<svg width="38" height="38" viewBox="0 0 38 38" fill="none" xmlns="http://www.w3.org/2000/svg">
<rect opacity="0.1" x="0.5" y="0.5" width="37" height="37" rx="18.5" fill="#5B2CD3" stroke="#5B2CD3"/>
<path d="M14 23.9979H14.7333L22.1167 16.6146L21.3833 15.8813L14 23.2646V23.9979ZM24.2333 15.8979L22.1 13.7646L22.8 13.0646C22.9889 12.8757 23.2222 12.7812 23.5 12.7812C23.7778 12.7812 24.0111 12.8757 24.2 13.0646L24.9333 13.7979C25.1222 13.9868 25.2167 14.2201 25.2167 14.4979C25.2167 14.7757 25.1222 15.009 24.9333 15.1979L24.2333 15.8979ZM23.5333 16.5979L15.1333 24.9979H13V22.8646L21.4 14.4646L23.5333 16.5979ZM21.75 16.2479L21.3833 15.8813L22.1167 16.6146L21.75 16.2479Z" fill="#5B2CD3"/>
</svg>
