<svg width="22" height="14" viewBox="0 0 22 14" fill="none" xmlns="http://www.w3.org/2000/svg">
<path d="M21.851 7.1083C22.0576 6.8254 22.0486 6.43923 21.8286 6.16531C18.5012 2.07456 14.9089 0 11.1459 0C4.76509 0 0.333068 5.94528 0.148961 6.19674C-0.0575967 6.47964 -0.0486159 6.86581 0.171413 7.13973C3.49431 11.235 7.08662 13.3095 10.8496 13.3095C17.2304 13.3095 21.6624 7.36425 21.851 7.1083ZM10.8496 11.7693C7.71528 11.7693 4.66181 10.045 1.76101 6.65028C2.89708 5.30765 6.50736 1.54021 11.1459 1.54021C14.2802 1.54021 17.3337 3.26452 20.2345 6.65926C19.0984 8.00188 15.4882 11.7693 10.8496 11.7693Z" fill="#181818"/>
<path d="M10.9977 2.74357C8.84231 2.74357 7.08657 4.49931 7.08657 6.6547C7.08657 8.81009 8.84231 10.5658 10.9977 10.5658C13.1531 10.5658 14.9088 8.81009 14.9088 6.6547C14.9088 4.49931 13.1531 2.74357 10.9977 2.74357ZM10.9977 9.02563C9.691 9.02563 8.62677 7.96141 8.62677 6.6547C8.62677 5.348 9.691 4.28377 10.9977 4.28377C12.3044 4.28377 13.3686 5.348 13.3686 6.6547C13.3686 7.96141 12.3044 9.02563 10.9977 9.02563Z" fill="#181818"/>
</svg>
