<svg width="16" height="16" viewBox="0 0 16 16" fill="none" xmlns="http://www.w3.org/2000/svg">
<path d="M1.097 14.656C1.02651 14.656 0.955388 14.6447 0.885218 14.6206C0.347032 14.436 -0.00858374 13.9401 0.000306641 13.3863C0.00602189 13.0464 0.289244 12.7629 0.645177 12.7805C0.995713 12.7857 1.27544 13.0655 1.27036 13.4057C1.26973 13.43 1.28528 13.4518 1.30878 13.4598C1.63931 13.5731 1.81268 13.925 1.69583 14.2454C1.60343 14.4981 1.35863 14.656 1.097 14.656Z" fill="#140A2B"/>
<path d="M0.635652 14.0115C0.628984 14.0115 0.622316 14.0115 0.615648 14.0112C0.265113 14.0007 -0.0104888 13.7166 0.000306624 13.3767L0.00189423 13.329C0.00411683 13.2505 0.00665698 13.1717 0.0117372 13.0935C0.111119 11.6188 0.638509 10.272 1.53707 9.19928C2.37848 8.19424 3.58345 7.46131 5.02179 7.0793C7.30566 6.47197 10.6357 6.39809 13.1317 8.01016C14.9317 9.26084 15.997 11.2694 15.9998 13.3952C16.0001 13.735 15.7163 14.0112 15.3658 14.0115C15.3654 14.0115 15.3651 14.0115 15.3648 14.0115C15.0143 14.0115 14.7301 13.7363 14.7298 13.3964C14.7275 11.6662 13.8601 10.031 12.4094 9.02259C10.6631 7.89534 7.8883 7.59367 5.35708 8.26627C4.15974 8.58455 3.20624 9.15926 2.52295 9.97499C1.79108 10.8486 1.36117 11.9546 1.27925 13.1736C1.27481 13.2373 1.2729 13.3007 1.27131 13.3644L1.26973 13.4149C1.25957 13.7483 0.977296 14.0115 0.635652 14.0115Z" fill="#140A2B"/>
<path d="M8.00007 16C5.97242 16 3.9451 15.6694 2.01525 15.0079L0.8849 14.6203C0.554368 14.5068 0.381006 14.1552 0.497851 13.8345C0.614696 13.5137 0.978567 13.3472 1.30846 13.4592L2.43881 13.8468C6.02513 15.0759 9.97532 15.0759 13.561 13.8468L14.6914 13.4592C15.0216 13.346 15.3851 13.5137 15.502 13.8345C15.6188 14.1552 15.4454 14.5068 15.1149 14.6203L13.9846 15.0079C12.055 15.6694 10.0277 16 8.00007 16Z" fill="#140A2B"/>
<path d="M14.9031 14.656C14.6415 14.656 14.3964 14.4981 14.3043 14.2454C14.1875 13.925 14.3608 13.5731 14.6914 13.4598C14.7148 13.4518 14.7304 13.4303 14.7298 13.4063C14.7237 13.0664 15.0035 12.786 15.3543 12.7805H15.3651C15.7109 12.7805 15.9938 13.0495 15.9998 13.386C16.009 13.9397 15.6537 14.4363 15.1149 14.621C15.0451 14.6447 14.9736 14.656 14.9031 14.656Z" fill="#140A2B"/>
<path d="M8.01658 7.94275C6.58332 7.94275 5.23389 7.21044 4.49503 6.03148C3.60504 4.6118 3.74602 2.72484 4.83731 1.44246C5.60633 0.539305 6.79542 0 8.01848 0C8.49666 0 8.96467 0.0800338 9.40951 0.237947C11.018 0.808958 12.0992 2.30898 12.0992 3.97029C12.0992 5.84986 10.7224 7.48717 8.82592 7.86333C8.56048 7.91596 8.28837 7.94275 8.01658 7.94275ZM8.01848 1.23129C7.17008 1.23129 6.34741 1.60314 5.81716 2.22586C5.06402 3.11085 4.96654 4.41264 5.58029 5.39182C6.09022 6.2057 7.02403 6.71115 8.01658 6.71115C8.20296 6.71115 8.38966 6.69299 8.57096 6.65697C9.85847 6.40148 10.8288 5.24653 10.8288 3.97029C10.8288 2.84151 10.0655 1.78198 8.97261 1.39413C8.66811 1.28608 8.34743 1.23129 8.01848 1.23129Z" fill="#140A2B"/>
</svg>
