<svg width="14" height="16" viewBox="0 0 14 16" fill="none" xmlns="http://www.w3.org/2000/svg">
<path d="M10.517 5.98324C10.1772 5.98324 9.90145 5.70747 9.90145 5.36768V3.96882C9.90145 2.76786 9.06398 1.65832 7.91042 1.33084C6.66206 0.977199 5.28228 1.58476 4.70427 2.74786C4.55285 3.05256 4.18351 3.17598 3.87881 3.02486C3.57441 2.87343 3.45038 2.5041 3.60181 2.19939C4.43958 0.514606 6.43708 -0.368107 8.24682 0.146194C9.94607 0.628485 11.1326 2.20032 11.1326 3.96851V5.36737C11.1326 5.70778 10.8571 5.98324 10.517 5.98324Z" fill="#140A2B"/>
<path d="M7.15943 13.2862C6.81965 13.2862 6.54387 13.0105 6.54387 12.6707V10.5442C6.54387 10.2044 6.81965 9.92867 7.15943 9.92867C7.49922 9.92867 7.77499 10.2044 7.77499 10.5442V12.6707C7.77499 13.0105 7.49922 13.2862 7.15943 13.2862Z" fill="#140A2B"/>
<path d="M7.15943 11.1595C6.14099 11.1595 5.31275 10.3312 5.31275 9.3128C5.31275 8.29436 6.14099 7.46612 7.15943 7.46612C8.17788 7.46612 9.00611 8.29436 9.00611 9.3128C9.00611 10.3312 8.17788 11.1595 7.15943 11.1595ZM7.15943 8.69724C6.8258 8.69724 6.54387 8.97917 6.54387 9.3128C6.54387 9.64644 6.8258 9.92836 7.15943 9.92836C7.49307 9.92836 7.77499 9.64644 7.77499 9.3128C7.77499 8.97917 7.49307 8.69724 7.15943 8.69724Z" fill="#140A2B"/>
<path d="M1.11556 15.3847C0.775771 15.3847 0.5 15.1089 0.5 14.7691V5.98324C0.5 5.64345 0.775771 5.36768 1.11556 5.36768C1.45535 5.36768 1.73112 5.64345 1.73112 5.98324V14.7691C1.73112 15.1089 1.45566 15.3847 1.11556 15.3847Z" fill="#140A2B"/>
<path d="M13.203 15.3847C12.8632 15.3847 12.5874 15.1089 12.5874 14.7691V5.98324C12.5874 5.64345 12.8632 5.36768 13.203 5.36768C13.5428 5.36768 13.8186 5.64345 13.8186 5.98324V14.7691C13.8186 15.1089 13.5428 15.3847 13.203 15.3847Z" fill="#140A2B"/>
<path d="M1.11525 6.5988C0.775463 6.5988 0.5 6.32303 0.5 5.98324C0.5 5.30428 1.05216 4.75212 1.73112 4.75212C2.07091 4.75212 2.34668 5.02789 2.34668 5.36768C2.34668 5.70747 2.07091 5.98324 1.73112 5.98324H1.7305C1.7305 6.32334 1.45535 6.5988 1.11525 6.5988Z" fill="#140A2B"/>
<path d="M12.5874 5.98324H1.73112C1.39133 5.98324 1.11556 5.70747 1.11556 5.36768C1.11556 5.02789 1.39133 4.75212 1.73112 4.75212H12.5871C12.9269 4.75212 13.2027 5.02789 13.2027 5.36768C13.2027 5.70747 12.9272 5.98324 12.5874 5.98324Z" fill="#140A2B"/>
<path d="M13.203 6.5988C12.8632 6.5988 12.5874 6.32303 12.5874 5.98324V5.98232C12.2477 5.98232 11.9719 5.70716 11.9719 5.36737C11.9719 5.02758 12.2477 4.75212 12.5874 4.75212C13.2664 4.75212 13.8186 5.30428 13.8186 5.98324C13.8186 6.32334 13.5428 6.5988 13.203 6.5988Z" fill="#140A2B"/>
<path d="M12.5874 16.0002C12.2477 16.0002 11.9719 15.7245 11.9719 15.3847C11.9719 15.0449 12.2477 14.7691 12.5874 14.7691H12.5881C12.5881 14.4293 12.8632 14.1536 13.2033 14.1536C13.5431 14.1536 13.8186 14.4293 13.8186 14.7691C13.8186 15.4481 13.2661 16.0002 12.5874 16.0002Z" fill="#140A2B"/>
<path d="M12.5874 16.0002H1.73112C1.39133 16.0002 1.11556 15.7245 1.11556 15.3847C1.11556 15.0449 1.39133 14.7691 1.73112 14.7691H12.5871C12.9269 14.7691 13.2027 15.0449 13.2027 15.3847C13.2027 15.7245 12.9272 16.0002 12.5874 16.0002Z" fill="#140A2B"/>
<path d="M1.73112 16.0002C1.05216 16.0002 0.5 15.4481 0.5 14.7691C0.5 14.4293 0.775771 14.1536 1.11556 14.1536C1.45535 14.1536 1.73112 14.4293 1.73112 14.7691V14.77C2.07091 14.77 2.34668 15.0452 2.34668 15.385C2.34668 15.7248 2.07122 16.0002 1.73112 16.0002Z" fill="#140A2B"/>
</svg>
