<svg width="16" height="18" viewBox="0 0 16 18" fill="none" xmlns="http://www.w3.org/2000/svg">
<path d="M8.66807 8.31507L11.5306 5.46133L2.28464 0.280788C1.67185 -0.0492689 1.09779 -0.0955925 0.594393 0.265347L8.66807 8.31507ZM12.0186 11.6562L14.9944 9.98756C15.5752 9.66329 15.8937 9.20391 15.8937 8.69435C15.8937 8.18575 15.5752 7.72541 14.9954 7.40114L12.3012 5.89272L9.26828 8.91535L12.0186 11.6562ZM0.0968066 0.96696C0.0348503 1.15708 0 1.3694 0 1.60198V15.7935C0 16.1612 0.0813177 16.4777 0.228464 16.7296L8.0669 8.91439L0.0968066 0.96696ZM8.66807 9.51274L0.873196 17.2845C1.02228 17.3415 1.18298 17.3714 1.35239 17.3714C1.65443 17.3714 1.96905 17.2826 2.28948 17.105L11.2489 12.0895L8.66807 9.51274Z" fill="#140A2B"/>
</svg>
