<svg width="55" height="55" viewBox="0 0 55 55" fill="none" xmlns="http://www.w3.org/2000/svg">
<rect opacity="0.1" width="55" height="55" rx="27.5" fill="#73DCFA"/>
<path d="M21.5711 26.2447V18.2121C21.5711 18.0928 21.6666 17.9974 21.7851 18.0001C23.1157 18.0274 30.3258 18.2466 34.0621 19.8584C34.1399 19.892 34.1885 19.9689 34.1885 20.0537V35.6135C34.1885 35.7071 34.1275 35.7902 34.0373 35.8167C32.9304 36.1393 25.9776 38.0904 20.2087 37.9967C20.0928 37.995 20 37.8986 20 37.7829V30.6914C20 30.5801 20.084 30.4881 20.1954 30.4802C21.6348 30.3812 30.6246 29.7185 33.4618 28.4318C33.6315 28.355 33.6324 28.1155 33.4609 28.043C32.4247 27.6065 29.1543 26.5399 21.7824 26.4551C21.6666 26.4542 21.5711 26.3596 21.5711 26.2439V26.2447Z" fill="#73DCFA"/>
</svg>
