<svg width="44" height="44" viewBox="0 0 44 44" fill="none" xmlns="http://www.w3.org/2000/svg">
<circle cx="23.0004" cy="22.0004" r="20.0004" fill="url(#paint0_linear_3039_3166)"/>
<g filter="url(#filter0_b_3039_3166)">
<rect x="1" y="1" width="42.5009" height="42.5009" rx="12" fill="url(#paint1_linear_3039_3166)" fill-opacity="0.24"/>
<rect x="1" y="1" width="42.5009" height="42.5009" rx="12" stroke="url(#paint2_linear_3039_3166)" stroke-width="0.5" stroke-linecap="round" stroke-linejoin="round"/>
</g>
<path d="M21.459 19.9375L26.1465 24.625L21.459 29.3125" stroke="white" stroke-width="2" stroke-linecap="round" stroke-linejoin="round"/>
<path d="M31.875 21.207V15.6875C31.875 14.5829 30.9796 13.6875 29.875 13.6875H15.125C14.0204 13.6875 13.125 14.5829 13.125 15.6875V22.625C13.125 23.7296 14.0204 24.625 15.125 24.625H23.6719" stroke="white" stroke-width="2" stroke-linecap="round"/>
<defs>
<filter id="filter0_b_3039_3166" x="-23.25" y="-23.25" width="91.001" height="91.001" filterUnits="userSpaceOnUse" color-interpolation-filters="sRGB">
<feFlood flood-opacity="0" result="BackgroundImageFix"/>
<feGaussianBlur in="BackgroundImageFix" stdDeviation="12"/>
<feComposite in2="SourceAlpha" operator="in" result="effect1_backgroundBlur_3039_3166"/>
<feBlend mode="normal" in="SourceGraphic" in2="effect1_backgroundBlur_3039_3166" result="shape"/>
</filter>
<linearGradient id="paint0_linear_3039_3166" x1="32.5099" y1="11.566" x2="33.0063" y2="40.9058" gradientUnits="userSpaceOnUse">
<stop stop-color="#5B2CD3"/>
<stop offset="1" stop-color="#2B48F4"/>
</linearGradient>
<linearGradient id="paint1_linear_3039_3166" x1="28.1881" y1="6.93763" x2="37.8758" y2="34.4382" gradientUnits="userSpaceOnUse">
<stop stop-color="#2D59F6"/>
<stop offset="1" stop-color="#34A0FF" stop-opacity="0.4"/>
</linearGradient>
<linearGradient id="paint2_linear_3039_3166" x1="3.27069" y1="4.07694" x2="35.9796" y2="44.5987" gradientUnits="userSpaceOnUse">
<stop stop-color="white" stop-opacity="0.25"/>
<stop offset="1" stop-color="white" stop-opacity="0"/>
</linearGradient>
</defs>
</svg>
