<svg width="12" height="12" viewBox="0 0 12 12" fill="none" xmlns="http://www.w3.org/2000/svg">
<path d="M5.98767 11.4334C4.48332 11.4334 3.20173 10.904 2.14292 9.84519C1.0841 8.78637 0.554688 7.50512 0.554688 6.00143C0.554688 4.49774 1.0841 3.21549 2.14292 2.15469C3.20173 1.09388 4.48332 0.563477 5.98767 0.563477C6.94805 0.563477 7.79096 0.758099 8.5164 1.14734C9.24186 1.53659 9.86996 2.07192 10.4007 2.75334V0.563477H11.4485V4.94428H7.06375V3.90044H9.8478C9.42292 3.24441 8.88803 2.71415 8.2431 2.30968C7.59817 1.90521 6.84636 1.70298 5.98767 1.70298C4.78652 1.70298 3.76998 2.11887 2.93807 2.95064C2.10616 3.78242 1.6902 4.79879 1.6902 5.99974C1.6902 7.20069 2.10617 8.21729 2.9381 9.04954C3.77004 9.88179 4.78659 10.2979 5.98777 10.2979C6.89664 10.2979 7.73108 10.0373 8.4911 9.51621C9.25113 8.99507 9.78246 8.30648 10.0851 7.45044H11.258C10.9331 8.64368 10.2832 9.60582 9.30839 10.3369C8.33355 11.0679 7.22665 11.4334 5.98767 11.4334Z" fill="#5B2CD3"/>
</svg>
