<svg width="83" height="83" viewBox="0 0 83 83" fill="none" xmlns="http://www.w3.org/2000/svg">
<circle cx="42.9301" cy="41.0239" r="38.1176" fill="#ED615C"/>
<g filter="url(#filter0_b_3950_12666)">
<rect x="1" y="1" width="81" height="81" rx="20" fill="url(#paint0_linear_3950_12666)" fill-opacity="0.24"/>
<rect x="1" y="1" width="81" height="81" rx="20" stroke="url(#paint1_linear_3950_12666)" stroke-width="0.5" stroke-linecap="round" stroke-linejoin="round"/>
</g>
<path d="M32 54C31.4667 54 31 53.8 30.6 53.4C30.2 53 30 52.5333 30 52V32C30 31.4667 30.2 31 30.6 30.6C31 30.2 31.4667 30 32 30H41.7V32H32V52H41.7V54H32ZM48.2 47.8333L46.7667 46.4L50.1667 43H38.5V41H50.1L46.7 37.6L48.1333 36.1667L54 42.0333L48.2 47.8333Z" fill="white"/>
<defs>
<filter id="filter0_b_3950_12666" x="-23.25" y="-23.25" width="129.5" height="129.5" filterUnits="userSpaceOnUse" color-interpolation-filters="sRGB">
<feFlood flood-opacity="0" result="BackgroundImageFix"/>
<feGaussianBlur in="BackgroundImageFix" stdDeviation="12"/>
<feComposite in2="SourceAlpha" operator="in" result="effect1_backgroundBlur_3950_12666"/>
<feBlend mode="normal" in="SourceGraphic" in2="effect1_backgroundBlur_3950_12666" result="shape"/>
</filter>
<linearGradient id="paint0_linear_3950_12666" x1="52.8162" y1="12.3162" x2="71.2794" y2="64.7279" gradientUnits="userSpaceOnUse">
<stop stop-color="#2D59F6"/>
<stop offset="1" stop-color="#34A0FF" stop-opacity="0.4"/>
</linearGradient>
<linearGradient id="paint1_linear_3950_12666" x1="5.32758" y1="6.86416" x2="67.6657" y2="84.0921" gradientUnits="userSpaceOnUse">
<stop stop-color="white" stop-opacity="0.25"/>
<stop offset="1" stop-color="white" stop-opacity="0"/>
</linearGradient>
</defs>
</svg>
