<svg width="24" height="24" viewBox="0 0 24 24" fill="none" xmlns="http://www.w3.org/2000/svg">
<rect width="24" height="24" rx="12" fill="#C4C1CA" fill-opacity="0.15"/>
<path d="M8.68576 15.8974L8.79183 16.0035L8.8979 15.8974L12.0002 12.7951L15.1024 15.8974L15.2085 16.0035L15.3146 15.8974L15.8979 15.3141L16.004 15.208L15.8979 15.1019L12.7956 11.9997L15.8979 8.89741L16.004 8.79134L15.8979 8.68528L15.3146 8.10194L15.2085 7.99588L15.1024 8.10194L12.0002 11.2042L8.8979 8.10194L8.79183 7.99588L8.68576 8.10194L8.10243 8.68528L7.99636 8.79134L8.10243 8.89741L11.2047 11.9997L8.10243 15.1019L7.99636 15.208L8.10243 15.3141L8.68576 15.8974Z" fill="#140A2B" stroke="#140A2B" stroke-width="0.3"/>
</svg>
