<svg width="18" height="18" viewBox="0 0 18 18" fill="none" xmlns="http://www.w3.org/2000/svg">
<path d="M8.39518 14.9795H9.54101V13.8962C10.3882 13.7989 11.048 13.5385 11.5202 13.1149C11.9924 12.6913 12.2285 12.1253 12.2285 11.417C12.2285 10.7087 12.0271 10.1323 11.6243 9.68783C11.2216 9.24338 10.541 8.81977 9.58268 8.41699C8.77713 8.08366 8.19379 7.78505 7.83268 7.52116C7.47157 7.25727 7.29102 6.9031 7.29102 6.45866C7.29102 6.0281 7.44727 5.68783 7.75977 5.43783C8.07227 5.18783 8.49935 5.06283 9.04101 5.06283C9.45768 5.06283 9.81879 5.16005 10.1243 5.35449C10.4299 5.54894 10.6868 5.8406 10.8952 6.22949L11.8952 5.75033C11.6591 5.26421 11.3466 4.88227 10.9577 4.60449C10.5688 4.32671 10.1105 4.16005 9.58268 4.10449V3.04199H8.43685V4.10449C7.72852 4.20171 7.16949 4.46213 6.75977 4.88574C6.35004 5.30935 6.14518 5.83366 6.14518 6.45866C6.14518 7.13921 6.35352 7.68088 6.77018 8.08366C7.18685 8.48644 7.81185 8.86144 8.64518 9.20866C9.57574 9.59755 10.2146 9.94824 10.5618 10.2607C10.9091 10.5732 11.0827 10.9587 11.0827 11.417C11.0827 11.8614 10.8987 12.2191 10.5306 12.4899C10.1625 12.7607 9.70074 12.8962 9.14518 12.8962C8.60352 12.8962 8.12088 12.7434 7.69727 12.4378C7.27365 12.1323 6.97852 11.7156 6.81185 11.1878L5.74935 11.542C6.04102 12.1809 6.39865 12.6844 6.82227 13.0524C7.24588 13.4205 7.77018 13.6878 8.39518 13.8545V14.9795ZM8.99935 17.3337C7.86046 17.3337 6.78407 17.1149 5.77018 16.6774C4.75629 16.2399 3.87088 15.6427 3.11393 14.8857C2.35699 14.1288 1.75977 13.2434 1.32227 12.2295C0.884766 11.2156 0.666016 10.1392 0.666016 9.00033C0.666016 7.84755 0.884766 6.76421 1.32227 5.75033C1.75977 4.73644 2.35699 3.85449 3.11393 3.10449C3.87088 2.35449 4.75629 1.76074 5.77018 1.32324C6.78407 0.885742 7.86046 0.666992 8.99935 0.666992C10.1521 0.666992 11.2355 0.885742 12.2493 1.32324C13.2632 1.76074 14.1452 2.35449 14.8952 3.10449C15.6452 3.85449 16.2389 4.73644 16.6764 5.75033C17.1139 6.76421 17.3327 7.84755 17.3327 9.00033C17.3327 10.1392 17.1139 11.2156 16.6764 12.2295C16.2389 13.2434 15.6452 14.1288 14.8952 14.8857C14.1452 15.6427 13.2632 16.2399 12.2493 16.6774C11.2355 17.1149 10.1521 17.3337 8.99935 17.3337ZM8.99935 16.0837C10.9716 16.0837 12.6452 15.3927 14.0202 14.0107C15.3952 12.6288 16.0827 10.9587 16.0827 9.00033C16.0827 7.0281 15.3952 5.35449 14.0202 3.97949C12.6452 2.60449 10.9716 1.91699 8.99935 1.91699C7.04102 1.91699 5.37088 2.60449 3.98893 3.97949C2.60699 5.35449 1.91602 7.0281 1.91602 9.00033C1.91602 10.9587 2.60699 12.6288 3.98893 14.0107C5.37088 15.3927 7.04102 16.0837 8.99935 16.0837Z" fill="#8A8595"/>
</svg>
