<svg width="96" height="94" viewBox="0 0 96 94" fill="none" xmlns="http://www.w3.org/2000/svg">
<circle cx="60.8213" cy="34.1827" r="34.1827" fill="url(#paint0_linear_3039_1096)"/>
<g filter="url(#filter0_b_3039_1096)">
<rect x="1" y="20.9998" width="72.6382" height="72.6382" rx="16" fill="url(#paint1_linear_3039_1096)" fill-opacity="0.24"/>
<rect x="1" y="20.9998" width="72.6382" height="72.6382" rx="16" stroke="url(#paint2_linear_3039_1096)" stroke-width="0.5" stroke-linecap="round" stroke-linejoin="round"/>
</g>
<path d="M29.3567 55.3671V43.3182C29.3567 43.1393 29.4999 42.9961 29.6776 43.0001C31.6735 43.0412 42.4886 43.3699 48.0932 45.7876C48.2099 45.838 48.2828 45.9533 48.2828 46.0806V69.4202C48.2828 69.5607 48.1913 69.6853 48.056 69.7251C46.3956 70.2089 35.9664 73.1356 27.313 72.9951C27.1393 72.9925 27 72.848 27 72.6743V62.0371C27 61.8701 27.126 61.7322 27.2931 61.7203C29.4521 61.5718 42.9369 60.5777 47.1927 58.6478C47.4473 58.5324 47.4486 58.1732 47.1913 58.0645C45.637 57.4097 40.7314 55.8098 29.6736 55.6826C29.4999 55.6813 29.3567 55.5394 29.3567 55.3658V55.3671Z" fill="white"/>
<defs>
<filter id="filter0_b_3039_1096" x="-23.25" y="-3.25024" width="121.138" height="121.138" filterUnits="userSpaceOnUse" color-interpolation-filters="sRGB">
<feFlood flood-opacity="0" result="BackgroundImageFix"/>
<feGaussianBlur in="BackgroundImageFix" stdDeviation="12"/>
<feComposite in2="SourceAlpha" operator="in" result="effect1_backgroundBlur_3039_1096"/>
<feBlend mode="normal" in="SourceGraphic" in2="effect1_backgroundBlur_3039_1096" result="shape"/>
</filter>
<linearGradient id="paint0_linear_3039_1096" x1="95.004" y1="34.1826" x2="26.6387" y2="34.1826" gradientUnits="userSpaceOnUse">
<stop stop-color="#2B48F4"/>
<stop offset="1" stop-color="#34A5FF"/>
</linearGradient>
<linearGradient id="paint1_linear_3039_1096" x1="47.4671" y1="31.1477" x2="64.0243" y2="78.1489" gradientUnits="userSpaceOnUse">
<stop stop-color="#2D59F6"/>
<stop offset="1" stop-color="#34A0FF" stop-opacity="0.4"/>
</linearGradient>
<linearGradient id="paint2_linear_3039_1096" x1="4.88083" y1="26.2585" x2="60.7836" y2="95.5141" gradientUnits="userSpaceOnUse">
<stop stop-color="white" stop-opacity="0.25"/>
<stop offset="1" stop-color="white" stop-opacity="0"/>
</linearGradient>
</defs>
</svg>
