<svg width="28" height="29" viewBox="0 0 28 29" fill="none" xmlns="http://www.w3.org/2000/svg">
<rect x="0.75" y="1.3125" width="26.5" height="26.5" rx="13.25" fill="url(#paint0_linear_3089_1296)" stroke="white" stroke-width="1.5"/>
<path d="M9 19.5604H9.73333L17.1167 12.1771L16.3833 11.4438L9 18.8271V19.5604ZM19.2333 11.4604L17.1 9.32708L17.8 8.62708C17.9889 8.43819 18.2222 8.34375 18.5 8.34375C18.7778 8.34375 19.0111 8.43819 19.2 8.62708L19.9333 9.36042C20.1222 9.54931 20.2167 9.78264 20.2167 10.0604C20.2167 10.3382 20.1222 10.5715 19.9333 10.7604L19.2333 11.4604ZM18.5333 12.1604L10.1333 20.5604H8V18.4271L16.4 10.0271L18.5333 12.1604ZM16.75 11.8104L16.3833 11.4438L17.1167 12.1771L16.75 11.8104Z" fill="white"/>
<defs>
<linearGradient id="paint0_linear_3089_1296" x1="28" y1="14.5625" x2="1.69837e-07" y2="14.5625" gradientUnits="userSpaceOnUse">
<stop stop-color="#2B48F4"/>
<stop offset="1" stop-color="#34A5FF"/>
</linearGradient>
</defs>
</svg>
