<svg width="16" height="16" viewBox="0 0 16 16" fill="none" xmlns="http://www.w3.org/2000/svg">
<path d="M1.85545 13.1961C2.68879 12.4497 3.61485 11.8487 4.63364 11.3931C5.65243 10.9375 6.77365 10.7097 7.99731 10.7097C9.22097 10.7097 10.3429 10.9336 11.3631 11.3813C12.3834 11.8291 13.3102 12.4262 14.1435 13.1725V1.85551H1.85545V13.1961ZM8.0397 9.40534C8.86977 9.40534 9.56847 9.12214 10.1358 8.55575C10.7031 7.98938 10.9868 7.29116 10.9868 6.46111C10.9868 5.63104 10.7036 4.9343 10.1372 4.3709C9.57085 3.8075 8.87263 3.5258 8.04258 3.5258C7.21251 3.5258 6.51381 3.80703 5.94647 4.36948C5.37915 4.93193 5.0955 5.62819 5.0955 6.45826C5.0955 7.28831 5.37868 7.987 5.94506 8.55434C6.51143 9.12167 7.20965 9.40534 8.0397 9.40534ZM1.85545 15.7939C1.40397 15.7939 1.01604 15.6317 0.691662 15.3073C0.367273 14.983 0.205078 14.595 0.205078 14.1435V1.85551C0.205078 1.40078 0.367273 1.01007 0.691662 0.68338C1.01604 0.3567 1.40397 0.193359 1.85545 0.193359H14.1435C14.5982 0.193359 14.9889 0.3567 15.3156 0.68338C15.6423 1.01007 15.8056 1.40078 15.8056 1.85551V14.1435C15.8056 14.595 15.6423 14.983 15.3156 15.3073C14.9889 15.6317 14.5982 15.7939 14.1435 15.7939H1.85545ZM2.89531 14.1435H13.1036V14.0149C12.3536 13.376 11.5481 12.8973 10.687 12.5788C9.82586 12.2602 8.93003 12.101 7.99947 12.101C7.06892 12.101 6.17309 12.2602 5.31197 12.5788C4.45086 12.8973 3.64531 13.376 2.89531 14.0149V14.1435ZM8.03699 8.0258C7.60406 8.0258 7.23747 7.87347 6.9372 7.56882C6.63692 7.26415 6.48679 6.89421 6.48679 6.45898C6.48679 6.02376 6.63831 5.65601 6.94135 5.35573C7.24439 5.05547 7.61237 4.90534 8.04529 4.90534C8.47822 4.90534 8.84481 5.05686 9.14508 5.3599C9.44536 5.66294 9.5955 6.03092 9.5955 6.46384C9.5955 6.89675 9.44397 7.26531 9.14093 7.56951C8.83789 7.8737 8.46991 8.0258 8.03699 8.0258Z" fill="#8A8595"/>
</svg>
