<svg width="44" height="44" viewBox="0 0 44 44" fill="none" xmlns="http://www.w3.org/2000/svg">
<circle cx="22.0004" cy="22.0004" r="20.0004" fill="url(#paint0_linear_3039_3077)"/>
<g filter="url(#filter0_b_3039_3077)">
<rect x="1" y="1" width="42.5009" height="42.5009" rx="12" fill="url(#paint1_linear_3039_3077)" fill-opacity="0.24"/>
<rect x="1" y="1" width="42.5009" height="42.5009" rx="12" stroke="url(#paint2_linear_3039_3077)" stroke-width="0.5" stroke-linecap="round" stroke-linejoin="round"/>
</g>
<path d="M22.2611 25.3337H22.9559V24.567C23.4031 24.5031 23.7824 24.3194 24.0939 24.016C24.4053 23.7125 24.5611 23.3212 24.5611 22.842C24.5611 22.4267 24.4013 22.0793 24.0819 21.7998C23.7625 21.5203 23.3951 21.2927 22.9798 21.117V19.3441C23.1395 19.392 23.2713 19.4719 23.3751 19.5837C23.4789 19.6955 23.5548 19.8312 23.6027 19.991L24.4652 19.6316C24.3534 19.2962 24.1618 19.0286 23.8902 18.829C23.6187 18.6293 23.3152 18.4975 22.9798 18.4337V17.667H22.2611V18.4097C21.8138 18.4576 21.4345 18.6213 21.123 18.9008C20.8116 19.1804 20.6559 19.5517 20.6559 20.0149C20.6559 20.4462 20.8196 20.8055 21.147 21.093C21.4744 21.3805 21.8458 21.6121 22.2611 21.7878V23.6805C22.0055 23.6007 21.7899 23.4649 21.6142 23.2732C21.4385 23.0816 21.3187 22.858 21.2548 22.6024L20.4163 22.9618C20.5441 23.409 20.7677 23.7764 21.0871 24.0639C21.4066 24.3514 21.7979 24.5271 22.2611 24.591V25.3337ZM22.9798 23.6566V22.0753C23.1555 22.1552 23.3112 22.251 23.447 22.3628C23.5828 22.4746 23.6507 22.6423 23.6507 22.866C23.6507 23.1215 23.5868 23.3012 23.459 23.405C23.3312 23.5088 23.1715 23.5927 22.9798 23.6566ZM22.2611 20.8055C22.0854 20.7257 21.9256 20.6298 21.7819 20.518C21.6382 20.4062 21.5663 20.2385 21.5663 20.0149C21.5663 19.7913 21.6382 19.6276 21.7819 19.5238C21.9256 19.4199 22.0854 19.3521 22.2611 19.3201V20.8055ZM18.6673 28.2087C16.7986 28.2087 15.2133 27.5578 13.9116 26.2561C12.6099 24.9543 11.959 23.3691 11.959 21.5003C11.959 19.6316 12.6099 18.0463 13.9116 16.7446C15.2133 15.4429 16.7986 14.792 18.6673 14.792H26.334C28.2027 14.792 29.788 15.4429 31.0897 16.7446C32.3914 18.0463 33.0423 19.6316 33.0423 21.5003C33.0423 23.3691 32.3914 24.9543 31.0897 26.2561C29.788 27.5578 28.2027 28.2087 26.334 28.2087H18.6673ZM18.6673 26.7712H26.334C27.7922 26.7712 29.0353 26.2577 30.0631 25.2309C31.0909 24.2041 31.6048 22.9623 31.6048 21.5054C31.6048 20.0485 31.0909 18.805 30.0631 17.7748C29.0353 16.7446 27.7922 16.2295 26.334 16.2295H18.6673C17.2091 16.2295 15.966 16.7429 14.9382 17.7697C13.9104 18.7965 13.3965 20.0384 13.3965 21.4952C13.3965 22.9521 13.9104 24.1956 14.9382 25.2258C15.966 26.2561 17.2091 26.7712 18.6673 26.7712Z" fill="white"/>
<defs>
<filter id="filter0_b_3039_3077" x="-23.25" y="-23.25" width="91.001" height="91.001" filterUnits="userSpaceOnUse" color-interpolation-filters="sRGB">
<feFlood flood-opacity="0" result="BackgroundImageFix"/>
<feGaussianBlur in="BackgroundImageFix" stdDeviation="12"/>
<feComposite in2="SourceAlpha" operator="in" result="effect1_backgroundBlur_3039_3077"/>
<feBlend mode="normal" in="SourceGraphic" in2="effect1_backgroundBlur_3039_3077" result="shape"/>
</filter>
<linearGradient id="paint0_linear_3039_3077" x1="31.5099" y1="11.566" x2="32.0063" y2="40.9058" gradientUnits="userSpaceOnUse">
<stop stop-color="#5B2CD3"/>
<stop offset="1" stop-color="#2B48F4"/>
</linearGradient>
<linearGradient id="paint1_linear_3039_3077" x1="28.1881" y1="6.93763" x2="37.8758" y2="34.4382" gradientUnits="userSpaceOnUse">
<stop stop-color="#2D59F6"/>
<stop offset="1" stop-color="#34A0FF" stop-opacity="0.4"/>
</linearGradient>
<linearGradient id="paint2_linear_3039_3077" x1="3.27069" y1="4.07694" x2="35.9796" y2="44.5987" gradientUnits="userSpaceOnUse">
<stop stop-color="white" stop-opacity="0.25"/>
<stop offset="1" stop-color="white" stop-opacity="0"/>
</linearGradient>
</defs>
</svg>
