<svg width="613" height="577" viewBox="0 0 613 577" fill="none" xmlns="http://www.w3.org/2000/svg">
<g filter="url(#filter0_d_2784_3166)">
<rect x="8" y="257" width="384" height="297" rx="20" fill="white"/>
</g>
<rect x="290" y="288.5" width="78" height="28" rx="14" fill="#EF8B50"/>
<path d="M304.277 300.021L304.91 298.926V305.5H305.848V296.945H304.969L303.463 299.553L304.277 300.021ZM308.326 304.562L311.157 301.504C311.809 300.852 312.135 300.178 312.135 299.482C312.135 298.783 311.877 298.186 311.362 297.689C310.85 297.193 310.231 296.945 309.504 296.945C308.817 296.945 308.221 297.197 307.717 297.701C307.217 298.201 306.967 298.795 306.967 299.482V299.951H307.905V299.482C307.905 299.049 308.063 298.674 308.379 298.357C308.696 298.041 309.071 297.883 309.504 297.883C309.977 297.883 310.377 298.037 310.705 298.346C311.034 298.654 311.198 299.033 311.198 299.482C311.198 299.846 311.061 300.191 310.787 300.52L310.166 301.188L306.903 304.709V305.5H312.51V304.562H308.326ZM324.587 299.084C324.114 299.084 323.671 299.213 323.257 299.471C322.858 299.725 322.532 300.068 322.278 300.502C322.02 300.068 321.692 299.725 321.294 299.471C320.88 299.213 320.436 299.084 319.964 299.084C319.261 299.084 318.645 299.352 318.118 299.887V299.143H317.18V305.5H318.118V302.26C318.118 301.643 318.298 301.115 318.657 300.678C319.02 300.24 319.456 300.021 319.964 300.021C320.471 300.021 320.905 300.24 321.264 300.678C321.628 301.119 321.809 301.648 321.809 302.266V305.5H322.747V302.266C322.747 301.648 322.927 301.119 323.286 300.678C323.645 300.24 324.079 300.021 324.587 300.021C325.098 300.021 325.534 300.24 325.893 300.678C326.253 301.119 326.432 301.648 326.432 302.266V305.5H327.37V302.266C327.37 301.387 327.098 300.637 326.555 300.016C326.012 299.395 325.356 299.084 324.587 299.084ZM331.237 299.078C330.355 299.078 329.601 299.395 328.976 300.027C328.355 300.664 328.044 301.43 328.044 302.324C328.044 303.215 328.355 303.979 328.976 304.615C329.601 305.248 330.355 305.564 331.237 305.564C332.112 305.564 332.862 305.248 333.487 304.615C334.108 303.979 334.419 303.215 334.419 302.324C334.419 301.43 334.108 300.664 333.487 300.027C332.862 299.395 332.112 299.078 331.237 299.078ZM331.237 304.609C330.62 304.609 330.093 304.385 329.655 303.936C329.218 303.49 328.999 302.953 328.999 302.324C328.999 301.695 329.218 301.156 329.655 300.707C330.093 300.258 330.62 300.033 331.237 300.033C331.851 300.033 332.376 300.258 332.814 300.707C333.247 301.156 333.464 301.695 333.464 302.324C333.464 302.953 333.247 303.49 332.814 303.936C332.376 304.385 331.851 304.609 331.237 304.609ZM338.064 299.078C337.302 299.078 336.642 299.361 336.083 299.928V299.143H335.146V305.5H336.083V302.254C336.083 301.637 336.277 301.109 336.663 300.672C337.05 300.234 337.517 300.016 338.064 300.016C338.607 300.016 339.072 300.234 339.458 300.672C339.845 301.113 340.038 301.643 340.038 302.26V305.5H340.976V302.26C340.976 301.381 340.693 300.631 340.126 300.01C339.556 299.389 338.868 299.078 338.064 299.078ZM343.478 296.945H342.541V299.143H341.621V300.08H342.541V305.5H343.478V300.08H344.398V299.143H343.478V296.945ZM348.013 299.066C347.252 299.066 346.592 299.35 346.033 299.916V296.951H345.095V305.5H346.033V302.242C346.033 301.625 346.226 301.098 346.613 300.66C347 300.223 347.467 300.004 348.013 300.004C348.556 300.004 349.021 300.223 349.408 300.66C349.795 301.102 349.988 301.631 349.988 302.248V305.5H350.926V302.248C350.926 301.369 350.642 300.619 350.076 299.998C349.506 299.377 348.818 299.066 348.013 299.066ZM353.639 300.033C353.92 300.033 354.162 300.123 354.365 300.303C354.564 300.479 354.664 300.691 354.664 300.941H355.619C355.619 300.43 355.426 299.99 355.039 299.623C354.652 299.26 354.186 299.078 353.639 299.078C353.092 299.078 352.625 299.26 352.238 299.623C351.852 299.99 351.658 300.43 351.658 300.941C351.658 301.52 351.869 301.963 352.291 302.271C352.533 302.451 352.938 302.619 353.504 302.775C353.957 302.9 354.256 303.016 354.4 303.121C354.576 303.246 354.664 303.441 354.664 303.707C354.664 303.957 354.564 304.17 354.365 304.346C354.162 304.521 353.92 304.609 353.639 304.609C353.357 304.609 353.115 304.521 352.912 304.346C352.713 304.17 352.613 303.957 352.613 303.707H351.658C351.658 304.219 351.852 304.656 352.238 305.02C352.625 305.383 353.092 305.564 353.639 305.564C354.186 305.564 354.652 305.383 355.039 305.02C355.426 304.656 355.619 304.219 355.619 303.707C355.619 303.121 355.408 302.672 354.986 302.359C354.74 302.18 354.332 302.01 353.762 301.85C353.312 301.729 353.018 301.617 352.877 301.516C352.701 301.391 352.613 301.199 352.613 300.941C352.613 300.691 352.713 300.479 352.912 300.303C353.115 300.123 353.357 300.033 353.639 300.033Z" fill="white"/>
<path d="M36.0146 337.094L40.2598 332.506C41.2383 331.527 41.7275 330.517 41.7275 329.474C41.7275 328.425 41.3408 327.528 40.5674 326.784C39.7998 326.04 38.8711 325.668 37.7812 325.668C36.75 325.668 35.8564 326.046 35.1006 326.802C34.3506 327.552 33.9756 328.442 33.9756 329.474V330.177H35.3818V329.474C35.3818 328.823 35.6191 328.261 36.0938 327.786C36.5684 327.312 37.1309 327.074 37.7812 327.074C38.4902 327.074 39.0908 327.306 39.583 327.769C40.0752 328.231 40.3213 328.8 40.3213 329.474C40.3213 330.019 40.1162 330.537 39.7061 331.029L38.7744 332.031L33.8789 337.313V338.5H42.29V337.094H36.0146ZM44.9623 336.646H45.0062C45.2406 336.646 45.4545 336.736 45.6478 336.918C45.8353 337.111 45.9291 337.328 45.9291 337.568V337.621C45.9291 337.762 45.8851 337.914 45.7972 338.078L44.9535 340.1L44.3558 340.091L44.8656 338.535C44.7074 338.506 44.5726 338.453 44.4613 338.377C44.2796 338.26 44.1507 338.087 44.0746 337.858C44.0511 337.771 44.0394 337.688 44.0394 337.612V337.568C44.0394 337.334 44.1273 337.12 44.3031 336.927C44.5023 336.739 44.722 336.646 44.9623 336.646ZM52.1257 325.668C50.9245 325.668 49.8962 326.093 49.0407 326.942C48.1911 327.792 47.7663 328.817 47.7663 330.019V334.149C47.7663 335.351 48.1911 336.376 49.0407 337.226C49.8962 338.075 50.9245 338.5 52.1257 338.5C53.3269 338.5 54.3523 338.075 55.2019 337.226C56.0515 336.376 56.4763 335.351 56.4763 334.149V330.019C56.4763 328.817 56.0515 327.792 55.2019 326.942C54.3523 326.093 53.3269 325.668 52.1257 325.668ZM55.07 334.149C55.07 334.964 54.7829 335.658 54.2087 336.232C53.6345 336.807 52.9402 337.094 52.1257 337.094C51.3112 337.094 50.614 336.807 50.0339 336.232C49.4597 335.658 49.1726 334.964 49.1726 334.149V330.019C49.1726 329.204 49.4597 328.51 50.0339 327.936C50.614 327.361 51.3112 327.074 52.1257 327.074C52.9402 327.074 53.6345 327.361 54.2087 327.936C54.7829 328.51 55.07 329.204 55.07 330.019V334.149ZM62.418 325.668C61.2169 325.668 60.1886 326.093 59.3331 326.942C58.4835 327.792 58.0587 328.817 58.0587 330.019V334.149C58.0587 335.351 58.4835 336.376 59.3331 337.226C60.1886 338.075 61.2169 338.5 62.418 338.5C63.6192 338.5 64.6446 338.075 65.4942 337.226C66.3438 336.376 66.7686 335.351 66.7686 334.149V330.019C66.7686 328.817 66.3438 327.792 65.4942 326.942C64.6446 326.093 63.6192 325.668 62.418 325.668ZM65.3624 334.149C65.3624 334.964 65.0753 335.658 64.5011 336.232C63.9268 336.807 63.2325 337.094 62.418 337.094C61.6036 337.094 60.9063 336.807 60.3263 336.232C59.752 335.658 59.4649 334.964 59.4649 334.149V330.019C59.4649 329.204 59.752 328.51 60.3263 327.936C60.9063 327.361 61.6036 327.074 62.418 327.074C63.2325 327.074 63.9268 327.361 64.5011 327.936C65.0753 328.51 65.3624 329.204 65.3624 330.019V334.149ZM72.7104 325.668C71.5092 325.668 70.4809 326.093 69.6254 326.942C68.7758 327.792 68.351 328.817 68.351 330.019V334.149C68.351 335.351 68.7758 336.376 69.6254 337.226C70.4809 338.075 71.5092 338.5 72.7104 338.5C73.9116 338.5 74.937 338.075 75.7866 337.226C76.6362 336.376 77.061 335.351 77.061 334.149V330.019C77.061 328.817 76.6362 327.792 75.7866 326.942C74.937 326.093 73.9116 325.668 72.7104 325.668ZM75.6547 334.149C75.6547 334.964 75.3676 335.658 74.7934 336.232C74.2192 336.807 73.5248 337.094 72.7104 337.094C71.8959 337.094 71.1987 336.807 70.6186 336.232C70.0444 335.658 69.7573 334.964 69.7573 334.149V330.019C69.7573 329.204 70.0444 328.51 70.6186 327.936C71.1987 327.361 71.8959 327.074 72.7104 327.074C73.5248 327.074 74.2192 327.361 74.7934 327.936C75.3676 328.51 75.6547 329.204 75.6547 330.019V334.149ZM79.8211 336.646H79.865C80.0994 336.646 80.3133 336.736 80.5066 336.918C80.6941 337.111 80.7879 337.328 80.7879 337.568V337.621C80.7879 337.762 80.7439 337.914 80.6561 338.078L79.8123 340.1L79.2146 340.091L79.7244 338.535C79.5662 338.506 79.4314 338.453 79.3201 338.377C79.1385 338.26 79.0096 338.087 78.9334 337.858C78.91 337.771 78.8982 337.688 78.8982 337.612V337.568C78.8982 337.334 78.9861 337.12 79.1619 336.927C79.3611 336.739 79.5809 336.646 79.8211 336.646ZM86.9845 325.668C85.7834 325.668 84.755 326.093 83.8996 326.942C83.05 327.792 82.6252 328.817 82.6252 330.019V334.149C82.6252 335.351 83.05 336.376 83.8996 337.226C84.755 338.075 85.7834 338.5 86.9845 338.5C88.1857 338.5 89.2111 338.075 90.0607 337.226C90.9103 336.376 91.3351 335.351 91.3351 334.149V330.019C91.3351 328.817 90.9103 327.792 90.0607 326.942C89.2111 326.093 88.1857 325.668 86.9845 325.668ZM89.9289 334.149C89.9289 334.964 89.6418 335.658 89.0675 336.232C88.4933 336.807 87.799 337.094 86.9845 337.094C86.1701 337.094 85.4728 336.807 84.8927 336.232C84.3185 335.658 84.0314 334.964 84.0314 334.149V330.019C84.0314 329.204 84.3185 328.51 84.8927 327.936C85.4728 327.361 86.1701 327.074 86.9845 327.074C87.799 327.074 88.4933 327.361 89.0675 327.936C89.6418 328.51 89.9289 329.204 89.9289 330.019V334.149ZM97.2769 325.668C96.0757 325.668 95.0474 326.093 94.1919 326.942C93.3423 327.792 92.9175 328.817 92.9175 330.019V334.149C92.9175 335.351 93.3423 336.376 94.1919 337.226C95.0474 338.075 96.0757 338.5 97.2769 338.5C98.478 338.5 99.5034 338.075 100.353 337.226C101.203 336.376 101.627 335.351 101.627 334.149V330.019C101.627 328.817 101.203 327.792 100.353 326.942C99.5034 326.093 98.478 325.668 97.2769 325.668ZM100.221 334.149C100.221 334.964 99.9341 335.658 99.3599 336.232C98.7857 336.807 98.0913 337.094 97.2769 337.094C96.4624 337.094 95.7652 336.807 95.1851 336.232C94.6109 335.658 94.3237 334.964 94.3237 334.149V330.019C94.3237 329.204 94.6109 328.51 95.1851 327.936C95.7652 327.361 96.4624 327.074 97.2769 327.074C98.0913 327.074 98.7857 327.361 99.3599 327.936C99.9341 328.51 100.221 329.204 100.221 330.019V334.149ZM107.569 325.668C106.368 325.668 105.34 326.093 104.484 326.942C103.635 327.792 103.21 328.817 103.21 330.019V334.149C103.21 335.351 103.635 336.376 104.484 337.226C105.34 338.075 106.368 338.5 107.569 338.5C108.77 338.5 109.796 338.075 110.645 337.226C111.495 336.376 111.92 335.351 111.92 334.149V330.019C111.92 328.817 111.495 327.792 110.645 326.942C109.796 326.093 108.77 325.668 107.569 325.668ZM110.514 334.149C110.514 334.964 110.226 335.658 109.652 336.232C109.078 336.807 108.384 337.094 107.569 337.094C106.755 337.094 106.058 336.807 105.477 336.232C104.903 335.658 104.616 334.964 104.616 334.149V330.019C104.616 329.204 104.903 328.51 105.477 327.936C106.058 327.361 106.755 327.074 107.569 327.074C108.384 327.074 109.078 327.361 109.652 327.936C110.226 328.51 110.514 329.204 110.514 330.019V334.149ZM121.052 330.818C121.502 330.818 121.886 330.959 122.207 331.24C122.523 331.525 122.681 331.871 122.681 332.277H123.636C123.636 331.609 123.384 331.039 122.88 330.566C122.373 330.094 121.763 329.857 121.052 329.857C120.334 329.857 119.722 330.094 119.218 330.566C118.711 331.039 118.457 331.609 118.457 332.277C118.457 333.027 118.736 333.604 119.295 334.006C119.615 334.24 120.154 334.461 120.912 334.668C121.568 334.848 122.005 335.016 122.224 335.172C122.529 335.391 122.681 335.721 122.681 336.162C122.681 336.572 122.523 336.92 122.207 337.205C121.886 337.486 121.502 337.627 121.052 337.627C120.595 337.627 120.209 337.486 119.892 337.205C119.572 336.92 119.412 336.572 119.412 336.162H118.457C118.457 336.834 118.711 337.406 119.218 337.879C119.722 338.352 120.334 338.588 121.052 338.588C121.763 338.588 122.373 338.352 122.88 337.879C123.384 337.406 123.636 336.834 123.636 336.162C123.636 335.404 123.357 334.822 122.798 334.416C122.47 334.178 121.925 333.955 121.164 333.748C120.519 333.572 120.088 333.406 119.869 333.25C119.564 333.035 119.412 332.711 119.412 332.277C119.412 331.871 119.572 331.525 119.892 331.24C120.209 330.959 120.595 330.818 121.052 330.818ZM129.765 338.5H130.814L127.674 329.945H126.877L123.736 338.5H124.75L125.816 335.465H128.699L129.765 338.5ZM127.258 331.381L128.383 334.521H126.144L127.258 331.381ZM132.051 333.754V330.883H133.861C134.275 330.883 134.596 331.031 134.822 331.328C135.014 331.574 135.115 331.881 135.127 332.248C135.147 332.725 135.049 333.074 134.834 333.297C134.541 333.602 133.9 333.754 132.912 333.754H132.051ZM132.637 334.65L135.338 338.5H136.481L133.785 334.656C134.555 334.574 135.129 334.338 135.508 333.947C135.906 333.533 136.092 332.953 136.065 332.207C136.041 331.605 135.852 331.092 135.496 330.666C135.086 330.186 134.541 329.945 133.861 329.945H131.113V338.5H132.051V334.65H132.637Z" fill="#140A2B"/>
<path d="M37.8926 303.172L39.6504 298.943L41.4082 303.172H37.8926ZM38.7812 295.242L32.8535 309.5H35.2559L36.9746 305.389H42.3262L44.0352 309.5H46.4277L40.5195 295.242H38.7812ZM51.8965 309.5L56.4961 298.738H54.084L51.3203 305.203L48.5469 298.738H46.1348L50.7441 309.5H51.8965ZM67.7852 298.738H65.5195V299.656C64.582 298.973 63.5371 298.631 62.3848 298.631C60.8939 298.631 59.6211 299.168 58.5664 300.242C57.5117 301.31 56.9844 302.602 56.9844 304.119C56.9844 305.636 57.5117 306.928 58.5664 307.996C59.6211 309.07 60.8939 309.607 62.3848 309.607C63.5371 309.607 64.582 309.262 65.5195 308.572V309.5H67.7852V298.738ZM62.3848 307.342C61.5189 307.342 60.7767 307.029 60.1582 306.404C59.5527 305.773 59.25 305.011 59.25 304.119C59.25 303.227 59.5527 302.465 60.1582 301.834C60.7767 301.209 61.5189 300.896 62.3848 300.896C63.2441 300.896 63.9831 301.209 64.6016 301.834C65.2135 302.465 65.5195 303.227 65.5195 304.119C65.5195 305.011 65.2135 305.773 64.6016 306.404C63.9831 307.029 63.2441 307.342 62.3848 307.342ZM69.9434 309.5H72.1602V298.738H69.9434V309.5ZM71.0566 295.145C71.4017 295.145 71.6914 295.265 71.9258 295.506C72.1602 295.74 72.2773 296.027 72.2773 296.365C72.2773 296.704 72.1602 296.993 71.9258 297.234C71.6914 297.469 71.4017 297.586 71.0566 297.586C70.7181 297.586 70.4284 297.469 70.1875 297.234C69.9531 296.993 69.8359 296.704 69.8359 296.365C69.8359 296.027 69.9531 295.74 70.1875 295.506C70.4284 295.265 70.7181 295.145 71.0566 295.145ZM74.7188 309.5H76.9258V295.242H74.7188V309.5ZM89.7188 298.738H87.4531V299.656C86.5156 298.973 85.4707 298.631 84.3184 298.631C82.8275 298.631 81.5547 299.168 80.5 300.242C79.4453 301.31 78.918 302.602 78.918 304.119C78.918 305.636 79.4453 306.928 80.5 307.996C81.5547 309.07 82.8275 309.607 84.3184 309.607C85.4707 309.607 86.5156 309.262 87.4531 308.572V309.5H89.7188V298.738ZM84.3184 307.342C83.4525 307.342 82.7103 307.029 82.0918 306.404C81.4863 305.773 81.1836 305.011 81.1836 304.119C81.1836 303.227 81.4863 302.465 82.0918 301.834C82.7103 301.209 83.4525 300.896 84.3184 300.896C85.1777 300.896 85.9167 301.209 86.5352 301.834C87.1471 302.465 87.4531 303.227 87.4531 304.119C87.4531 305.011 87.1471 305.773 86.5352 306.404C85.9167 307.029 85.1777 307.342 84.3184 307.342ZM97.1797 298.67C96.0208 298.67 94.9727 299.012 94.0352 299.695V295.242H91.7695V309.51H94.0352V308.602C94.9727 309.298 96.0208 309.646 97.1797 309.646C98.6641 309.646 99.9368 309.106 100.998 308.025C102.053 306.958 102.58 305.669 102.58 304.158C102.58 302.641 102.053 301.349 100.998 300.281C99.9368 299.207 98.6641 298.67 97.1797 298.67ZM97.1797 307.381C96.3073 307.381 95.5651 307.065 94.9531 306.434C94.3411 305.802 94.0352 305.044 94.0352 304.158C94.0352 303.266 94.3411 302.505 94.9531 301.873C95.5651 301.242 96.3073 300.926 97.1797 300.926C98.0391 300.926 98.7747 301.242 99.3867 301.873C100.005 302.505 100.314 303.266 100.314 304.158C100.314 305.044 100.005 305.802 99.3867 306.434C98.7747 307.065 98.0391 307.381 97.1797 307.381ZM104.68 309.5H106.887V295.242H104.68V309.5ZM111.447 302.986C111.675 302.368 112.053 301.867 112.58 301.482C113.12 301.092 113.723 300.896 114.387 300.896C115.051 300.896 115.653 301.092 116.193 301.482C116.721 301.867 117.098 302.368 117.326 302.986H111.447ZM116.906 306.043C116.314 306.909 115.474 307.342 114.387 307.342C113.723 307.342 113.12 307.146 112.58 306.756C112.007 306.326 111.63 305.757 111.447 305.047H119.787V304.119C119.787 302.602 119.26 301.31 118.205 300.242C117.144 299.168 115.871 298.631 114.387 298.631C112.896 298.631 111.623 299.168 110.568 300.242C109.514 301.31 108.986 302.602 108.986 304.119C108.986 305.636 109.514 306.928 110.568 307.996C111.623 309.07 112.896 309.607 114.387 309.607C115.363 309.607 116.271 309.354 117.111 308.846C117.834 308.423 118.42 307.866 118.869 307.176L116.906 306.043ZM135.471 295.057C133.485 295.057 131.786 295.776 130.373 297.215C128.967 298.641 128.264 300.363 128.264 302.381C128.264 304.399 128.967 306.124 130.373 307.557C131.786 308.995 133.485 309.715 135.471 309.715C137.456 309.715 139.152 308.995 140.559 307.557C141.965 306.124 142.668 304.399 142.668 302.381C142.668 300.363 141.965 298.641 140.559 297.215C139.152 295.776 137.456 295.057 135.471 295.057ZM135.471 307.43C134.11 307.43 132.951 306.938 131.994 305.955C131.024 304.965 130.539 303.774 130.539 302.381C130.539 300.994 131.024 299.806 131.994 298.816C132.951 297.833 134.11 297.342 135.471 297.342C136.825 297.342 137.984 297.833 138.947 298.816C139.911 299.806 140.393 300.994 140.393 302.381C140.393 303.774 139.911 304.965 138.947 305.955C137.984 306.938 136.825 307.43 135.471 307.43ZM150.021 298.592C148.863 298.592 147.814 298.934 146.877 299.617V298.738H144.621V313.113H146.877V308.533C147.814 309.223 148.863 309.568 150.021 309.568C151.506 309.568 152.779 309.031 153.84 307.957C154.895 306.889 155.422 305.597 155.422 304.08C155.422 302.57 154.895 301.281 153.84 300.213C152.779 299.132 151.506 298.592 150.021 298.592ZM150.021 307.312C149.149 307.312 148.407 306.997 147.795 306.365C147.183 305.734 146.877 304.972 146.877 304.08C146.877 303.195 147.183 302.436 147.795 301.805C148.407 301.173 149.149 300.857 150.021 300.857C150.881 300.857 151.617 301.173 152.229 301.805C152.847 302.436 153.156 303.195 153.156 304.08C153.156 304.972 152.847 305.734 152.229 306.365C151.617 306.997 150.881 307.312 150.021 307.312ZM162.639 298.592C161.48 298.592 160.432 298.934 159.494 299.617V298.738H157.238V313.113H159.494V308.533C160.432 309.223 161.48 309.568 162.639 309.568C164.123 309.568 165.396 309.031 166.457 307.957C167.512 306.889 168.039 305.597 168.039 304.08C168.039 302.57 167.512 301.281 166.457 300.213C165.396 299.132 164.123 298.592 162.639 298.592ZM162.639 307.312C161.766 307.312 161.024 306.997 160.412 306.365C159.8 305.734 159.494 304.972 159.494 304.08C159.494 303.195 159.8 302.436 160.412 301.805C161.024 301.173 161.766 300.857 162.639 300.857C163.498 300.857 164.234 301.173 164.846 301.805C165.464 302.436 165.773 303.195 165.773 304.08C165.773 304.972 165.464 305.734 164.846 306.365C164.234 306.997 163.498 307.312 162.639 307.312ZM174.914 298.631C173.423 298.631 172.15 299.168 171.096 300.242C170.041 301.31 169.514 302.602 169.514 304.119C169.514 305.636 170.041 306.928 171.096 307.996C172.15 309.07 173.423 309.607 174.914 309.607C176.398 309.607 177.671 309.07 178.732 307.996C179.787 306.928 180.314 305.636 180.314 304.119C180.314 302.602 179.787 301.31 178.732 300.242C177.671 299.168 176.398 298.631 174.914 298.631ZM174.914 307.342C174.048 307.342 173.306 307.029 172.688 306.404C172.082 305.773 171.779 305.011 171.779 304.119C171.779 303.227 172.082 302.465 172.688 301.834C173.306 301.209 174.048 300.896 174.914 300.896C175.773 300.896 176.512 301.209 177.131 301.834C177.743 302.465 178.049 303.227 178.049 304.119C178.049 305.011 177.743 305.773 177.131 306.404C176.512 307.029 175.773 307.342 174.914 307.342ZM184.338 298.738H182.121V309.5H184.338V304.109C184.338 303.243 184.605 302.501 185.139 301.883C185.679 301.264 186.327 300.955 187.082 300.955H188.195V298.738H187.082C186.079 298.738 185.165 299.038 184.338 299.637V298.738ZM192.346 295.242H190.129V298.738H188.684V300.955H190.129V309.5H192.346V300.955H193.801V298.738H192.346V295.242ZM204.768 298.738H202.551V304.227C202.551 305.099 202.303 305.841 201.809 306.453C201.314 307.072 200.715 307.381 200.012 307.381C199.315 307.381 198.719 307.072 198.225 306.453C197.723 305.835 197.473 305.089 197.473 304.217V298.738H195.266V304.217C195.266 305.701 195.728 306.971 196.652 308.025C197.583 309.074 198.703 309.598 200.012 309.598C200.93 309.598 201.776 309.321 202.551 308.768V309.5H204.768V298.738ZM211.887 298.523C210.884 298.523 209.969 298.823 209.143 299.422V298.738H206.926V309.5H209.143V303.904C209.143 303.032 209.41 302.286 209.943 301.668C210.484 301.049 211.132 300.74 211.887 300.74C212.642 300.74 213.29 301.049 213.83 301.668C214.37 302.286 214.641 303.032 214.641 303.904V309.5H216.848V303.904C216.848 302.42 216.363 301.154 215.393 300.105C214.423 299.051 213.254 298.523 211.887 298.523ZM219.104 309.5H221.32V298.738H219.104V309.5ZM220.217 295.145C220.562 295.145 220.852 295.265 221.086 295.506C221.32 295.74 221.438 296.027 221.438 296.365C221.438 296.704 221.32 296.993 221.086 297.234C220.852 297.469 220.562 297.586 220.217 297.586C219.878 297.586 219.589 297.469 219.348 297.234C219.113 296.993 218.996 296.704 218.996 296.365C218.996 296.027 219.113 295.74 219.348 295.506C219.589 295.265 219.878 295.145 220.217 295.145ZM226.564 295.242H224.348V298.738H222.902V300.955H224.348V309.5H226.564V300.955H228.02V298.738H226.564V295.242ZM231.398 298.738H229.133V303.709C229.133 305.109 229.621 306.303 230.598 307.293C231.574 308.283 232.753 308.777 234.133 308.777C235.116 308.777 236.021 308.504 236.848 307.957C236.789 308.771 236.522 309.451 236.047 309.998C235.526 310.597 234.914 310.896 234.211 310.896C233.69 310.896 233.156 310.708 232.609 310.33C232.134 309.992 231.776 309.559 231.535 309.031L229.416 309.842C229.82 310.799 230.454 311.58 231.32 312.186C232.258 312.837 233.221 313.162 234.211 313.162C235.52 313.162 236.659 312.648 237.629 311.619C238.599 310.597 239.097 309.314 239.123 307.771V298.738H236.857V303.455C236.864 303.54 236.867 303.624 236.867 303.709C236.867 304.484 236.6 305.148 236.066 305.701C235.533 306.248 234.888 306.521 234.133 306.521C233.378 306.521 232.733 306.245 232.199 305.691C231.665 305.145 231.398 304.484 231.398 303.709V298.738Z" fill="#140A2B"/>
<rect x="33" y="468" width="335" height="1" fill="#EEF0F2"/>
<rect x="33" y="365" width="335" height="1" fill="#EEF0F2"/>
<path opacity="0.4" d="M57 437.5C57 436.119 58.1193 435 59.5 435H365.5C366.881 435 368 436.119 368 437.5C368 438.881 366.881 440 365.5 440H59.5C58.1193 440 57 438.881 57 437.5Z" fill="#C4C1CA"/>
<path d="M33 437.5C33 434.462 35.4624 432 38.5 432H109.5C112.538 432 115 434.462 115 437.5C115 440.538 112.538 443 109.5 443H38.5C35.4624 443 33 440.538 33 437.5Z" fill="url(#paint0_linear_2784_3166)"/>
<rect x="106.5" y="427.5" width="19" height="19" rx="9.5" fill="white" stroke="#5B2CD3"/>
<path d="M34.0156 405H35.2656V393.594H34.0156V405ZM38.5472 394.344C38.0211 394.844 37.7529 395.57 37.7425 396.523H36.8206V397.773H37.7347V405H38.9847V397.773H40.5238V396.523H38.9925C38.9977 395.93 39.1357 395.505 39.4066 395.25C39.693 394.979 40.1748 394.844 40.8519 394.844H41.0159V393.594H40.8519C39.8415 393.594 39.0732 393.844 38.5472 394.344ZM47.54 396.523H46.2666V400.703C46.2666 401.844 46.6806 402.836 47.5087 403.68C48.29 404.523 49.2431 404.945 50.3681 404.945C51.415 404.945 52.3525 404.534 53.1806 403.711C53.1546 404.529 52.8551 405.227 52.2822 405.805C51.7561 406.378 51.1181 406.664 50.3681 406.664C49.889 406.664 49.4046 406.531 48.915 406.266C48.4827 406.005 48.1259 405.654 47.8447 405.211L46.7666 405.891C47.1624 406.516 47.6989 407.013 48.3759 407.383C49.0114 407.758 49.6754 407.945 50.3681 407.945C51.3681 407.945 52.2405 407.594 52.9853 406.891C53.777 406.193 54.2509 405.32 54.4072 404.273L54.4541 403.805V396.523H53.1806V400.703C53.1806 401.49 52.889 402.182 52.3056 402.781C51.7796 403.375 51.1337 403.672 50.3681 403.672C49.6337 403.667 48.9827 403.37 48.415 402.781C47.8317 402.182 47.54 401.49 47.54 400.703V396.523ZM59.6887 396.438C58.5117 396.438 57.5065 396.859 56.6731 397.703C55.845 398.552 55.4309 399.573 55.4309 400.766C55.4309 401.953 55.845 402.971 56.6731 403.82C57.5065 404.664 58.5117 405.086 59.6887 405.086C60.8554 405.086 61.8554 404.664 62.6887 403.82C63.5169 402.971 63.9309 401.953 63.9309 400.766C63.9309 399.573 63.5169 398.552 62.6887 397.703C61.8554 396.859 60.8554 396.438 59.6887 396.438ZM59.6887 403.812C58.8658 403.812 58.1627 403.513 57.5794 402.914C56.996 402.32 56.7044 401.604 56.7044 400.766C56.7044 399.927 56.996 399.208 57.5794 398.609C58.1627 398.01 58.8658 397.711 59.6887 397.711C60.5065 397.711 61.207 398.01 61.7903 398.609C62.3684 399.208 62.6575 399.927 62.6575 400.766C62.6575 401.604 62.3684 402.32 61.7903 402.914C61.207 403.513 60.5065 403.812 59.6887 403.812ZM72.3219 396.523H71.0719V400.844C71.0719 401.667 70.8297 402.37 70.3453 402.953C69.8661 403.536 69.288 403.828 68.6109 403.828C67.9339 403.828 67.3531 403.536 66.8687 402.953C66.3896 402.37 66.15 401.664 66.15 400.836V396.5H64.9V400.836C64.9 402.008 65.262 403.008 65.9859 403.836C66.7151 404.664 67.5901 405.078 68.6109 405.078C69.5484 405.078 70.3687 404.721 71.0719 404.008V405H72.3219V396.523ZM78.7756 405H80.0256V393.594H78.7756V405ZM85.4712 396.438C84.4556 396.438 83.5754 396.815 82.8306 397.57V396.523H81.5806V405H82.8306V400.672C82.8306 399.849 83.0884 399.146 83.6041 398.562C84.1197 397.979 84.7421 397.688 85.4712 397.688C86.1952 397.688 86.815 397.979 87.3306 398.562C87.8462 399.151 88.1041 399.857 88.1041 400.68V405H89.3541V400.68C89.3541 399.508 88.9765 398.508 88.2212 397.68C87.4608 396.852 86.5442 396.438 85.4712 396.438ZM96.8622 396.523L94.0262 403.156L91.1903 396.523H89.8309L93.4481 405H94.5966L98.2216 396.523H96.8622ZM102.753 396.438C101.576 396.438 100.571 396.859 99.7375 397.703C98.9094 398.552 98.4953 399.573 98.4953 400.766C98.4953 401.953 98.9094 402.971 99.7375 403.82C100.571 404.664 101.576 405.086 102.753 405.086C103.55 405.086 104.284 404.878 104.956 404.461C105.633 404.044 106.157 403.474 106.527 402.75L105.386 402.172C105.126 402.677 104.761 403.078 104.292 403.375C103.818 403.667 103.305 403.812 102.753 403.812C102.04 403.812 101.409 403.583 100.863 403.125C100.321 402.672 99.9771 402.099 99.8313 401.406H106.995V400.766C106.995 399.573 106.581 398.552 105.753 397.703C104.92 396.859 103.92 396.438 102.753 396.438ZM99.8313 400.125C99.9771 399.432 100.321 398.859 100.863 398.406C101.409 397.943 102.04 397.711 102.753 397.711C103.456 397.711 104.081 397.943 104.628 398.406C105.17 398.859 105.514 399.432 105.659 400.125H99.8313ZM110.332 397.711C110.707 397.711 111.029 397.831 111.3 398.07C111.566 398.305 111.699 398.589 111.699 398.922H112.972C112.972 398.24 112.714 397.654 112.199 397.164C111.683 396.68 111.061 396.438 110.332 396.438C109.602 396.438 108.98 396.68 108.464 397.164C107.949 397.654 107.691 398.24 107.691 398.922C107.691 399.693 107.972 400.284 108.535 400.695C108.858 400.935 109.397 401.159 110.152 401.367C110.756 401.534 111.154 401.688 111.347 401.828C111.582 401.995 111.699 402.255 111.699 402.609C111.699 402.943 111.566 403.227 111.3 403.461C111.029 403.695 110.707 403.812 110.332 403.812C109.957 403.812 109.634 403.695 109.363 403.461C109.097 403.227 108.964 402.943 108.964 402.609H107.691C107.691 403.292 107.949 403.875 108.464 404.359C108.98 404.844 109.602 405.086 110.332 405.086C111.061 405.086 111.683 404.844 112.199 404.359C112.714 403.875 112.972 403.292 112.972 402.609C112.972 401.828 112.691 401.229 112.128 400.812C111.8 400.573 111.256 400.346 110.496 400.133C109.897 399.971 109.503 399.823 109.316 399.688C109.082 399.521 108.964 399.266 108.964 398.922C108.964 398.589 109.097 398.305 109.363 398.07C109.634 397.831 109.957 397.711 110.332 397.711ZM116.027 393.594H114.777V396.523H113.551V397.773H114.777V405H116.027V397.773H117.254V396.523H116.027V393.594Z" fill="#140A2B"/>
<path d="M285.419 397.352C284.914 397.352 284.429 397.445 283.966 397.633L284.364 394.844H287.903V393.594H283.278L282.536 398.828L283.591 399.359C284.096 398.854 284.705 398.602 285.419 398.602C286.127 398.602 286.734 398.854 287.239 399.359C287.739 399.859 287.989 400.466 287.989 401.18C287.989 401.888 287.739 402.495 287.239 403C286.734 403.5 286.127 403.75 285.419 403.75C284.945 403.75 284.505 403.63 284.098 403.391C283.692 403.151 283.377 402.823 283.153 402.406L282.052 403C282.385 403.62 282.854 404.109 283.458 404.469C284.062 404.823 284.716 405 285.419 405C286.471 405 287.372 404.628 288.122 403.883C288.867 403.133 289.239 402.232 289.239 401.18C289.239 400.122 288.867 399.221 288.122 398.477C287.372 397.727 286.471 397.352 285.419 397.352ZM294.083 393.594C293.015 393.594 292.101 393.971 291.341 394.727C290.586 395.482 290.208 396.393 290.208 397.461V401.133C290.208 402.201 290.586 403.112 291.341 403.867C292.101 404.622 293.015 405 294.083 405C295.151 405 296.062 404.622 296.817 403.867C297.573 403.112 297.95 402.201 297.95 401.133V397.461C297.95 396.393 297.573 395.482 296.817 394.727C296.062 393.971 295.151 393.594 294.083 393.594ZM296.7 401.133C296.7 401.857 296.445 402.474 295.935 402.984C295.424 403.495 294.807 403.75 294.083 403.75C293.359 403.75 292.739 403.495 292.224 402.984C291.713 402.474 291.458 401.857 291.458 401.133V397.461C291.458 396.737 291.713 396.12 292.224 395.609C292.739 395.099 293.359 394.844 294.083 394.844C294.807 394.844 295.424 395.099 295.935 395.609C296.445 396.12 296.7 396.737 296.7 397.461V401.133ZM303.232 393.594C302.164 393.594 301.25 393.971 300.49 394.727C299.734 395.482 299.357 396.393 299.357 397.461V401.133C299.357 402.201 299.734 403.112 300.49 403.867C301.25 404.622 302.164 405 303.232 405C304.3 405 305.211 404.622 305.966 403.867C306.721 403.112 307.099 402.201 307.099 401.133V397.461C307.099 396.393 306.721 395.482 305.966 394.727C305.211 393.971 304.3 393.594 303.232 393.594ZM305.849 401.133C305.849 401.857 305.594 402.474 305.083 402.984C304.573 403.495 303.956 403.75 303.232 403.75C302.508 403.75 301.888 403.495 301.372 402.984C300.862 402.474 300.607 401.857 300.607 401.133V397.461C300.607 396.737 300.862 396.12 301.372 395.609C301.888 395.099 302.508 394.844 303.232 394.844C303.956 394.844 304.573 395.099 305.083 395.609C305.594 396.12 305.849 396.737 305.849 397.461V401.133ZM309.552 403.352H309.592C309.8 403.352 309.99 403.432 310.162 403.594C310.329 403.766 310.412 403.958 310.412 404.172V404.219C310.412 404.344 310.373 404.479 310.295 404.625L309.545 406.422L309.013 406.414L309.467 405.031C309.326 405.005 309.206 404.958 309.107 404.891C308.946 404.786 308.831 404.633 308.763 404.43C308.743 404.352 308.732 404.279 308.732 404.211V404.172C308.732 403.964 308.81 403.773 308.967 403.602C309.144 403.435 309.339 403.352 309.552 403.352ZM315.92 393.594C314.852 393.594 313.938 393.971 313.178 394.727C312.423 395.482 312.045 396.393 312.045 397.461V401.133C312.045 402.201 312.423 403.112 313.178 403.867C313.938 404.622 314.852 405 315.92 405C316.988 405 317.899 404.622 318.654 403.867C319.41 403.112 319.787 402.201 319.787 401.133V397.461C319.787 396.393 319.41 395.482 318.654 394.727C317.899 393.971 316.988 393.594 315.92 393.594ZM318.537 401.133C318.537 401.857 318.282 402.474 317.772 402.984C317.261 403.495 316.644 403.75 315.92 403.75C315.196 403.75 314.576 403.495 314.061 402.984C313.55 402.474 313.295 401.857 313.295 401.133V397.461C313.295 396.737 313.55 396.12 314.061 395.609C314.576 395.099 315.196 394.844 315.92 394.844C316.644 394.844 317.261 395.099 317.772 395.609C318.282 396.12 318.537 396.737 318.537 397.461V401.133ZM325.069 393.594C324.001 393.594 323.087 393.971 322.327 394.727C321.571 395.482 321.194 396.393 321.194 397.461V401.133C321.194 402.201 321.571 403.112 322.327 403.867C323.087 404.622 324.001 405 325.069 405C326.136 405 327.048 404.622 327.803 403.867C328.558 403.112 328.936 402.201 328.936 401.133V397.461C328.936 396.393 328.558 395.482 327.803 394.727C327.048 393.971 326.136 393.594 325.069 393.594ZM327.686 401.133C327.686 401.857 327.431 402.474 326.92 402.984C326.41 403.495 325.793 403.75 325.069 403.75C324.345 403.75 323.725 403.495 323.209 402.984C322.699 402.474 322.444 401.857 322.444 401.133V397.461C322.444 396.737 322.699 396.12 323.209 395.609C323.725 395.099 324.345 394.844 325.069 394.844C325.793 394.844 326.41 395.099 326.92 395.609C327.431 396.12 327.686 396.737 327.686 397.461V401.133ZM334.217 393.594C333.15 393.594 332.236 393.971 331.475 394.727C330.72 395.482 330.342 396.393 330.342 397.461V401.133C330.342 402.201 330.72 403.112 331.475 403.867C332.236 404.622 333.15 405 334.217 405C335.285 405 336.197 404.622 336.952 403.867C337.707 403.112 338.085 402.201 338.085 401.133V397.461C338.085 396.393 337.707 395.482 336.952 394.727C336.197 393.971 335.285 393.594 334.217 393.594ZM336.835 401.133C336.835 401.857 336.579 402.474 336.069 402.984C335.559 403.495 334.941 403.75 334.217 403.75C333.494 403.75 332.874 403.495 332.358 402.984C331.848 402.474 331.592 401.857 331.592 401.133V397.461C331.592 396.737 331.848 396.12 332.358 395.609C332.874 395.099 333.494 394.844 334.217 394.844C334.941 394.844 335.559 395.099 336.069 395.609C336.579 396.12 336.835 396.737 336.835 397.461V401.133ZM347.538 394.758C348.137 394.758 348.65 394.945 349.077 395.32C349.499 395.701 349.71 396.161 349.71 396.703H350.984C350.984 395.812 350.648 395.052 349.976 394.422C349.299 393.792 348.486 393.477 347.538 393.477C346.58 393.477 345.765 393.792 345.093 394.422C344.416 395.052 344.077 395.812 344.077 396.703C344.077 397.703 344.45 398.471 345.195 399.008C345.622 399.32 346.341 399.615 347.351 399.891C348.226 400.13 348.809 400.354 349.101 400.562C349.507 400.854 349.71 401.294 349.71 401.883C349.71 402.43 349.499 402.893 349.077 403.273C348.65 403.648 348.137 403.836 347.538 403.836C346.929 403.836 346.413 403.648 345.992 403.273C345.564 402.893 345.351 402.43 345.351 401.883H344.077C344.077 402.779 344.416 403.542 345.093 404.172C345.765 404.802 346.58 405.117 347.538 405.117C348.486 405.117 349.299 404.802 349.976 404.172C350.648 403.542 350.984 402.779 350.984 401.883C350.984 400.872 350.611 400.096 349.867 399.555C349.429 399.237 348.702 398.94 347.687 398.664C346.827 398.43 346.252 398.208 345.96 398C345.554 397.714 345.351 397.281 345.351 396.703C345.351 396.161 345.564 395.701 345.992 395.32C346.413 394.945 346.929 394.758 347.538 394.758ZM359.156 405H360.554L356.367 393.594H355.304L351.117 405H352.468L353.89 400.953H357.734L359.156 405ZM355.812 395.508L357.312 399.695H354.328L355.812 395.508ZM362.203 398.672V394.844H364.617C365.169 394.844 365.596 395.042 365.898 395.438C366.154 395.766 366.289 396.174 366.305 396.664C366.331 397.299 366.201 397.766 365.914 398.062C365.523 398.469 364.669 398.672 363.352 398.672H362.203ZM362.984 399.867L366.586 405H368.109L364.516 399.875C365.542 399.766 366.307 399.451 366.812 398.93C367.344 398.378 367.591 397.604 367.555 396.609C367.523 395.807 367.271 395.122 366.797 394.555C366.25 393.914 365.523 393.594 364.617 393.594H360.953V405H362.203V399.867H362.984Z" fill="#8A8595"/>
<path d="M311.794 338.5H313.044V327.094H311.794V338.5ZM315.849 332.172V328.344H318.263C318.816 328.344 319.243 328.542 319.545 328.938C319.8 329.266 319.935 329.674 319.951 330.164C319.977 330.799 319.847 331.266 319.56 331.562C319.17 331.969 318.316 332.172 316.998 332.172H315.849ZM316.631 333.367L320.232 338.5H321.756L318.162 333.375C319.188 333.266 319.954 332.951 320.459 332.43C320.99 331.878 321.237 331.104 321.201 330.109C321.17 329.307 320.917 328.622 320.443 328.055C319.896 327.414 319.17 327.094 318.263 327.094H314.599V338.5H315.849V333.367H316.631ZM323.436 332.172V328.344H325.85C326.402 328.344 326.829 328.542 327.131 328.938C327.386 329.266 327.522 329.674 327.537 330.164C327.563 330.799 327.433 331.266 327.147 331.562C326.756 331.969 325.902 332.172 324.584 332.172H323.436ZM324.217 333.367L327.818 338.5H329.342L325.748 333.375C326.774 333.266 327.54 332.951 328.045 332.43C328.576 331.878 328.824 331.104 328.787 330.109C328.756 329.307 328.503 328.622 328.029 328.055C327.483 327.414 326.756 327.094 325.85 327.094H322.186V338.5H323.436V333.367H324.217ZM334.975 331.195L335.819 329.734V338.5H337.069V327.094H335.897L333.889 330.57L334.975 331.195ZM341.569 330.852C341.064 330.852 340.58 330.945 340.116 331.133L340.515 328.344H344.054V327.094H339.429L338.687 332.328L339.741 332.859C340.246 332.354 340.856 332.102 341.569 332.102C342.278 332.102 342.884 332.354 343.39 332.859C343.89 333.359 344.14 333.966 344.14 334.68C344.14 335.388 343.89 335.995 343.39 336.5C342.884 337 342.278 337.25 341.569 337.25C341.095 337.25 340.655 337.13 340.249 336.891C339.843 336.651 339.528 336.323 339.304 335.906L338.202 336.5C338.536 337.12 339.004 337.609 339.608 337.969C340.213 338.323 340.866 338.5 341.569 338.5C342.621 338.5 343.523 338.128 344.273 337.383C345.017 336.633 345.39 335.732 345.39 334.68C345.39 333.622 345.017 332.721 344.273 331.977C343.523 331.227 342.621 330.852 341.569 330.852ZM347.704 338.591C347.424 338.591 347.183 338.491 346.982 338.29C346.782 338.089 346.681 337.848 346.681 337.568C346.681 337.288 346.782 337.047 346.982 336.847C347.183 336.646 347.424 336.545 347.704 336.545C347.984 336.545 348.225 336.646 348.426 336.847C348.626 337.047 348.727 337.288 348.727 337.568C348.727 337.754 348.679 337.924 348.585 338.08C348.494 338.235 348.371 338.36 348.215 338.455C348.064 338.545 347.893 338.591 347.704 338.591ZM354.32 327.094C353.252 327.094 352.338 327.471 351.578 328.227C350.823 328.982 350.445 329.893 350.445 330.961V334.633C350.445 335.701 350.823 336.612 351.578 337.367C352.338 338.122 353.252 338.5 354.32 338.5C355.388 338.5 356.299 338.122 357.054 337.367C357.81 336.612 358.187 335.701 358.187 334.633V330.961C358.187 329.893 357.81 328.982 357.054 328.227C356.299 327.471 355.388 327.094 354.32 327.094ZM356.937 334.633C356.937 335.357 356.682 335.974 356.172 336.484C355.661 336.995 355.044 337.25 354.32 337.25C353.596 337.25 352.976 336.995 352.461 336.484C351.95 335.974 351.695 335.357 351.695 334.633V330.961C351.695 330.237 351.95 329.62 352.461 329.109C352.976 328.599 353.596 328.344 354.32 328.344C355.044 328.344 355.661 328.599 356.172 329.109C356.682 329.62 356.937 330.237 356.937 330.961V334.633ZM360.047 337.945L361.164 338.5L366.68 327.195L365.562 326.641L360.047 337.945ZM361.734 331.156C362.328 331.156 362.833 330.945 363.25 330.523C363.672 330.107 363.883 329.602 363.883 329.008C363.883 328.419 363.672 327.914 363.25 327.492C362.833 327.076 362.328 326.867 361.734 326.867C361.146 326.867 360.641 327.076 360.219 327.492C359.802 327.914 359.594 328.419 359.594 329.008C359.594 329.602 359.802 330.107 360.219 330.523C360.641 330.945 361.146 331.156 361.734 331.156ZM361.734 328.117C361.984 328.117 362.195 328.203 362.367 328.375C362.544 328.552 362.633 328.763 362.633 329.008C362.633 329.253 362.544 329.464 362.367 329.641C362.195 329.818 361.984 329.906 361.734 329.906C361.49 329.906 361.281 329.818 361.109 329.641C360.932 329.464 360.844 329.253 360.844 329.008C360.844 328.763 360.932 328.552 361.109 328.375C361.281 328.203 361.49 328.117 361.734 328.117ZM364.992 333.984C364.398 333.984 363.893 334.195 363.477 334.617C363.055 335.034 362.844 335.539 362.844 336.133C362.844 336.721 363.055 337.227 363.477 337.648C363.893 338.065 364.398 338.273 364.992 338.273C365.581 338.273 366.086 338.065 366.508 337.648C366.924 337.227 367.133 336.721 367.133 336.133C367.133 335.539 366.924 335.034 366.508 334.617C366.086 334.195 365.581 333.984 364.992 333.984ZM364.992 337.023C364.742 337.023 364.531 336.938 364.359 336.766C364.182 336.589 364.094 336.378 364.094 336.133C364.094 335.888 364.182 335.677 364.359 335.5C364.531 335.323 364.742 335.234 364.992 335.234C365.237 335.234 365.448 335.323 365.625 335.5C365.797 335.677 365.883 335.888 365.883 336.133C365.883 336.378 365.797 336.589 365.625 336.766C365.448 336.938 365.237 337.023 364.992 337.023Z" fill="#8A8595"/>
<path d="M41.5547 496.742L38.4297 503.168L35.3145 496.742H32.8535L37.3262 505.971V511H39.543V505.971L44.0156 496.742H41.5547ZM48.4594 500.131C46.9685 500.131 45.6957 500.668 44.641 501.742C43.5863 502.81 43.059 504.102 43.059 505.619C43.059 507.136 43.5863 508.428 44.641 509.496C45.6957 510.57 46.9685 511.107 48.4594 511.107C49.9438 511.107 51.2165 510.57 52.2777 509.496C53.3324 508.428 53.8598 507.136 53.8598 505.619C53.8598 504.102 53.3324 502.81 52.2777 501.742C51.2165 500.668 49.9438 500.131 48.4594 500.131ZM48.4594 508.842C47.5935 508.842 46.8513 508.529 46.2328 507.904C45.6273 507.273 45.3246 506.511 45.3246 505.619C45.3246 504.727 45.6273 503.965 46.2328 503.334C46.8513 502.709 47.5935 502.396 48.4594 502.396C49.3188 502.396 50.0577 502.709 50.6762 503.334C51.2882 503.965 51.5941 504.727 51.5941 505.619C51.5941 506.511 51.2882 507.273 50.6762 507.904C50.0577 508.529 49.3188 508.842 48.4594 508.842ZM64.7684 500.238H62.5516V505.727C62.5516 506.599 62.3042 507.341 61.8094 507.953C61.3146 508.572 60.7156 508.881 60.0125 508.881C59.3159 508.881 58.7202 508.572 58.2254 507.953C57.7241 507.335 57.4734 506.589 57.4734 505.717V500.238H55.2664V505.717C55.2664 507.201 55.7286 508.471 56.6531 509.525C57.5841 510.574 58.7039 511.098 60.0125 511.098C60.9305 511.098 61.7768 510.821 62.5516 510.268V511H64.7684V500.238ZM82.318 511L85.775 500.238H83.4605L81.5465 506.166L79.6324 500.238H77.9527L76.0387 506.166L74.1051 500.238H71.7809L75.2672 511H76.8102L78.7926 504.848L80.775 511H82.318ZM86.4199 511H88.6367V500.238H86.4199V511ZM87.5332 496.645C87.8783 496.645 88.168 496.765 88.4023 497.006C88.6367 497.24 88.7539 497.527 88.7539 497.865C88.7539 498.204 88.6367 498.493 88.4023 498.734C88.168 498.969 87.8783 499.086 87.5332 499.086C87.1947 499.086 86.9049 498.969 86.6641 498.734C86.4297 498.493 86.3125 498.204 86.3125 497.865C86.3125 497.527 86.4297 497.24 86.6641 497.006C86.9049 496.765 87.1947 496.645 87.5332 496.645ZM90.7953 511H93.0023V496.742H90.7953V511ZM95.3367 511H97.5438V496.742H95.3367V511ZM113.062 505.043H117.896C117.642 506.176 117.066 507.113 116.168 507.855C115.263 508.604 114.227 508.979 113.062 508.979C111.688 508.979 110.517 508.48 109.546 507.484C108.57 506.488 108.082 505.287 108.082 503.881C108.082 502.481 108.57 501.283 109.546 500.287C110.517 499.291 111.688 498.793 113.062 498.793C114 498.793 114.862 499.04 115.65 499.535C116.444 500.03 117.053 500.704 117.476 501.557L119.546 500.521C118.915 499.278 118.02 498.295 116.861 497.572C115.696 496.85 114.429 496.488 113.062 496.488C111.05 496.488 109.335 497.211 107.916 498.656C106.49 500.102 105.777 501.843 105.777 503.881C105.777 505.919 106.49 507.663 107.916 509.115C109.335 510.561 111.05 511.283 113.062 511.283C115.067 511.283 116.78 510.561 118.199 509.115C119.625 507.663 120.338 505.919 120.338 503.881V502.729H113.062V505.043ZM123.932 504.486C124.16 503.868 124.537 503.367 125.064 502.982C125.605 502.592 126.207 502.396 126.871 502.396C127.535 502.396 128.137 502.592 128.678 502.982C129.205 503.367 129.583 503.868 129.811 504.486H123.932ZM129.391 507.543C128.798 508.409 127.958 508.842 126.871 508.842C126.207 508.842 125.605 508.646 125.064 508.256C124.492 507.826 124.114 507.257 123.932 506.547H132.271V505.619C132.271 504.102 131.744 502.81 130.689 501.742C129.628 500.668 128.355 500.131 126.871 500.131C125.38 500.131 124.107 500.668 123.053 501.742C121.998 502.81 121.471 504.102 121.471 505.619C121.471 507.136 121.998 508.428 123.053 509.496C124.107 510.57 125.38 511.107 126.871 511.107C127.848 511.107 128.756 510.854 129.596 510.346C130.318 509.923 130.904 509.366 131.354 508.676L129.391 507.543ZM136.657 496.742H134.44V500.238H132.995V502.455H134.44V511H136.657V502.455H138.112V500.238H136.657V496.742Z" fill="#5B2CD3"/>
<path d="M273.182 511L279.334 498.695V496.742H269.686V498.959H276.717L270.702 511H273.182ZM281.679 504.828C281.945 504.548 282.242 504.268 282.567 503.988C283.049 503.617 283.596 503.432 284.208 503.432C284.943 503.432 285.572 503.692 286.093 504.213C286.62 504.74 286.884 505.372 286.884 506.107C286.884 506.843 286.62 507.471 286.093 507.992C285.572 508.52 284.943 508.783 284.208 508.783C283.147 508.783 282.362 508.314 281.854 507.377L281.327 506.41L279.374 507.465L279.901 508.441C280.331 509.229 280.933 509.851 281.708 510.307C282.476 510.769 283.309 511 284.208 511C285.555 511 286.708 510.521 287.665 509.564C288.615 508.607 289.091 507.455 289.091 506.107C289.091 504.76 288.615 503.607 287.665 502.65C286.708 501.693 285.555 501.215 284.208 501.215C283.778 501.215 283.355 501.27 282.938 501.381L283.28 498.988H288.251V496.771H281.366L280.487 502.904L280.36 503.812L281.679 504.828ZM290.195 512.855H291.552L292.431 510.785V508.725H290.155V511H290.976L290.195 512.855ZM299.033 496.586C297.672 496.586 296.507 497.068 295.537 498.031C294.573 499.001 294.091 500.167 294.091 501.527V506.254C294.091 507.615 294.573 508.78 295.537 509.75C296.507 510.714 297.672 511.195 299.033 511.195C300.4 511.195 301.565 510.714 302.529 509.75C303.499 508.78 303.984 507.615 303.984 506.254V501.527C303.984 500.167 303.499 499.001 302.529 498.031C301.565 497.068 300.4 496.586 299.033 496.586ZM301.767 506.254C301.767 507.003 301.5 507.644 300.966 508.178C300.433 508.712 299.788 508.979 299.033 508.979C298.284 508.979 297.643 508.712 297.109 508.178C296.575 507.644 296.308 507.003 296.308 506.254V501.527C296.308 500.772 296.575 500.128 297.109 499.594C297.643 499.06 298.284 498.793 299.033 498.793C299.788 498.793 300.433 499.06 300.966 499.594C301.5 500.128 301.767 500.772 301.767 501.527V506.254ZM310.684 496.586C309.323 496.586 308.158 497.068 307.188 498.031C306.224 499.001 305.742 500.167 305.742 501.527V506.254C305.742 507.615 306.224 508.78 307.188 509.75C308.158 510.714 309.323 511.195 310.684 511.195C312.051 511.195 313.216 510.714 314.18 509.75C315.15 508.78 315.635 507.615 315.635 506.254V501.527C315.635 500.167 315.15 499.001 314.18 498.031C313.216 497.068 312.051 496.586 310.684 496.586ZM313.418 506.254C313.418 507.003 313.151 507.644 312.617 508.178C312.083 508.712 311.439 508.979 310.684 508.979C309.935 508.979 309.294 508.712 308.76 508.178C308.226 507.644 307.959 507.003 307.959 506.254V501.527C307.959 500.772 308.226 500.128 308.76 499.594C309.294 499.06 309.935 498.793 310.684 498.793C311.439 498.793 312.083 499.06 312.617 499.594C313.151 500.128 313.418 500.772 313.418 501.527V506.254ZM322.334 496.586C320.974 496.586 319.808 497.068 318.838 498.031C317.875 499.001 317.393 500.167 317.393 501.527V506.254C317.393 507.615 317.875 508.78 318.838 509.75C319.808 510.714 320.974 511.195 322.334 511.195C323.702 511.195 324.867 510.714 325.83 509.75C326.801 508.78 327.286 507.615 327.286 506.254V501.527C327.286 500.167 326.801 499.001 325.83 498.031C324.867 497.068 323.702 496.586 322.334 496.586ZM325.069 506.254C325.069 507.003 324.802 507.644 324.268 508.178C323.734 508.712 323.09 508.979 322.334 508.979C321.586 508.979 320.944 508.712 320.411 508.178C319.877 507.644 319.61 507.003 319.61 506.254V501.527C319.61 500.772 319.877 500.128 320.411 499.594C320.944 499.06 321.586 498.793 322.334 498.793C323.09 498.793 323.734 499.06 324.268 499.594C324.802 500.128 325.069 500.772 325.069 501.527V506.254ZM339.728 498.842C340.34 498.842 340.864 499.034 341.3 499.418C341.73 499.796 341.945 500.255 341.945 500.795H344.23C344.23 499.63 343.79 498.63 342.911 497.797C342.032 496.97 340.971 496.557 339.728 496.557C338.484 496.557 337.423 496.97 336.544 497.797C335.665 498.63 335.226 499.63 335.226 500.795C335.226 502.11 335.714 503.122 336.691 503.832C337.251 504.242 338.155 504.617 339.405 504.955C340.415 505.235 341.072 505.486 341.378 505.707C341.756 505.98 341.945 506.404 341.945 506.977C341.945 507.517 341.73 507.976 341.3 508.354C340.864 508.738 340.34 508.93 339.728 508.93C339.116 508.93 338.592 508.738 338.155 508.354C337.726 507.976 337.511 507.517 337.511 506.977H335.226C335.226 508.142 335.665 509.138 336.544 509.965C337.423 510.798 338.484 511.215 339.728 511.215C340.971 511.215 342.032 510.798 342.911 509.965C343.79 509.138 344.23 508.142 344.23 506.977C344.23 505.642 343.735 504.617 342.745 503.9C342.185 503.49 341.274 503.113 340.011 502.768C338.995 502.481 338.331 502.221 338.019 501.986C337.68 501.732 337.511 501.335 337.511 500.795C337.511 500.255 337.726 499.796 338.155 499.418C338.592 499.034 339.116 498.842 339.728 498.842ZM349.504 504.672L351.261 500.443L353.019 504.672H349.504ZM350.392 496.742L344.464 511H346.867L348.586 506.889H353.937L355.646 511H358.039L352.13 496.742H350.392ZM360.783 502.758V498.959H363.273C363.905 498.959 364.357 499.223 364.631 499.75C364.794 500.049 364.882 500.388 364.895 500.766C364.921 501.41 364.8 501.872 364.533 502.152C364.143 502.556 363.221 502.758 361.77 502.758H360.783ZM368.127 511L363.801 504.838C364.797 504.656 365.572 504.271 366.125 503.686C366.828 502.956 367.157 501.954 367.111 500.678C367.072 499.617 366.724 498.715 366.066 497.973C365.35 497.152 364.419 496.742 363.273 496.742H358.566V511H360.783V504.398L365.422 511H368.127Z" fill="#5B2CD3"/>
<g filter="url(#filter1_d_2784_3166)">
<rect x="213" y="95" width="384" height="238" rx="20" fill="white"/>
</g>
<path d="M392.413 299.184L415.275 287.407L422.571 268.296L433.029 277.185L463.918 175.634L481.429 251.408L498.211 217.187L521.803 268.296L533.477 252.741L542.719 258.741L559.988 223.632" stroke="#73DCFA" stroke-width="3" stroke-linecap="round" stroke-linejoin="round"/>
<path d="M270.105 222.771C271.566 221.167 272.296 219.277 272.296 217.1C272.296 214.751 271.458 212.753 269.783 211.105C268.136 209.43 266.138 208.592 263.789 208.592C261.44 208.592 259.434 209.43 257.773 211.105C256.097 212.753 255.259 214.751 255.259 217.1C255.259 219.277 255.99 221.167 257.451 222.771C254.916 224.82 253.648 227.462 253.648 230.699C253.648 233.492 254.636 235.877 256.613 237.854C258.589 239.844 260.981 240.84 263.789 240.84C266.582 240.84 268.966 239.844 270.943 237.854C272.919 235.877 273.908 233.492 273.908 230.699C273.908 227.462 272.64 224.82 270.105 222.771ZM260.287 217.1C260.287 216.14 260.63 215.316 261.318 214.629C262.005 213.956 262.829 213.619 263.789 213.619C264.748 213.619 265.565 213.956 266.238 214.629C266.925 215.316 267.269 216.14 267.269 217.1C267.269 218.045 266.932 218.854 266.259 219.527C265.6 220.201 264.798 220.544 263.853 220.559H263.703C262.757 220.544 261.955 220.201 261.296 219.527C260.623 218.854 260.287 218.045 260.287 217.1ZM263.789 235.812C262.371 235.812 261.167 235.311 260.179 234.309C259.177 233.306 258.675 232.103 258.675 230.699C258.675 229.296 259.162 228.1 260.136 227.111C261.125 226.123 262.313 225.615 263.703 225.586H263.853C265.257 225.615 266.445 226.123 267.419 227.111C268.393 228.1 268.88 229.296 268.88 230.699C268.88 232.103 268.386 233.306 267.398 234.309C266.395 235.311 265.192 235.812 263.789 235.812ZM281.599 226.789C282.186 226.173 282.838 225.557 283.554 224.941C284.614 224.125 285.817 223.717 287.164 223.717C288.782 223.717 290.164 224.29 291.31 225.436C292.47 226.596 293.05 227.985 293.05 229.604C293.05 231.222 292.47 232.604 291.31 233.75C290.164 234.91 288.782 235.49 287.164 235.49C284.829 235.49 283.103 234.459 281.986 232.396L280.826 230.27L276.529 232.59L277.689 234.738C278.634 236.471 279.959 237.839 281.664 238.842C283.354 239.859 285.187 240.367 287.164 240.367C290.128 240.367 292.664 239.314 294.769 237.209C296.86 235.104 297.906 232.568 297.906 229.604C297.906 226.639 296.86 224.104 294.769 221.998C292.664 219.893 290.128 218.84 287.164 218.84C286.218 218.84 285.287 218.962 284.371 219.205L285.123 213.941H296.058V209.064H280.912L278.978 222.557L278.699 224.555L281.599 226.789ZM304.587 226.789C305.175 226.173 305.826 225.557 306.542 224.941C307.602 224.125 308.806 223.717 310.152 223.717C311.77 223.717 313.153 224.29 314.298 225.436C315.458 226.596 316.039 227.985 316.039 229.604C316.039 231.222 315.458 232.604 314.298 233.75C313.153 234.91 311.77 235.49 310.152 235.49C307.817 235.49 306.091 234.459 304.974 232.396L303.814 230.27L299.517 232.59L300.677 234.738C301.623 236.471 302.947 237.839 304.652 238.842C306.342 239.859 308.175 240.367 310.152 240.367C313.117 240.367 315.652 239.314 317.757 237.209C319.848 235.104 320.894 232.568 320.894 229.604C320.894 226.639 319.848 224.104 317.757 221.998C315.652 219.893 313.117 218.84 310.152 218.84C309.207 218.84 308.276 218.962 307.359 219.205L308.111 213.941H319.046V209.064H303.9L301.966 222.557L301.687 224.555L304.587 226.789ZM344.849 240.367L332.71 228.529L344.14 216.691H337.136L329.208 225.135V209H324.332V240.367H329.208V231.924L337.609 240.367H344.849Z" fill="#1E1B39"/>
<path d="M330.041 267.538C329.124 268.377 328.247 269.181 327.368 269.985C326.617 270.672 325.865 271.358 325.113 272.042C324.867 272.265 324.571 272.334 324.236 272.244C323.902 272.154 323.703 271.938 323.629 271.631C323.558 271.333 323.683 271.089 323.911 270.879C324.953 269.927 325.995 268.974 327.036 268.022C327.807 267.317 328.58 266.613 329.352 265.909C329.776 265.525 330.267 265.523 330.689 265.903C331.275 266.431 331.857 266.964 332.436 267.5C332.501 267.56 332.542 267.642 332.589 267.705L337.461 263.25C337.392 263.246 337.325 263.239 337.258 263.238C336.694 263.238 336.131 263.244 335.567 263.235C335.194 263.23 334.914 263.065 334.761 262.755C334.614 262.46 334.663 262.173 334.891 261.921C334.972 261.828 335.076 261.753 335.195 261.702C335.313 261.651 335.443 261.626 335.574 261.628C336.923 261.625 338.276 261.623 339.628 261.629C340.138 261.631 340.516 261.986 340.517 262.451C340.522 263.679 340.522 264.908 340.517 266.136C340.517 266.603 340.117 266.968 339.632 266.964C339.148 266.96 338.774 266.611 338.765 266.143C338.757 265.642 338.763 265.14 338.763 264.638V264.43L338.684 264.383C338.635 264.454 338.58 264.521 338.52 264.584C336.795 266.163 335.068 267.741 333.34 269.318C332.89 269.728 332.404 269.729 331.956 269.322C331.368 268.787 330.78 268.25 330.194 267.711C330.144 267.665 330.104 267.608 330.041 267.538Z" fill="#73DCFA"/>
<path d="M256.909 264.121H255.815V267.286H252.65V268.38H255.815V271.545H256.909V268.38H260.081V267.286H256.909V264.121ZM265.693 265.953C266.268 265.456 266.555 264.827 266.555 264.066C266.555 263.378 266.309 262.788 265.816 262.296C265.329 261.808 264.739 261.564 264.046 261.564C263.567 261.564 263.123 261.692 262.713 261.947C262.303 262.207 261.993 262.551 261.783 262.979L261.551 263.472L262.535 263.95L262.774 263.458C263.03 262.925 263.453 262.658 264.046 262.658C264.438 262.658 264.771 262.795 265.044 263.068C265.322 263.346 265.461 263.679 265.461 264.066C265.461 264.426 265.34 264.741 265.099 265.01C264.862 265.279 264.568 265.434 264.217 265.475H263.499V266.568H264.224C264.72 266.614 265.14 266.824 265.481 267.197C265.823 267.566 265.994 268.004 265.994 268.51C265.994 269.043 265.803 269.501 265.42 269.884C265.042 270.262 264.584 270.451 264.046 270.451C263.276 270.451 262.706 270.112 262.337 269.433L262.077 268.954L261.113 269.474L261.373 269.959C261.642 270.447 262.016 270.834 262.494 271.121C262.973 271.404 263.49 271.545 264.046 271.545C264.884 271.545 265.6 271.249 266.192 270.656C266.789 270.064 267.088 269.348 267.088 268.51C267.088 267.407 266.623 266.555 265.693 265.953ZM271.333 270.52C270.709 270.52 270.178 270.301 269.74 269.863C269.298 269.421 269.077 268.89 269.077 268.271C269.077 267.91 269.161 267.569 269.33 267.245L269.501 266.958C269.952 266.329 270.563 266.015 271.333 266.015C271.953 266.015 272.484 266.236 272.926 266.678C273.363 267.115 273.582 267.646 273.582 268.271C273.582 268.89 273.363 269.421 272.926 269.863C272.484 270.301 271.953 270.52 271.333 270.52ZM271.524 261.564L268.592 266.35C268.51 266.468 268.435 266.589 268.366 266.712L268.312 266.801L268.318 266.808C268.095 267.268 267.983 267.756 267.983 268.271C267.983 269.191 268.312 269.979 268.968 270.636C269.619 271.287 270.408 271.613 271.333 271.613C272.254 271.613 273.042 271.287 273.698 270.636C274.35 269.979 274.676 269.191 274.676 268.271C274.676 267.345 274.35 266.557 273.698 265.905C273.042 265.249 272.254 264.921 271.333 264.921C271.128 264.921 270.921 264.941 270.711 264.982L272.803 261.564H271.524ZM277.056 271.624C276.811 271.624 276.6 271.537 276.425 271.361C276.249 271.185 276.161 270.975 276.161 270.73C276.161 270.484 276.249 270.274 276.425 270.098C276.6 269.923 276.811 269.835 277.056 269.835C277.301 269.835 277.512 269.923 277.687 270.098C277.863 270.274 277.951 270.484 277.951 270.73C277.951 270.892 277.909 271.041 277.827 271.177C277.747 271.313 277.639 271.422 277.503 271.505C277.371 271.585 277.222 271.624 277.056 271.624ZM283.836 265.953C284.41 265.456 284.697 264.827 284.697 264.066C284.697 263.378 284.451 262.788 283.959 262.296C283.471 261.808 282.881 261.564 282.188 261.564C281.71 261.564 281.266 261.692 280.855 261.947C280.445 262.207 280.135 262.551 279.926 262.979L279.693 263.472L280.678 263.95L280.917 263.458C281.172 262.925 281.596 262.658 282.188 262.658C282.58 262.658 282.913 262.795 283.187 263.068C283.465 263.346 283.604 263.679 283.604 264.066C283.604 264.426 283.483 264.741 283.241 265.01C283.004 265.279 282.71 265.434 282.359 265.475H281.642V266.568H282.366C282.863 266.614 283.282 266.824 283.624 267.197C283.966 267.566 284.137 268.004 284.137 268.51C284.137 269.043 283.945 269.501 283.562 269.884C283.184 270.262 282.726 270.451 282.188 270.451C281.418 270.451 280.849 270.112 280.479 269.433L280.22 268.954L279.256 269.474L279.516 269.959C279.785 270.447 280.158 270.834 280.637 271.121C281.115 271.404 281.632 271.545 282.188 271.545C283.027 271.545 283.743 271.249 284.335 270.656C284.932 270.064 285.23 269.348 285.23 268.51C285.23 267.407 284.766 266.555 283.836 265.953ZM291.82 261.571L290.822 261.564L286.023 268.633V269.494H290.727V271.545H291.82V269.494H292.982V268.4H291.82V261.571ZM287.404 268.4L290.72 263.431V268.4H287.404ZM294.404 271.06L295.382 271.545L300.208 261.653L299.23 261.168L294.404 271.06ZM295.881 265.119C296.4 265.119 296.842 264.935 297.207 264.565C297.576 264.201 297.761 263.759 297.761 263.239C297.761 262.724 297.576 262.282 297.207 261.913C296.842 261.549 296.4 261.366 295.881 261.366C295.366 261.366 294.924 261.549 294.555 261.913C294.19 262.282 294.008 262.724 294.008 263.239C294.008 263.759 294.19 264.201 294.555 264.565C294.924 264.935 295.366 265.119 295.881 265.119ZM295.881 262.46C296.1 262.46 296.284 262.535 296.435 262.686C296.59 262.84 296.667 263.025 296.667 263.239C296.667 263.453 296.59 263.638 296.435 263.793C296.284 263.948 296.1 264.025 295.881 264.025C295.667 264.025 295.484 263.948 295.334 263.793C295.179 263.638 295.102 263.453 295.102 263.239C295.102 263.025 295.179 262.84 295.334 262.686C295.484 262.535 295.667 262.46 295.881 262.46ZM298.731 267.594C298.212 267.594 297.77 267.778 297.405 268.147C297.036 268.512 296.852 268.954 296.852 269.474C296.852 269.989 297.036 270.431 297.405 270.8C297.77 271.164 298.212 271.347 298.731 271.347C299.246 271.347 299.688 271.164 300.058 270.8C300.422 270.431 300.604 269.989 300.604 269.474C300.604 268.954 300.422 268.512 300.058 268.147C299.688 267.778 299.246 267.594 298.731 267.594ZM298.731 270.253C298.513 270.253 298.328 270.178 298.178 270.027C298.023 269.872 297.945 269.688 297.945 269.474C297.945 269.259 298.023 269.075 298.178 268.92C298.328 268.765 298.513 268.688 298.731 268.688C298.946 268.688 299.13 268.765 299.285 268.92C299.436 269.075 299.511 269.259 299.511 269.474C299.511 269.688 299.436 269.872 299.285 270.027C299.13 270.178 298.946 270.253 298.731 270.253Z" fill="#73DCFA"/>
<path d="M252.025 155.119V157.114H254.776V167.951H256.771V157.114H259.531V155.119H252.025ZM264.593 158.169C263.251 158.169 262.106 158.652 261.157 159.619C260.208 160.58 259.733 161.743 259.733 163.108C259.733 164.474 260.208 165.637 261.157 166.598C262.106 167.564 263.251 168.048 264.593 168.048C265.929 168.048 267.075 167.564 268.03 166.598C268.979 165.637 269.454 164.474 269.454 163.108C269.454 161.743 268.979 160.58 268.03 159.619C267.075 158.652 265.929 158.169 264.593 158.169ZM264.593 166.009C263.814 166.009 263.146 165.728 262.589 165.165C262.044 164.597 261.772 163.911 261.772 163.108C261.772 162.306 262.044 161.62 262.589 161.052C263.146 160.489 263.814 160.208 264.593 160.208C265.367 160.208 266.032 160.489 266.588 161.052C267.139 161.62 267.415 162.306 267.415 163.108C267.415 163.911 267.139 164.597 266.588 165.165C266.032 165.728 265.367 166.009 264.593 166.009ZM273.76 155.119H271.765V158.266H270.464V160.261H271.765V167.951H273.76V160.261H275.07V158.266H273.76V155.119ZM285.705 158.266H283.666V159.092C282.822 158.477 281.881 158.169 280.844 158.169C279.502 158.169 278.357 158.652 277.408 159.619C276.458 160.58 275.984 161.743 275.984 163.108C275.984 164.474 276.458 165.637 277.408 166.598C278.357 167.564 279.502 168.048 280.844 168.048C281.881 168.048 282.822 167.737 283.666 167.116V167.951H285.705V158.266ZM280.844 166.009C280.065 166.009 279.397 165.728 278.84 165.165C278.295 164.597 278.023 163.911 278.023 163.108C278.023 162.306 278.295 161.62 278.84 161.052C279.397 160.489 280.065 160.208 280.844 160.208C281.618 160.208 282.283 160.489 282.839 161.052C283.39 161.62 283.666 162.306 283.666 163.108C283.666 163.911 283.39 164.597 282.839 165.165C282.283 165.728 281.618 166.009 280.844 166.009ZM287.814 167.951H289.8V155.119H287.814V167.951ZM303.045 158.134C302.002 158.134 301.059 158.441 300.215 159.057V158.266H298.185V171.203H300.215V167.081C301.059 167.702 302.002 168.013 303.045 168.013C304.381 168.013 305.527 167.529 306.482 166.562C307.431 165.602 307.906 164.438 307.906 163.073C307.906 161.714 307.431 160.554 306.482 159.593C305.527 158.62 304.381 158.134 303.045 158.134ZM303.045 165.982C302.26 165.982 301.592 165.698 301.042 165.13C300.491 164.562 300.215 163.876 300.215 163.073C300.215 162.276 300.491 161.594 301.042 161.025C301.592 160.457 302.26 160.173 303.045 160.173C303.819 160.173 304.481 160.457 305.032 161.025C305.588 161.594 305.867 162.276 305.867 163.073C305.867 163.876 305.588 164.562 305.032 165.13C304.481 165.698 303.819 165.982 303.045 165.982ZM311.536 158.266H309.541V167.951H311.536V163.1C311.536 162.32 311.776 161.652 312.256 161.096C312.743 160.539 313.326 160.261 314.005 160.261H315.007V158.266H314.005C313.103 158.266 312.28 158.535 311.536 159.074V158.266ZM320.615 158.169C319.273 158.169 318.127 158.652 317.178 159.619C316.229 160.58 315.754 161.743 315.754 163.108C315.754 164.474 316.229 165.637 317.178 166.598C318.127 167.564 319.273 168.048 320.615 168.048C321.951 168.048 323.096 167.564 324.051 166.598C325 165.637 325.475 164.474 325.475 163.108C325.475 161.743 325 160.58 324.051 159.619C323.096 158.652 321.951 158.169 320.615 158.169ZM320.615 166.009C319.835 166.009 319.167 165.728 318.611 165.165C318.066 164.597 317.793 163.911 317.793 163.108C317.793 162.306 318.066 161.62 318.611 161.052C319.167 160.489 319.835 160.208 320.615 160.208C321.388 160.208 322.053 160.489 322.61 161.052C323.161 161.62 323.436 162.306 323.436 163.108C323.436 163.911 323.161 164.597 322.61 165.165C322.053 165.728 321.388 166.009 320.615 166.009ZM329.043 156.033C328.481 156.572 328.165 157.316 328.094 158.266H327.101V160.261H328.077V167.951H330.072V160.261H332.796V158.266H330.098C330.145 157.902 330.25 157.642 330.415 157.483C330.655 157.255 331.088 157.141 331.715 157.141H332.814V155.146H331.715C330.555 155.146 329.665 155.441 329.043 156.033ZM334.317 167.951H336.312V158.266H334.317V167.951ZM335.319 155.031C335.629 155.031 335.89 155.14 336.101 155.356C336.312 155.567 336.417 155.825 336.417 156.13C336.417 156.435 336.312 156.695 336.101 156.912C335.89 157.123 335.629 157.229 335.319 157.229C335.014 157.229 334.753 157.123 334.537 156.912C334.326 156.695 334.22 156.435 334.22 156.13C334.22 155.825 334.326 155.567 334.537 155.356C334.753 155.14 335.014 155.031 335.319 155.031ZM341.032 155.119H339.037V158.266H337.736V160.261H339.037V167.951H341.032V160.261H342.341V158.266H341.032V155.119Z" fill="#1E1B39"/>
<path d="M257.068 137.386H260.917C260.784 138.356 260.356 139.168 259.631 139.819C258.898 140.471 258.043 140.797 257.068 140.797C255.997 140.797 255.081 140.41 254.32 139.635C253.559 138.86 253.178 137.924 253.178 136.825C253.178 135.727 253.559 134.79 254.32 134.016C255.081 133.241 255.997 132.854 257.068 132.854C257.802 132.854 258.478 133.045 259.098 133.428C259.718 133.815 260.194 134.344 260.527 135.014L261.525 134.508C261.097 133.656 260.484 132.981 259.686 132.484C258.884 131.983 258.011 131.732 257.068 131.732C255.687 131.732 254.507 132.231 253.527 133.229C252.552 134.223 252.064 135.422 252.064 136.825C252.064 138.229 252.552 139.427 253.527 140.421C254.507 141.419 255.687 141.918 257.068 141.918C258.444 141.918 259.625 141.419 260.609 140.421C261.584 139.427 262.072 138.229 262.072 136.825V136.265H257.068V137.386ZM264.369 134.398H263.275V141.815H264.369V138.24C264.369 137.52 264.594 136.859 265.045 136.258C265.497 135.747 266.041 135.492 266.679 135.492H266.748V134.398H266.679C265.791 134.398 265.02 134.774 264.369 135.526V134.398ZM270.986 134.323C269.956 134.323 269.076 134.692 268.347 135.431C267.623 136.174 267.26 137.067 267.26 138.11C267.26 139.149 267.623 140.04 268.347 140.783C269.076 141.521 269.956 141.891 270.986 141.891C272.007 141.891 272.882 141.521 273.611 140.783C274.335 140.04 274.698 139.149 274.698 138.11C274.698 137.067 274.335 136.174 273.611 135.431C272.882 134.692 272.007 134.323 270.986 134.323ZM270.986 140.776C270.266 140.776 269.651 140.514 269.14 139.99C268.63 139.471 268.375 138.844 268.375 138.11C268.375 137.377 268.63 136.748 269.14 136.224C269.651 135.7 270.266 135.438 270.986 135.438C271.701 135.438 272.314 135.7 272.825 136.224C273.331 136.748 273.583 137.377 273.583 138.11C273.583 138.844 273.331 139.471 272.825 139.99C272.314 140.514 271.701 140.776 270.986 140.776ZM283.837 134.398L282.067 139.867L280.549 135.157H279.51L277.993 139.867L276.229 134.398H275.081L277.473 141.815H278.512L280.03 137.105L281.547 141.815H282.586L284.986 134.398H283.837ZM291.193 134.398H290.079V138.056C290.079 139.054 290.441 139.922 291.166 140.66C291.849 141.398 292.683 141.768 293.667 141.768C294.583 141.768 295.404 141.408 296.128 140.688C296.106 141.403 295.844 142.014 295.342 142.52C294.882 143.021 294.324 143.271 293.667 143.271C293.248 143.271 292.824 143.155 292.396 142.923C292.018 142.695 291.706 142.387 291.459 142L290.516 142.595C290.862 143.142 291.332 143.577 291.924 143.9C292.48 144.229 293.061 144.393 293.667 144.393C294.542 144.393 295.306 144.085 295.958 143.47C296.65 142.859 297.065 142.096 297.202 141.18L297.243 140.77V134.398H296.128V138.056C296.128 138.744 295.873 139.35 295.363 139.874C294.903 140.394 294.337 140.653 293.667 140.653C293.025 140.649 292.455 140.389 291.958 139.874C291.448 139.35 291.193 138.744 291.193 138.056V134.398ZM302.103 134.323C301.073 134.323 300.194 134.692 299.464 135.431C298.74 136.174 298.377 137.067 298.377 138.11C298.377 139.149 298.74 140.04 299.464 140.783C300.194 141.521 301.073 141.891 302.103 141.891C303.124 141.891 303.999 141.521 304.728 140.783C305.453 140.04 305.815 139.149 305.815 138.11C305.815 137.067 305.453 136.174 304.728 135.431C303.999 134.692 303.124 134.323 302.103 134.323ZM302.103 140.776C301.383 140.776 300.768 140.514 300.257 139.99C299.747 139.471 299.492 138.844 299.492 138.11C299.492 137.377 299.747 136.748 300.257 136.224C300.768 135.7 301.383 135.438 302.103 135.438C302.819 135.438 303.431 135.7 303.942 136.224C304.448 136.748 304.701 137.377 304.701 138.11C304.701 138.844 304.448 139.471 303.942 139.99C303.431 140.514 302.819 140.776 302.103 140.776ZM313.437 134.398H312.343V138.179C312.343 138.899 312.131 139.514 311.708 140.024C311.288 140.535 310.782 140.79 310.19 140.79C309.597 140.79 309.089 140.535 308.666 140.024C308.246 139.514 308.037 138.896 308.037 138.172V134.378H306.943V138.172C306.943 139.197 307.26 140.072 307.893 140.797C308.531 141.521 309.297 141.884 310.19 141.884C311.01 141.884 311.728 141.572 312.343 140.947V141.815H313.437V134.398ZM316.035 134.398H314.941V141.815H316.035V138.24C316.035 137.52 316.26 136.859 316.711 136.258C317.163 135.747 317.707 135.492 318.345 135.492H318.414V134.398H318.345C317.457 134.398 316.686 134.774 316.035 135.526V134.398ZM327.594 134.303C326.578 134.303 325.708 134.667 324.983 135.396V134.398H323.869V144.379H324.983V140.79C325.708 141.51 326.578 141.87 327.594 141.87C328.615 141.87 329.49 141.501 330.219 140.763C330.944 140.024 331.306 139.133 331.306 138.09C331.306 137.046 330.944 136.155 330.219 135.417C329.49 134.674 328.615 134.303 327.594 134.303ZM327.594 140.756C326.874 140.756 326.259 140.496 325.749 139.977C325.238 139.452 324.983 138.824 324.983 138.09V138.083C324.983 137.349 325.238 136.723 325.749 136.203C326.259 135.684 326.874 135.424 327.594 135.424C328.31 135.424 328.923 135.684 329.433 136.203C329.939 136.727 330.192 137.356 330.192 138.09C330.192 138.824 329.939 139.452 329.433 139.977C328.923 140.496 328.31 140.756 327.594 140.756ZM335.859 134.323C334.829 134.323 333.949 134.692 333.22 135.431C332.496 136.174 332.133 137.067 332.133 138.11C332.133 139.149 332.496 140.04 333.22 140.783C333.949 141.521 334.829 141.891 335.859 141.891C336.88 141.891 337.755 141.521 338.484 140.783C339.208 140.04 339.571 139.149 339.571 138.11C339.571 137.067 339.208 136.174 338.484 135.431C337.755 134.692 336.88 134.323 335.859 134.323ZM335.859 140.776C335.139 140.776 334.524 140.514 334.013 139.99C333.503 139.471 333.248 138.844 333.248 138.11C333.248 137.377 333.503 136.748 334.013 136.224C334.524 135.7 335.139 135.438 335.859 135.438C336.574 135.438 337.187 135.7 337.698 136.224C338.204 136.748 338.457 137.377 338.457 138.11C338.457 138.844 338.204 139.471 337.698 139.99C337.187 140.514 336.574 140.776 335.859 140.776ZM341.792 134.398H340.699V141.815H341.792V138.24C341.792 137.52 342.018 136.859 342.469 136.258C342.92 135.747 343.465 135.492 344.103 135.492H344.171V134.398H344.103C343.214 134.398 342.444 134.774 341.792 135.526V134.398ZM346.817 131.835H345.723V134.398H344.65V135.492H345.723V141.815H346.817V135.492H347.89V134.398H346.817V131.835ZM350.495 132.491C350.034 132.929 349.8 133.564 349.791 134.398H348.984V135.492H349.784V141.815H350.877V135.492H352.224V134.398H350.884C350.889 133.879 351.01 133.507 351.247 133.284C351.497 133.047 351.919 132.929 352.511 132.929H352.655V131.835H352.511C351.627 131.835 350.955 132.054 350.495 132.491ZM356.832 134.323C355.802 134.323 354.922 134.692 354.193 135.431C353.468 136.174 353.106 137.067 353.106 138.11C353.106 139.149 353.468 140.04 354.193 140.783C354.922 141.521 355.802 141.891 356.832 141.891C357.852 141.891 358.727 141.521 359.457 140.783C360.181 140.04 360.543 139.149 360.543 138.11C360.543 137.067 360.181 136.174 359.457 135.431C358.727 134.692 357.852 134.323 356.832 134.323ZM356.832 140.776C356.111 140.776 355.496 140.514 354.986 139.99C354.475 139.471 354.22 138.844 354.22 138.11C354.22 137.377 354.475 136.748 354.986 136.224C355.496 135.7 356.111 135.438 356.832 135.438C357.547 135.438 358.16 135.7 358.67 136.224C359.176 136.748 359.429 137.377 359.429 138.11C359.429 138.844 359.176 139.471 358.67 139.99C358.16 140.514 357.547 140.776 356.832 140.776ZM361.808 141.815H362.902V131.835H361.808V141.815ZM364.611 141.815H365.705V134.398H364.611V141.815ZM365.151 131.842C365.338 131.842 365.495 131.908 365.623 132.04C365.75 132.168 365.814 132.323 365.814 132.505C365.814 132.687 365.75 132.844 365.623 132.977C365.495 133.104 365.338 133.168 365.151 133.168C364.969 133.168 364.811 133.104 364.679 132.977C364.552 132.844 364.488 132.687 364.488 132.505C364.488 132.323 364.552 132.168 364.679 132.04C364.811 131.908 364.969 131.842 365.151 131.842ZM370.626 134.323C369.597 134.323 368.717 134.692 367.988 135.431C367.263 136.174 366.901 137.067 366.901 138.11C366.901 139.149 367.263 140.04 367.988 140.783C368.717 141.521 369.597 141.891 370.626 141.891C371.647 141.891 372.522 141.521 373.251 140.783C373.976 140.04 374.338 139.149 374.338 138.11C374.338 137.067 373.976 136.174 373.251 135.431C372.522 134.692 371.647 134.323 370.626 134.323ZM370.626 140.776C369.906 140.776 369.291 140.514 368.781 139.99C368.27 139.471 368.015 138.844 368.015 138.11C368.015 137.377 368.27 136.748 368.781 136.224C369.291 135.7 369.906 135.438 370.626 135.438C371.342 135.438 371.955 135.7 372.465 136.224C372.971 136.748 373.224 137.377 373.224 138.11C373.224 138.844 372.971 139.471 372.465 139.99C371.955 140.514 371.342 140.776 370.626 140.776ZM388.044 134.398L386.274 139.867L384.756 135.157H383.717L382.2 139.867L380.436 134.398H379.288L381.68 141.815H382.719L384.237 137.105L385.754 141.815H386.793L389.193 134.398H388.044ZM390.027 141.815H391.121V134.398H390.027V141.815ZM390.567 131.842C390.754 131.842 390.911 131.908 391.039 132.04C391.166 132.168 391.23 132.323 391.23 132.505C391.23 132.687 391.166 132.844 391.039 132.977C390.911 133.104 390.754 133.168 390.567 133.168C390.385 133.168 390.227 133.104 390.095 132.977C389.968 132.844 389.904 132.687 389.904 132.505C389.904 132.323 389.968 132.168 390.095 132.04C390.227 131.908 390.385 131.842 390.567 131.842ZM394.45 131.835H393.356V134.398H392.283V135.492H393.356V141.815H394.45V135.492H395.523V134.398H394.45V131.835ZM400.021 134.31C399.132 134.31 398.362 134.64 397.71 135.301V131.842H396.617V141.815H397.71V138.015C397.71 137.295 397.936 136.679 398.387 136.169C398.838 135.659 399.383 135.403 400.021 135.403C400.654 135.403 401.197 135.659 401.648 136.169C402.099 136.684 402.325 137.301 402.325 138.021V141.815H403.418V138.021C403.418 136.996 403.088 136.121 402.427 135.396C401.762 134.672 400.96 134.31 400.021 134.31ZM415.921 134.398H414.828V138.179C414.828 138.899 414.616 139.514 414.192 140.024C413.773 140.535 413.267 140.79 412.674 140.79C412.082 140.79 411.574 140.535 411.15 140.024C410.731 139.514 410.521 138.896 410.521 138.172V134.378H409.427V138.172C409.427 139.197 409.744 140.072 410.377 140.797C411.015 141.521 411.781 141.884 412.674 141.884C413.495 141.884 414.212 141.572 414.828 140.947V141.815H415.921V134.398ZM419.428 135.438C419.756 135.438 420.039 135.542 420.276 135.752C420.508 135.957 420.625 136.205 420.625 136.497H421.739C421.739 135.9 421.513 135.387 421.062 134.959C420.611 134.535 420.066 134.323 419.428 134.323C418.79 134.323 418.246 134.535 417.794 134.959C417.343 135.387 417.118 135.9 417.118 136.497C417.118 137.172 417.364 137.689 417.856 138.049C418.139 138.258 418.61 138.454 419.271 138.637C419.8 138.783 420.148 138.917 420.317 139.04C420.522 139.186 420.625 139.414 420.625 139.724C420.625 140.015 420.508 140.264 420.276 140.469C420.039 140.674 419.756 140.776 419.428 140.776C419.1 140.776 418.818 140.674 418.581 140.469C418.348 140.264 418.232 140.015 418.232 139.724H417.118C417.118 140.321 417.343 140.831 417.794 141.255C418.246 141.679 418.79 141.891 419.428 141.891C420.066 141.891 420.611 141.679 421.062 141.255C421.513 140.831 421.739 140.321 421.739 139.724C421.739 139.04 421.493 138.516 421 138.151C420.713 137.942 420.237 137.743 419.572 137.557C419.048 137.415 418.704 137.285 418.54 137.167C418.334 137.021 418.232 136.798 418.232 136.497C418.232 136.205 418.348 135.957 418.581 135.752C418.818 135.542 419.1 135.438 419.428 135.438Z" fill="#9291A5"/>
<defs>
<filter id="filter0_d_2784_3166" x="0" y="256" width="408" height="321" filterUnits="userSpaceOnUse" color-interpolation-filters="sRGB">
<feFlood flood-opacity="0" result="BackgroundImageFix"/>
<feColorMatrix in="SourceAlpha" type="matrix" values="0 0 0 0 0 0 0 0 0 0 0 0 0 0 0 0 0 0 127 0" result="hardAlpha"/>
<feOffset dx="4" dy="11"/>
<feGaussianBlur stdDeviation="6"/>
<feComposite in2="hardAlpha" operator="out"/>
<feColorMatrix type="matrix" values="0 0 0 0 0 0 0 0 0 0 0 0 0 0 0 0 0 0 0.1 0"/>
<feBlend mode="normal" in2="BackgroundImageFix" result="effect1_dropShadow_2784_3166"/>
<feBlend mode="normal" in="SourceGraphic" in2="effect1_dropShadow_2784_3166" result="shape"/>
</filter>
<filter id="filter1_d_2784_3166" x="205" y="94" width="408" height="262" filterUnits="userSpaceOnUse" color-interpolation-filters="sRGB">
<feFlood flood-opacity="0" result="BackgroundImageFix"/>
<feColorMatrix in="SourceAlpha" type="matrix" values="0 0 0 0 0 0 0 0 0 0 0 0 0 0 0 0 0 0 127 0" result="hardAlpha"/>
<feOffset dx="4" dy="11"/>
<feGaussianBlur stdDeviation="6"/>
<feComposite in2="hardAlpha" operator="out"/>
<feColorMatrix type="matrix" values="0 0 0 0 0 0 0 0 0 0 0 0 0 0 0 0 0 0 0.1 0"/>
<feBlend mode="normal" in2="BackgroundImageFix" result="effect1_dropShadow_2784_3166"/>
<feBlend mode="normal" in="SourceGraphic" in2="effect1_dropShadow_2784_3166" result="shape"/>
</filter>
<linearGradient id="paint0_linear_2784_3166" x1="33" y1="438" x2="123" y2="438" gradientUnits="userSpaceOnUse">
<stop stop-color="#5B2CD3"/>
<stop offset="1" stop-color="#37A3FF"/>
</linearGradient>
</defs>
</svg>
