<svg width="44" height="44" viewBox="0 0 44 44" fill="none" xmlns="http://www.w3.org/2000/svg">
<circle cx="22.0004" cy="22.0004" r="20.0004" fill="url(#paint0_linear_3039_3173)"/>
<g filter="url(#filter0_b_3039_3173)">
<rect x="1" y="1" width="42.5009" height="42.5009" rx="12" fill="url(#paint1_linear_3039_3173)" fill-opacity="0.24"/>
<rect x="1" y="1" width="42.5009" height="42.5009" rx="12" stroke="url(#paint2_linear_3039_3173)" stroke-width="0.5" stroke-linecap="round" stroke-linejoin="round"/>
</g>
<path d="M23.5 23.5C22.6667 23.5 21.9583 23.2083 21.375 22.625C20.7917 22.0417 20.5 21.3333 20.5 20.5C20.5 19.6667 20.7917 18.9583 21.375 18.375C21.9583 17.7917 22.6667 17.5 23.5 17.5C24.3333 17.5 25.0417 17.7917 25.625 18.375C26.2083 18.9583 26.5 19.6667 26.5 20.5C26.5 21.3333 26.2083 22.0417 25.625 22.625C25.0417 23.2083 24.3333 23.5 23.5 23.5ZM15.5 27C15.0875 27 14.7344 26.8531 14.4406 26.5594C14.1469 26.2656 14 25.9125 14 25.5V15.5C14 15.0875 14.1469 14.7344 14.4406 14.4406C14.7344 14.1469 15.0875 14 15.5 14H31.5C31.9125 14 32.2656 14.1469 32.5594 14.4406C32.8531 14.7344 33 15.0875 33 15.5V25.5C33 25.9125 32.8531 26.2656 32.5594 26.5594C32.2656 26.8531 31.9125 27 31.5 27H15.5ZM18 25.5H29C29 24.8 29.2417 24.2083 29.725 23.725C30.2083 23.2417 30.8 23 31.5 23V18C30.8 18 30.2083 17.7583 29.725 17.275C29.2417 16.7917 29 16.2 29 15.5H18C18 16.2 17.7583 16.7917 17.275 17.275C16.7917 17.7583 16.2 18 15.5 18V23C16.2 23 16.7917 23.2417 17.275 23.725C17.7583 24.2083 18 24.8 18 25.5ZM30 30H12.5C12.0875 30 11.7344 29.8531 11.4406 29.5594C11.1469 29.2656 11 28.9125 11 28.5V17H12.5V28.5H30V30Z" fill="white"/>
<defs>
<filter id="filter0_b_3039_3173" x="-23.25" y="-23.25" width="91.001" height="91.001" filterUnits="userSpaceOnUse" color-interpolation-filters="sRGB">
<feFlood flood-opacity="0" result="BackgroundImageFix"/>
<feGaussianBlur in="BackgroundImageFix" stdDeviation="12"/>
<feComposite in2="SourceAlpha" operator="in" result="effect1_backgroundBlur_3039_3173"/>
<feBlend mode="normal" in="SourceGraphic" in2="effect1_backgroundBlur_3039_3173" result="shape"/>
</filter>
<linearGradient id="paint0_linear_3039_3173" x1="42.0009" y1="22.0004" x2="2" y2="22.0004" gradientUnits="userSpaceOnUse">
<stop stop-color="#2B48F4"/>
<stop offset="1" stop-color="#34A5FF"/>
</linearGradient>
<linearGradient id="paint1_linear_3039_3173" x1="28.1881" y1="6.93763" x2="37.8758" y2="34.4382" gradientUnits="userSpaceOnUse">
<stop stop-color="#2D59F6"/>
<stop offset="1" stop-color="#34A0FF" stop-opacity="0.4"/>
</linearGradient>
<linearGradient id="paint2_linear_3039_3173" x1="3.27069" y1="4.07694" x2="35.9796" y2="44.5987" gradientUnits="userSpaceOnUse">
<stop stop-color="white" stop-opacity="0.25"/>
<stop offset="1" stop-color="white" stop-opacity="0"/>
</linearGradient>
</defs>
</svg>
