<svg width="32" height="45" viewBox="0 0 32 45" fill="none" xmlns="http://www.w3.org/2000/svg">
<path d="M3.53498 18.5507V0.477306C3.53498 0.20889 3.74982 -0.00584348 4.01639 0.000121324C7.01028 0.0617577 23.233 0.554849 31.6397 4.18145C31.8148 4.25701 31.9242 4.42998 31.9242 4.62086V39.6303C31.9242 39.8411 31.7869 40.028 31.584 40.0876C29.0934 40.8133 13.4496 45.2034 0.469474 44.9927C0.208876 44.9887 0 44.772 0 44.5115V28.5556C0 28.3051 0.188983 28.0983 0.439634 28.0804C3.67821 27.8578 23.9054 26.3666 30.289 23.4716C30.6709 23.2987 30.6729 22.7598 30.287 22.5968C27.9556 21.6146 20.5972 19.2148 4.01042 19.0239C3.74982 19.0219 3.53498 18.8091 3.53498 18.5487V18.5507Z" fill="#5B2CD3"/>
</svg>
