<svg width="38" height="38" viewBox="0 0 38 38" fill="none" xmlns="http://www.w3.org/2000/svg">
<path d="M27.3521 34.833C25.2823 34.833 23.5179 34.1036 22.0591 32.6448C20.6002 31.1859 19.8708 29.4216 19.8708 27.3518C19.8708 25.2819 20.6002 23.5176 22.0591 22.0588C23.5179 20.5999 25.2823 19.8705 27.3521 19.8705C29.4219 19.8705 31.1862 20.5999 32.6451 22.0588C34.1039 23.5176 34.8333 25.2819 34.8333 27.3518C34.8333 29.4216 34.1039 31.1859 32.6451 32.6448C31.1862 34.1036 29.4219 34.833 27.3521 34.833ZM29.6575 31.3497L30.7563 30.2413L27.7875 27.2726V22.8393H26.2437V27.8268L29.6575 31.3497ZM7.125 33.2497C6.47187 33.2497 5.91276 33.0171 5.44766 32.552C4.98255 32.0869 4.75 31.5278 4.75 30.8747V7.12467C4.75 6.43856 4.97431 5.8712 5.42292 5.42259C5.87153 4.97398 6.43889 4.74967 7.125 4.74967H15.1208C15.3056 3.82606 15.7608 3.06738 16.4865 2.47363C17.2122 1.87988 18.05 1.58301 19 1.58301C19.95 1.58301 20.7878 1.87988 21.5135 2.47363C22.2392 3.06738 22.6944 3.82606 22.8792 4.74967H30.875C31.5611 4.74967 32.1285 4.97398 32.5771 5.42259C33.0257 5.8712 33.25 6.43856 33.25 7.12467V19.3163C32.8542 19.0788 32.4647 18.8746 32.0817 18.7036C31.6986 18.5326 31.2964 18.3806 30.875 18.2476V7.12467H28.5V10.6872H9.5V7.12467H7.125V30.8747H18.2083C18.3403 31.2705 18.4986 31.6597 18.6833 32.0424C18.8681 32.425 19.0924 32.8275 19.3562 33.2497H7.125ZM19 6.96634C19.4486 6.96634 19.8247 6.8146 20.1281 6.51113C20.4316 6.20766 20.5833 5.83162 20.5833 5.38301C20.5833 4.9344 20.4316 4.55836 20.1281 4.25488C19.8247 3.95141 19.4486 3.79967 19 3.79967C18.5514 3.79967 18.1753 3.95141 17.8719 4.25488C17.5684 4.55836 17.4167 4.9344 17.4167 5.38301C17.4167 5.83162 17.5684 6.20766 17.8719 6.51113C18.1753 6.8146 18.5514 6.96634 19 6.96634Z" fill="white"/>
<path d="M27.3521 34.833C25.2823 34.833 23.5179 34.1036 22.0591 32.6448C20.6002 31.1859 19.8708 29.4216 19.8708 27.3518C19.8708 25.2819 20.6002 23.5176 22.0591 22.0588C23.5179 20.5999 25.2823 19.8705 27.3521 19.8705C29.4219 19.8705 31.1862 20.5999 32.6451 22.0588C34.1039 23.5176 34.8333 25.2819 34.8333 27.3518C34.8333 29.4216 34.1039 31.1859 32.6451 32.6448C31.1862 34.1036 29.4219 34.833 27.3521 34.833ZM29.6575 31.3497L30.7563 30.2413L27.7875 27.2726V22.8393H26.2437V27.8268L29.6575 31.3497Z" fill="#73DCFA"/>
</svg>
