<svg width="16" height="18" viewBox="0 0 16 18" fill="none" xmlns="http://www.w3.org/2000/svg">
<path d="M2.67191 17.8753C1.9452 17.8753 1.33025 17.6237 0.827057 17.1205C0.323863 16.6174 0.0722656 16.0006 0.0722656 15.2702V12.3771H2.85939V0.466797L4.17589 1.7639L5.4806 0.466797L6.77354 1.7639L8.09004 0.466797L9.38295 1.7639L10.6918 0.466797L11.989 1.7639L13.2978 0.466797L14.5949 1.7639L15.9274 0.466797V15.2757C15.9274 16.0024 15.6746 16.6174 15.1691 17.1205C14.6636 17.6237 14.0498 17.8753 13.3277 17.8753H2.67191ZM13.3336 16.2132C13.6074 16.2132 13.8312 16.1262 14.0048 15.9521C14.1784 15.778 14.2652 15.5518 14.2652 15.2733V2.99761H4.50979V12.3771H12.3902V15.2757C12.3902 15.5535 12.479 15.7792 12.6565 15.9528C12.834 16.1264 13.0597 16.2132 13.3336 16.2132ZM5.61395 6.35994V5.10994H10.3902V6.35994H5.61395ZM5.61395 9.15161V7.90161H10.3902V9.15161H5.61395ZM12.3277 6.35994C12.161 6.35994 12.0152 6.29744 11.8902 6.17244C11.7652 6.04744 11.7027 5.90161 11.7027 5.73494C11.7027 5.56828 11.7652 5.42244 11.8902 5.29744C12.0152 5.17244 12.161 5.10994 12.3277 5.10994C12.4944 5.10994 12.6402 5.17244 12.7652 5.29744C12.8902 5.42244 12.9527 5.56828 12.9527 5.73494C12.9527 5.90161 12.8902 6.04744 12.7652 6.17244C12.6402 6.29744 12.4944 6.35994 12.3277 6.35994ZM12.3277 9.04744C12.161 9.04744 12.0152 8.98494 11.8902 8.85994C11.7652 8.73494 11.7027 8.58911 11.7027 8.42244C11.7027 8.25578 11.7652 8.10994 11.8902 7.98494C12.0152 7.85994 12.161 7.79744 12.3277 7.79744C12.4944 7.79744 12.6402 7.85994 12.7652 7.98494C12.8902 8.10994 12.9527 8.25578 12.9527 8.42244C12.9527 8.58911 12.8902 8.73494 12.7652 8.85994C12.6402 8.98494 12.4944 9.04744 12.3277 9.04744ZM2.65108 16.2132H10.7398V14.0393H1.73441V15.2757C1.73441 15.5535 1.82226 15.7792 1.99795 15.9528C2.17365 16.1264 2.39136 16.2132 2.65108 16.2132Z" fill="#8A8595"/>
</svg>
