<svg width="95" height="94" viewBox="0 0 95 94" fill="none" xmlns="http://www.w3.org/2000/svg">
<circle cx="60.818" cy="34.1812" r="34.1812" fill="url(#paint0_linear_3039_2718)"/>
<g filter="url(#filter0_b_3039_2718)">
<rect x="1" y="20.9895" width="72.6351" height="72.6351" rx="16" fill="url(#paint1_linear_3039_2718)" fill-opacity="0.24"/>
<rect x="1" y="20.9895" width="72.6351" height="72.6351" rx="16" stroke="url(#paint2_linear_3039_2718)" stroke-width="0.5" stroke-linecap="round" stroke-linejoin="round"/>
</g>
<path d="M26.7121 74.2241C25.4922 74.2241 24.4552 73.7971 23.6013 72.9431C22.7473 72.0892 22.3203 71.0522 22.3203 69.8322V64.6039H27.6323V40.7625L30.1336 43.2721L32.6349 40.7625L35.1361 43.2721L37.6374 40.7625L40.1386 43.2721L42.6482 40.7625L45.1579 43.2721L47.6675 40.7625L50.1771 43.2721L52.6867 40.7625V69.8322C52.6867 71.0522 52.2597 72.0892 51.4058 72.9431C50.5518 73.7971 49.5148 74.2241 48.2949 74.2241H26.7121ZM48.2949 71.7145C48.8526 71.7145 49.3057 71.5402 49.6543 71.1916C50.0028 70.8431 50.1771 70.3899 50.1771 69.8322V44.9452H30.142V64.6039H46.4127V69.8322C46.4127 70.3899 46.587 70.8431 46.9355 71.1916C47.2841 71.5402 47.7372 71.7145 48.2949 71.7145ZM32.3588 51.5538V49.0442H42.3973V51.5538H32.3588ZM32.3588 57.1586V54.649H42.3973V57.1586H32.3588ZM46.2872 51.5538C45.9526 51.5538 45.6598 51.4283 45.4088 51.1774C45.1579 50.9264 45.0324 50.6336 45.0324 50.299C45.0324 49.9644 45.1579 49.6716 45.4088 49.4206C45.6598 49.1697 45.9526 49.0442 46.2872 49.0442C46.6218 49.0442 46.9146 49.1697 47.1656 49.4206C47.4165 49.6716 47.542 49.9644 47.542 50.299C47.542 50.6336 47.4165 50.9264 47.1656 51.1774C46.9146 51.4283 46.6218 51.5538 46.2872 51.5538ZM46.2872 56.9495C45.9526 56.9495 45.6598 56.824 45.4088 56.5731C45.1579 56.3221 45.0324 56.0293 45.0324 55.6947C45.0324 55.3601 45.1579 55.0673 45.4088 54.8163C45.6598 54.5654 45.9526 54.4399 46.2872 54.4399C46.6218 54.4399 46.9146 54.5654 47.1656 54.8163C47.4165 55.0673 47.542 55.3601 47.542 55.6947C47.542 56.0293 47.4165 56.3221 47.1656 56.5731C46.9146 56.824 46.6218 56.9495 46.2872 56.9495ZM26.6703 71.7145H43.9031V67.1135H24.8299V69.8322C24.8299 70.3899 25.0063 70.8431 25.359 71.1916C25.7118 71.5402 26.1489 71.7145 26.6703 71.7145Z" fill="white"/>
<defs>
<filter id="filter0_b_3039_2718" x="-23.25" y="-3.2605" width="121.135" height="121.135" filterUnits="userSpaceOnUse" color-interpolation-filters="sRGB">
<feFlood flood-opacity="0" result="BackgroundImageFix"/>
<feGaussianBlur in="BackgroundImageFix" stdDeviation="12"/>
<feComposite in2="SourceAlpha" operator="in" result="effect1_backgroundBlur_3039_2718"/>
<feBlend mode="normal" in="SourceGraphic" in2="effect1_backgroundBlur_3039_2718" result="shape"/>
</filter>
<linearGradient id="paint0_linear_3039_2718" x1="94.9992" y1="34.1812" x2="26.6367" y2="34.1812" gradientUnits="userSpaceOnUse">
<stop stop-color="#34A5FF"/>
<stop offset="1" stop-color="#5B2CD3"/>
</linearGradient>
<linearGradient id="paint1_linear_3039_2718" x1="47.4651" y1="31.1371" x2="64.0217" y2="78.1363" gradientUnits="userSpaceOnUse">
<stop stop-color="#2D59F6"/>
<stop offset="1" stop-color="#34A0FF" stop-opacity="0.4"/>
</linearGradient>
<linearGradient id="paint2_linear_3039_2718" x1="4.88067" y1="26.2481" x2="60.7811" y2="95.5007" gradientUnits="userSpaceOnUse">
<stop stop-color="white" stop-opacity="0.25"/>
<stop offset="1" stop-color="white" stop-opacity="0"/>
</linearGradient>
</defs>
</svg>
