<svg width="14" height="18" viewBox="0 0 14 18" fill="none" xmlns="http://www.w3.org/2000/svg">
<path d="M6.41634 14.7916H7.66634V10.6041L9.37467 12.3125L10.2497 11.4375L6.99967 8.27079L3.79134 11.4791L4.66634 12.3541L6.41634 10.6041V14.7916ZM1.58301 17.3333C1.24967 17.3333 0.958008 17.2083 0.708008 16.9583C0.458008 16.7083 0.333008 16.4166 0.333008 16.0833V1.91663C0.333008 1.58329 0.458008 1.29163 0.708008 1.04163C0.958008 0.791626 1.24967 0.666626 1.58301 0.666626H9.10384L13.6663 5.22913V16.0833C13.6663 16.4166 13.5413 16.7083 13.2913 16.9583C13.0413 17.2083 12.7497 17.3333 12.4163 17.3333H1.58301ZM8.47884 5.79163V1.91663H1.58301V16.0833H12.4163V5.79163H8.47884Z" fill="#5B2CD3"/>
</svg>
