<svg width="18" height="18" viewBox="0 0 18 18" fill="none" xmlns="http://www.w3.org/2000/svg">
<path d="M1.5 15.575C2.5 14.6417 3.63247 13.8875 4.8974 13.3125C6.16235 12.7375 7.52902 12.45 8.9974 12.45C10.4658 12.45 11.8333 12.7375 13.1 13.3125C14.3667 13.8875 15.5 14.6417 16.5 15.575V1.5H1.5V15.575ZM9.05 10.475C10.0167 10.475 10.8333 10.1417 11.5 9.475C12.1667 8.80833 12.5 7.99167 12.5 7.025C12.5 6.05833 12.1667 5.24167 11.5 4.575C10.8333 3.90833 10.0167 3.575 9.05 3.575C8.08333 3.575 7.26667 3.90833 6.6 4.575C5.93333 5.24167 5.6 6.05833 5.6 7.025C5.6 7.99167 5.93333 8.80833 6.6 9.475C7.26667 10.1417 8.08333 10.475 9.05 10.475ZM1.5 18C1.1 18 0.75 17.85 0.45 17.55C0.15 17.25 0 16.9 0 16.5V1.5C0 1.1 0.15 0.75 0.45 0.45C0.75 0.15 1.1 0 1.5 0H16.5C16.9 0 17.25 0.15 17.55 0.45C17.85 0.75 18 1.1 18 1.5V16.5C18 16.9 17.85 17.25 17.55 17.55C17.25 17.85 16.9 18 16.5 18H1.5ZM2.875 16.5H15.125V16.275C14.225 15.5083 13.2583 14.9292 12.225 14.5375C11.1917 14.1458 10.1167 13.95 9 13.95C7.88333 13.95 6.80833 14.1458 5.775 14.5375C4.74167 14.9292 3.775 15.5083 2.875 16.275V16.5ZM9.05 8.975C8.50833 8.975 8.04792 8.78542 7.66875 8.40625C7.28958 8.02708 7.1 7.56667 7.1 7.025C7.1 6.48333 7.28958 6.02292 7.66875 5.64375C8.04792 5.26458 8.50833 5.075 9.05 5.075C9.59167 5.075 10.0521 5.26458 10.4313 5.64375C10.8104 6.02292 11 6.48333 11 7.025C11 7.56667 10.8104 8.02708 10.4313 8.40625C10.0521 8.78542 9.59167 8.975 9.05 8.975Z" fill="white"/>
</svg>
