<svg width="67" height="25" viewBox="0 0 67 25" fill="none" xmlns="http://www.w3.org/2000/svg">
<path d="M32.125 7.675C32.025 7.675 31.975 7.625 31.975 7.525V6.235C31.975 6.135 32.025 6.085 32.125 6.085H33.385C33.485 6.085 33.535 6.135 33.535 6.235V7.525C33.535 7.625 33.485 7.675 33.385 7.675H32.125ZM30.175 7.675C30.075 7.675 30.025 7.625 30.025 7.525V6.235C30.025 6.135 30.075 6.085 30.175 6.085H31.435C31.535 6.085 31.585 6.135 31.585 6.235V7.525C31.585 7.625 31.535 7.675 31.435 7.675H30.175ZM33.04 9.505V8.86C33.04 8.76 33.09 8.71 33.19 8.71H34.57C34.67 8.71 34.72 8.76 34.72 8.86V13.72C34.72 14.02 34.775 14.23 34.885 14.35C35.005 14.46 35.19 14.515 35.44 14.515H36.01C36.41 14.515 36.61 14.765 36.61 15.265C36.61 15.565 36.56 15.765 36.46 15.865C36.37 15.955 36.22 16 36.01 16H34.795C34.305 16 33.92 15.915 33.64 15.745C33.37 15.575 33.19 15.275 33.1 14.845C32.89 15.025 32.64 15.16 32.35 15.25C32.06 15.34 31.755 15.385 31.435 15.385C31.045 15.385 30.675 15.33 30.325 15.22C29.985 15.11 29.685 14.94 29.425 14.71C29.175 14.48 28.975 14.19 28.825 13.84C28.675 13.48 28.6 13.05 28.6 12.55C28.6 11.97 28.68 11.485 28.84 11.095C29.01 10.705 29.23 10.395 29.5 10.165C29.78 9.925 30.095 9.755 30.445 9.655C30.795 9.555 31.16 9.505 31.54 9.505H33.04ZM31.63 13.9C32.11 13.9 32.465 13.765 32.695 13.495C32.925 13.215 33.04 12.81 33.04 12.28V11.005H31.705C31.275 11.005 30.93 11.115 30.67 11.335C30.41 11.555 30.28 11.96 30.28 12.55C30.28 13.01 30.4 13.35 30.64 13.57C30.88 13.79 31.21 13.9 31.63 13.9ZM38.6035 18.88C38.5035 18.88 38.4535 18.83 38.4535 18.73V17.44C38.4535 17.34 38.5035 17.29 38.6035 17.29H39.8635C39.9635 17.29 40.0135 17.34 40.0135 17.44V18.73C40.0135 18.83 39.9635 18.88 39.8635 18.88H38.6035ZM36.6535 18.88C36.5535 18.88 36.5035 18.83 36.5035 18.73V17.44C36.5035 17.34 36.5535 17.29 36.6535 17.29H37.9135C38.0135 17.29 38.0635 17.34 38.0635 17.44V18.73C38.0635 18.83 38.0135 18.88 37.9135 18.88H36.6535ZM38.9935 15.235C38.8535 15.525 38.6385 15.725 38.3485 15.835C38.0685 15.945 37.6885 16 37.2085 16H35.8135C35.6135 16 35.4635 15.955 35.3635 15.865C35.2635 15.765 35.2135 15.575 35.2135 15.295C35.2135 15.005 35.2635 14.805 35.3635 14.695C35.4535 14.575 35.6035 14.515 35.8135 14.515H36.7885C36.9685 14.515 37.1035 14.49 37.1935 14.44C37.2935 14.38 37.3635 14.295 37.4035 14.185C37.4535 14.065 37.4835 13.915 37.4935 13.735C37.5035 13.545 37.5085 13.315 37.5085 13.045V9.925C37.5085 9.865 37.5335 9.825 37.5835 9.805C37.6435 9.785 37.7035 9.775 37.7635 9.775H39.0535C39.1535 9.775 39.2035 9.825 39.2035 9.925V13.585C39.2035 13.885 39.3135 14.115 39.5335 14.275C39.7635 14.435 40.0685 14.515 40.4485 14.515H40.7035C40.9035 14.515 41.0535 14.57 41.1535 14.68C41.2535 14.79 41.3035 14.975 41.3035 15.235C41.3035 15.525 41.2535 15.725 41.1535 15.835C41.0635 15.945 40.9135 16 40.7035 16C40.3135 16 39.9735 15.955 39.6835 15.865C39.3935 15.765 39.1635 15.555 38.9935 15.235ZM41.5743 18.85C41.4743 18.85 41.4243 18.8 41.4243 18.7V17.41C41.4243 17.31 41.4743 17.26 41.5743 17.26H43.0143C43.1143 17.26 43.1643 17.31 43.1643 17.41V18.7C43.1643 18.8 43.1143 18.85 43.0143 18.85H41.5743ZM40.2543 16C40.0543 16 39.9043 15.965 39.8043 15.895C39.7043 15.825 39.6543 15.685 39.6543 15.475C39.6543 15.225 39.7043 15.005 39.8043 14.815C39.8943 14.615 40.0443 14.515 40.2543 14.515H40.9893C41.2393 14.515 41.4193 14.46 41.5293 14.35C41.6493 14.23 41.7093 14.02 41.7093 13.72V9.925C41.7093 9.825 41.7593 9.775 41.8593 9.775H43.2543C43.3543 9.775 43.4043 9.825 43.4043 9.925V14.11C43.4043 14.76 43.2693 15.24 42.9993 15.55C42.7293 15.85 42.2793 16 41.6493 16H40.2543ZM45.6152 9.925C45.6152 9.825 45.6652 9.775 45.7652 9.775H47.1602C47.2602 9.775 47.3102 9.825 47.3102 9.925V13.585C47.3102 13.885 47.4202 14.115 47.6402 14.275C47.8702 14.435 48.1752 14.515 48.5552 14.515H48.8102C49.0102 14.515 49.1602 14.57 49.2602 14.68C49.3602 14.79 49.4102 14.975 49.4102 15.235C49.4102 15.525 49.3602 15.725 49.2602 15.835C49.1702 15.945 49.0202 16 48.8102 16C48.4702 16 48.1752 15.97 47.9252 15.91C47.6852 15.85 47.4802 15.715 47.3102 15.505V15.79C47.3102 16.33 47.2652 16.8 47.1752 17.2C47.0852 17.61 46.9352 17.95 46.7252 18.22C46.5252 18.49 46.2552 18.69 45.9152 18.82C45.5752 18.96 45.1552 19.03 44.6552 19.03H44.1002C44.0002 19.03 43.9502 18.98 43.9502 18.88V17.68C43.9502 17.58 44.0002 17.53 44.1002 17.53H44.4302C44.7202 17.53 44.9452 17.48 45.1052 17.38C45.2652 17.28 45.3802 17.13 45.4502 16.93C45.5302 16.74 45.5752 16.505 45.5852 16.225C45.6052 15.955 45.6152 15.64 45.6152 15.28V9.925ZM52.5631 9.505C53.7131 9.505 54.5531 9.72 55.0831 10.15C55.6131 10.58 55.8781 11.145 55.8781 11.845C55.8781 12.145 55.8281 12.43 55.7281 12.7C55.6381 12.96 55.5181 13.205 55.3681 13.435C55.2181 13.655 55.0481 13.855 54.8581 14.035C54.6681 14.215 54.4831 14.365 54.3031 14.485C54.3831 14.505 54.4681 14.515 54.5581 14.515C54.6581 14.515 54.7631 14.515 54.8731 14.515H56.7481C56.9781 14.515 57.1331 14.575 57.2131 14.695C57.2931 14.815 57.3331 15.015 57.3331 15.295C57.3331 15.575 57.2831 15.765 57.1831 15.865C57.0931 15.955 56.9481 16 56.7481 16H54.5131C54.1531 16 53.8081 15.97 53.4781 15.91C53.1581 15.84 52.8531 15.715 52.5631 15.535C52.2331 15.715 51.8831 15.84 51.5131 15.91C51.1431 15.97 50.8131 16 50.5231 16H48.3631C48.1731 16 48.0281 15.95 47.9281 15.85C47.8281 15.75 47.7781 15.565 47.7781 15.295C47.7781 15.035 47.8131 14.84 47.8831 14.71C47.9431 14.58 48.1031 14.515 48.3631 14.515H50.1181C50.2781 14.515 50.4581 14.51 50.6581 14.5C50.8581 14.48 51.0931 14.44 51.3631 14.38C51.2831 14.05 51.1731 13.765 51.0331 13.525C50.9031 13.285 50.7531 13.075 50.5831 12.895C50.4131 12.705 50.2281 12.54 50.0281 12.4C49.8381 12.25 49.6431 12.105 49.4431 11.965C49.3331 11.885 49.2681 11.815 49.2481 11.755C49.2381 11.685 49.2331 11.61 49.2331 11.53V10.585C49.2331 10.475 49.3281 10.355 49.5181 10.225C49.7081 10.095 49.9581 9.98 50.2681 9.88C50.5781 9.77 50.9331 9.68 51.3331 9.61C51.7331 9.54 52.1431 9.505 52.5631 9.505ZM52.7881 14.035C52.9481 13.935 53.1081 13.815 53.2681 13.675C53.4381 13.535 53.5831 13.385 53.7031 13.225C53.8331 13.055 53.9381 12.875 54.0181 12.685C54.0981 12.495 54.1381 12.3 54.1381 12.1C54.1381 11.69 53.9881 11.405 53.6881 11.245C53.3981 11.085 53.0231 11.005 52.5631 11.005C52.1631 11.005 51.8131 11.045 51.5131 11.125C51.2231 11.205 51.0231 11.275 50.9131 11.335C51.3731 11.625 51.7631 12.005 52.0831 12.475C52.4131 12.935 52.6481 13.455 52.7881 14.035ZM56.292 16C56.092 16 55.942 15.955 55.842 15.865C55.742 15.765 55.692 15.57 55.692 15.28C55.692 15 55.742 14.805 55.842 14.695C55.932 14.575 56.082 14.515 56.292 14.515H57.027C57.277 14.515 57.457 14.46 57.567 14.35C57.687 14.23 57.747 14.02 57.747 13.72V5.95C57.747 5.85 57.797 5.8 57.897 5.8H59.292C59.392 5.8 59.442 5.85 59.442 5.95V14.11C59.442 14.76 59.307 15.24 59.037 15.55C58.767 15.85 58.317 16 57.687 16H56.292ZM62.6429 15.85C62.6429 15.95 62.5929 16 62.4929 16H61.0979C60.9979 16 60.9479 15.95 60.9479 15.85V5.95C60.9479 5.85 60.9979 5.8 61.0979 5.8H62.4929C62.5929 5.8 62.6429 5.85 62.6429 5.95V15.85Z" fill="#140A2B"/>
<g clip-path="url(#clip0_3266_840)">
<path d="M11.99 2.04688C6.47 2.04688 2 6.63854 2 12.2961C2 17.9537 6.47 22.5454 11.99 22.5454C17.52 22.5454 22 17.9537 22 12.2961C22 6.63854 17.52 2.04688 11.99 2.04688ZM18.92 8.19642H15.97C15.65 6.91527 15.19 5.68536 14.59 4.54769C16.43 5.19339 17.96 6.5053 18.92 8.19642ZM12 4.13772C12.83 5.36763 13.48 6.73078 13.91 8.19642H10.09C10.52 6.73078 11.17 5.36763 12 4.13772ZM4.26 14.346C4.1 13.69 4 13.0033 4 12.2961C4 11.5889 4.1 10.9022 4.26 10.2463H7.64C7.56 10.9227 7.5 11.5992 7.5 12.2961C7.5 12.9931 7.56 13.6695 7.64 14.346H4.26ZM5.08 16.3958H8.03C8.35 17.677 8.81 18.9069 9.41 20.0446C7.57 19.3988 6.04 18.0972 5.08 16.3958V16.3958ZM8.03 8.19642H5.08C6.04 6.49505 7.57 5.19339 9.41 4.54769C8.81 5.68536 8.35 6.91527 8.03 8.19642V8.19642ZM12 20.4545C11.17 19.2246 10.52 17.8615 10.09 16.3958H13.91C13.48 17.8615 12.83 19.2246 12 20.4545ZM14.34 14.346H9.66C9.57 13.6695 9.5 12.9931 9.5 12.2961C9.5 11.5992 9.57 10.9125 9.66 10.2463H14.34C14.43 10.9125 14.5 11.5992 14.5 12.2961C14.5 12.9931 14.43 13.6695 14.34 14.346ZM14.59 20.0446C15.19 18.9069 15.65 17.677 15.97 16.3958H18.92C17.96 18.0869 16.43 19.3988 14.59 20.0446V20.0446ZM16.36 14.346C16.44 13.6695 16.5 12.9931 16.5 12.2961C16.5 11.5992 16.44 10.9227 16.36 10.2463H19.74C19.9 10.9022 20 11.5889 20 12.2961C20 13.0033 19.9 13.69 19.74 14.346H16.36Z" fill="#140A2B"/>
</g>
<defs>
<clipPath id="clip0_3266_840">
<rect width="24" height="24.5982" fill="white"/>
</clipPath>
</defs>
</svg>
