<svg width="16" height="16" viewBox="0 0 16 16" fill="none" xmlns="http://www.w3.org/2000/svg">
<path d="M3.08235 10.5647H3.95294V8.61176H5.08235C5.32902 8.61176 5.53578 8.52833 5.70264 8.36146C5.86951 8.1946 5.95294 7.98784 5.95294 7.74118V6.61176C5.95294 6.3651 5.86951 6.15834 5.70264 5.99148C5.53578 5.82461 5.32902 5.74118 5.08235 5.74118H3.08235V10.5647ZM3.95294 7.74118V6.61176H5.08235V7.74118H3.95294ZM6.98824 10.5647H8.96471C9.2 10.5647 9.40392 10.4813 9.57647 10.3144C9.74902 10.1475 9.83529 9.94078 9.83529 9.69412V6.61176C9.83529 6.3651 9.74902 6.15834 9.57647 5.99148C9.40392 5.82461 9.2 5.74118 8.96471 5.74118H6.98824V10.5647ZM7.85882 9.69412V6.61176H8.96471V9.69412H7.85882ZM10.9882 10.5647H11.8588V8.61176H13.0353V7.74118H11.8588V6.61176H13.0353V5.74118H10.9882V10.5647ZM1.41176 16C1.03529 16 0.705882 15.8588 0.423529 15.5765C0.141177 15.2941 0 14.9647 0 14.5882V1.41176C0 1.03529 0.141177 0.705882 0.423529 0.423529C0.705882 0.141176 1.03529 0 1.41176 0H14.5882C14.9647 0 15.2941 0.141176 15.5765 0.423529C15.8588 0.705882 16 1.03529 16 1.41176V14.5882C16 14.9647 15.8588 15.2941 15.5765 15.5765C15.2941 15.8588 14.9647 16 14.5882 16H1.41176ZM1.41176 14.5882H14.5882V1.41176H1.41176V14.5882Z" fill="#C4C1CA"/>
</svg>
