<svg width="16" height="11" viewBox="0 0 16 11" fill="none" xmlns="http://www.w3.org/2000/svg">
<path d="M8.0013 8.5013C8.79019 8.5013 9.45964 8.2263 10.0096 7.6763C10.5596 7.1263 10.8346 6.45686 10.8346 5.66797C10.8346 4.87908 10.5596 4.20964 10.0096 3.65964C9.45964 3.10964 8.79019 2.83464 8.0013 2.83464C7.21241 2.83464 6.54297 3.10964 5.99297 3.65964C5.44297 4.20964 5.16797 4.87908 5.16797 5.66797C5.16797 6.45686 5.44297 7.1263 5.99297 7.6763C6.54297 8.2263 7.21241 8.5013 8.0013 8.5013ZM8.0013 7.53464C7.47908 7.53464 7.03741 7.35408 6.6763 6.99297C6.31519 6.63186 6.13464 6.19019 6.13464 5.66797C6.13464 5.14575 6.31519 4.70408 6.6763 4.34297C7.03741 3.98186 7.47908 3.8013 8.0013 3.8013C8.52352 3.8013 8.96519 3.98186 9.3263 4.34297C9.68741 4.70408 9.86797 5.14575 9.86797 5.66797C9.86797 6.19019 9.68741 6.63186 9.3263 6.99297C8.96519 7.35408 8.52352 7.53464 8.0013 7.53464ZM8.0013 10.668C6.37908 10.668 4.91241 10.2069 3.6013 9.28464C2.29019 8.36241 1.31241 7.15686 0.667969 5.66797C1.31241 4.17908 2.29019 2.97352 3.6013 2.0513C4.91241 1.12908 6.37908 0.667969 8.0013 0.667969C9.62352 0.667969 11.0902 1.12908 12.4013 2.0513C13.7124 2.97352 14.6902 4.17908 15.3346 5.66797C14.6902 7.15686 13.7124 8.36241 12.4013 9.28464C11.0902 10.2069 9.62352 10.668 8.0013 10.668ZM8.0013 9.66797C9.34575 9.66797 10.5819 9.30408 11.7096 8.5763C12.8374 7.84852 13.6957 6.87908 14.2846 5.66797C13.6957 4.45686 12.8374 3.48741 11.7096 2.75964C10.5819 2.03186 9.34575 1.66797 8.0013 1.66797C6.65686 1.66797 5.42075 2.03186 4.29297 2.75964C3.16519 3.48741 2.3013 4.45686 1.7013 5.66797C2.3013 6.87908 3.16519 7.84852 4.29297 8.5763C5.42075 9.30408 6.65686 9.66797 8.0013 9.66797Z" fill="#5B2CD3"/>
</svg>
